<?xml version="1.0" standalone="no"?>
<!DOCTYPE svg PUBLIC "-//W3C//DTD SVG 20010904//EN"
 "http://www.w3.org/TR/2001/REC-SVG-20010904/DTD/svg10.dtd">
<svg version="1.0" xmlns="http://www.w3.org/2000/svg"
 width="300.000000pt" height="300.000000pt" viewBox="0 0 300.000000 300.000000"
 preserveAspectRatio="xMidYMid meet">
<metadata>
Created by potrace 1.10, written by Peter Selinger 2001-2011
</metadata>
<g transform="translate(0.000000,300.000000) scale(0.100000,-0.100000)"
fill="#000000" stroke="none">
<path d="M363 2980 c6 -8 12 -16 13 -18 3 -5 44 22 44 29 0 3 -15 5 -34 5 -29
-1 -32 -3 -23 -16z"/>
<path d="M491 2986 c-7 -8 -11 -34 -9 -58 3 -40 5 -43 33 -43 25 0 31 5 39 33
17 59 -29 109 -63 68z m45 -21 c8 -33 -3 -77 -19 -72 -13 4 -22 60 -13 83 8
22 25 16 32 -11z"/>
<path d="M1059 2988 c-1 -7 -1 -19 0 -25 1 -7 -3 -13 -9 -13 -6 0 -8 -5 -5
-10 10 -17 27 1 22 22 -4 15 -2 18 10 14 13 -5 14 -4 3 9 -15 18 -20 19 -21 3z"/>
<path d="M1244 2983 c4 -12 2 -24 -4 -28 -15 -9 -12 -35 4 -35 10 0 14 10 12
35 -2 20 -7 39 -11 43 -4 4 -4 -3 -1 -15z"/>
<path d="M1963 2993 c-18 -7 -27 -67 -13 -93 29 -55 88 17 62 75 -11 24 -24
29 -49 18z m35 -44 c1 -19 -2 -41 -8 -49 -9 -13 -11 -13 -20 0 -8 13 -8 31 -1
83 0 5 7 7 14 5 6 -3 13 -20 15 -39z"/>
<path d="M2145 2985 c-11 -9 -14 -14 -7 -10 8 4 12 -4 12 -29 0 -20 -4 -36
-10 -36 -5 0 -10 -4 -10 -10 0 -5 14 -10 31 -10 24 0 29 3 21 13 -6 7 -12 32
-14 55 -3 42 -4 43 -23 27z"/>
<path d="M2762 2988 c-17 -17 -15 -73 4 -89 35 -29 69 34 44 81 -12 23 -30 26
-48 8z m36 -49 c-2 -19 -7 -33 -13 -32 -12 3 -19 49 -10 71 10 26 27 -2 23
-39z"/>
<path d="M1747 2983 c-4 -3 -7 -23 -7 -43 0 -41 18 -64 43 -55 19 8 30 61 17
86 -10 19 -40 26 -53 12z m38 -43 c0 -18 -5 -35 -11 -37 -13 -4 -22 31 -16 60
6 30 27 13 27 -23z"/>
<path d="M2350 2980 c-11 -7 -11 -10 -2 -10 19 0 12 -79 -7 -90 -14 -8 -14 -9
2 -10 10 0 20 7 23 15 4 8 11 12 17 8 7 -4 8 0 4 11 -4 10 -7 33 -7 52 0 36
-5 40 -30 24z"/>
<path d="M27 2965 c-4 -9 -3 -13 3 -10 6 3 10 1 10 -6 0 -6 8 -9 20 -6 15 4
20 0 20 -14 0 -13 6 -18 23 -17 19 2 22 7 19 30 -4 26 -7 28 -40 23 -20 -2
-39 1 -43 6 -4 7 -9 4 -12 -6z"/>
<path d="M710 2965 c-17 -21 -4 -67 18 -63 12 2 17 13 17 37 0 38 -15 50 -35
26z"/>
<path d="M917 2974 c-12 -13 -7 -72 6 -77 24 -9 39 9 35 44 -3 32 -24 49 -41
33z m28 -42 c0 -31 -19 -28 -23 4 -3 18 0 25 10 22 7 -3 13 -14 13 -26z"/>
<path d="M1336 2967 c-13 -9 -16 -20 -11 -40 4 -15 11 -27 17 -27 5 0 6 -6 2
-12 -4 -7 3 -4 15 6 15 14 21 29 19 50 -3 34 -17 42 -42 23z"/>
<path d="M1547 2973 c-4 -3 -7 -21 -7 -39 0 -26 -4 -32 -15 -28 -8 4 -15 1
-15 -5 0 -6 14 -11 32 -11 25 0 29 3 20 12 -14 14 -16 68 -2 68 6 0 10 -14 10
-32 0 -22 3 -29 11 -21 13 13 1 63 -15 63 -7 0 -16 -3 -19 -7z"/>
<path d="M2557 2973 c-4 -3 -7 -19 -7 -35 0 -21 5 -28 19 -28 26 0 34 15 27
46 -6 23 -25 32 -39 17z"/>
<path d="M2987 2938 c-3 -24 -3 -46 1 -50 4 -4 8 15 10 43 4 60 -3 65 -11 7z"/>
<path d="M302 2940 c1 -16 6 -30 13 -30 7 0 10 11 7 30 -2 17 -8 30 -12 30 -5
0 -8 -13 -8 -30z"/>
<path d="M1125 2950 c-7 -23 1 -40 20 -40 16 0 26 25 19 45 -9 21 -32 19 -39
-5z"/>
<path d="M1631 2923 c0 -7 -6 -12 -12 -10 -21 4 -20 -21 0 -28 12 -3 21 -12
21 -19 0 -8 7 -20 17 -27 15 -13 15 -12 5 8 -7 12 -9 29 -6 37 3 9 1 16 -4 16
-6 0 -13 8 -15 18 -3 9 -5 11 -6 5z"/>
<path d="M846 2893 c9 -37 11 -40 32 -45 17 -5 17 -2 8 18 -10 20 -12 21 -18
6 -5 -13 -7 -10 -7 10 -1 15 -6 30 -11 33 -7 4 -8 -3 -4 -22z"/>
<path d="M2507 2905 c3 -8 10 -15 17 -15 6 0 4 -5 -4 -10 -12 -8 -13 -11 -2
-22 11 -11 13 -10 10 2 -2 9 4 15 14 15 29 0 27 10 -8 27 -27 14 -32 14 -27 3z"/>
<path d="M1450 2901 c0 -11 39 -25 47 -18 3 3 2 10 -2 16 -8 13 -45 15 -45 2z"/>
<path d="M16 2884 c-3 -8 -2 -12 3 -9 6 3 17 -8 27 -24 10 -17 23 -27 31 -24
15 6 18 33 2 33 -5 0 -7 -4 -4 -10 3 -5 1 -10 -4 -10 -6 0 -11 6 -11 14 0 8
-7 17 -16 20 -8 3 -12 10 -9 16 3 5 2 10 -3 10 -6 0 -13 -7 -16 -16z"/>
<path d="M1376 2873 c-37 -19 -46 -27 -37 -36 9 -9 15 -8 22 6 6 9 14 15 20
12 5 -4 12 1 15 9 3 9 10 16 15 16 5 0 0 -15 -10 -32 -12 -23 -24 -32 -38 -30
-31 4 -46 -22 -39 -65 10 -56 10 -66 1 -87 -6 -14 -5 -18 6 -14 8 2 15 15 17
27 2 12 13 32 24 43 14 14 18 30 16 55 -2 27 1 36 14 38 22 4 67 37 68 51 0 6
-7 11 -15 11 -9 0 -14 -6 -11 -13 5 -14 -17 -37 -27 -27 -4 3 -2 12 4 19 6 7
9 20 7 28 -2 11 -12 9 -52 -11z m-11 -113 c0 -18 -6 -35 -12 -37 -9 -3 -13 8
-13 37 0 29 4 40 13 38 6 -3 12 -20 12 -38z"/>
<path d="M2250 2877 c0 -14 -7 -28 -16 -31 -9 -4 -15 -9 -12 -12 3 -2 17 1 32
7 18 9 23 16 16 24 -5 7 -7 14 -4 17 3 3 1 9 -5 13 -7 4 -11 -4 -11 -18z"/>
<path d="M1277 2872 c-9 -10 -14 -22 -10 -25 3 -4 1 -7 -5 -7 -7 0 -12 -9 -12
-21 0 -11 -4 -18 -9 -15 -13 9 -23 -26 -11 -38 13 -13 13 -56 0 -56 -6 0 -6
-9 0 -24 5 -13 9 -33 9 -43 0 -10 7 -42 15 -72 9 -29 13 -58 10 -62 -3 -5 8
-17 25 -27 17 -9 31 -23 31 -29 0 -7 5 -13 10 -13 14 0 14 1 -25 65 -39 66
-56 135 -52 218 1 33 1 54 -1 48 -2 -6 -8 -9 -13 -5 -13 8 -11 24 4 24 20 0
50 57 35 64 -7 4 -3 4 10 2 23 -4 27 1 14 22 -7 10 -12 8 -25 -6z"/>
<path d="M2406 2874 c-8 -22 -8 -24 8 -24 15 0 28 24 19 34 -11 10 -21 7 -27
-10z"/>
<path d="M1490 2870 c-12 -8 -11 -10 8 -10 13 0 22 -6 21 -12 -3 -24 13 -58
27 -58 17 0 19 -51 2 -68 -9 -9 -6 -12 16 -12 23 0 26 3 17 14 -6 8 -9 27 -7
42 5 30 -5 58 -19 52 -8 -3 -20 14 -29 45 -6 19 -14 21 -36 7z"/>
<path d="M590 2861 c0 -7 -3 -10 -7 -8 -5 3 -14 -1 -21 -9 -11 -12 -10 -14 5
-13 10 0 26 4 36 8 17 6 17 8 3 20 -12 10 -16 10 -16 2z"/>
<path d="M1776 2862 c-5 -9 4 -21 29 -35 6 -3 12 3 12 14 1 11 -3 17 -9 13 -6
-4 -14 -1 -18 6 -5 7 -10 8 -14 2z"/>
<path d="M366 2834 c-4 -10 -2 -13 6 -8 6 4 16 0 23 -9 11 -15 14 -15 34 0 17
11 20 18 11 27 -8 8 -15 6 -25 -8 -13 -17 -15 -17 -21 -3 -8 21 -20 22 -28 1z"/>
<path d="M1706 2834 c-3 -8 -10 -13 -15 -9 -5 3 -13 0 -17 -6 -5 -8 -3 -9 6
-4 10 6 12 4 7 -8 -4 -11 -1 -17 8 -17 9 0 12 -6 8 -17 -4 -11 5 -6 21 11 24
25 26 30 12 38 -9 5 -14 13 -11 19 4 5 2 9 -3 9 -6 0 -13 -7 -16 -16z"/>
<path d="M2684 2825 c3 -9 0 -15 -9 -15 -7 0 -17 -5 -21 -11 -4 -7 -1 -10 7
-7 8 3 22 1 31 -4 15 -7 17 -5 8 16 -5 13 -6 27 -3 30 4 3 1 6 -6 6 -8 0 -11
-7 -7 -15z"/>
<path d="M1640 2794 c14 -26 16 -40 9 -45 -8 -5 -8 -9 1 -14 6 -4 9 -13 6 -21
-3 -8 -1 -14 3 -14 28 0 13 86 -20 116 -16 15 -16 12 1 -22z"/>
<path d="M2550 2816 c0 -8 5 -18 11 -22 6 -3 9 -17 6 -30 -2 -13 0 -24 4 -24
5 0 9 14 9 30 0 17 -5 30 -11 30 -6 0 -9 7 -5 15 3 8 1 15 -4 15 -6 0 -10 -6
-10 -14z"/>
<path d="M2970 2811 c-15 -28 -12 -67 5 -81 9 -7 18 -10 22 -6 3 3 1 6 -5 6
-7 0 -12 16 -12 40 0 22 5 40 10 40 6 0 10 5 10 10 0 17 -19 11 -30 -9z"/>
<path d="M503 2813 c-7 -2 -13 -9 -13 -14 0 -6 5 -7 10 -4 17 10 12 -71 -5
-85 -12 -10 -15 -9 -15 6 0 15 -4 14 -18 -9 -10 -15 -22 -24 -27 -20 -4 5 -5
0 -1 -11 3 -10 1 -25 -5 -32 -13 -16 -3 -35 15 -28 7 3 13 -2 13 -11 0 -9 -6
-14 -13 -11 -8 3 -16 0 -20 -6 -5 -7 -2 -8 6 -3 10 6 12 4 7 -7 -3 -9 -1 -20
4 -25 14 -14 19 -52 8 -59 -11 -6 35 -54 53 -54 6 0 9 -14 6 -34 -3 -27 0 -36
14 -39 9 -3 26 -19 36 -37 13 -21 22 -28 27 -20 5 7 -4 21 -20 34 -20 16 -28
33 -30 59 -3 49 -56 169 -72 162 -15 -5 -18 11 -3 20 6 3 10 23 9 43 0 30 -2
33 -9 17 -9 -20 -9 -20 -9 0 -1 25 9 39 34 50 24 9 100 7 131 -5 29 -11 64 -2
57 15 -3 8 -12 11 -21 7 -15 -5 -15 -3 1 23 l18 30 -21 -24 c-21 -25 -74 -38
-85 -21 -3 5 -12 7 -20 3 -12 -4 -15 5 -15 46 0 50 -3 54 -27 44z m1 -336 c15
-24 -2 -34 -19 -11 -8 10 -15 23 -15 27 0 13 22 3 34 -16z"/>
<path d="M2369 2788 c0 -28 -2 -30 -9 -13 -8 18 -9 18 -9 2 -1 -27 27 -53 42
-38 6 6 7 11 1 11 -5 0 -11 11 -12 25 -1 18 3 25 16 25 14 0 15 2 2 10 -24 16
-30 12 -31 -22z"/>
<path d="M993 2803 c-27 -10 -11 -22 27 -20 32 1 36 3 22 11 -21 12 -33 14
-49 9z"/>
<path d="M2140 2786 c-7 -18 -5 -33 5 -53 10 -19 15 -22 15 -10 0 9 5 17 11
17 14 0 7 62 -8 68 -7 2 -17 -8 -23 -22z"/>
<path d="M2779 2809 c-6 -33 -2 -69 8 -69 9 0 11 10 6 33 -5 29 -12 46 -14 36z"/>
<path d="M84 2788 c-4 -7 -3 -8 4 -4 15 9 15 5 2 -28 -8 -22 -7 -26 8 -26 15
0 17 7 14 35 -4 35 -15 44 -28 23z"/>
<path d="M715 2768 c1 -21 8 -34 19 -36 18 -4 22 13 6 23 -6 4 -9 14 -8 22 2
9 -2 18 -8 20 -8 2 -11 -8 -9 -29z"/>
<path d="M880 2782 c-21 -17 -21 -19 -5 -32 16 -13 17 -13 11 6 -4 15 -2 24 9
28 11 4 15 -2 15 -23 0 -20 7 -31 25 -39 14 -6 25 -19 25 -28 0 -10 3 -15 6
-11 4 3 3 14 -1 24 -4 10 -7 35 -6 56 2 20 -2 37 -7 37 -4 0 -7 -13 -4 -29 5
-36 -15 -51 -24 -17 -3 14 -3 30 1 35 10 18 -21 12 -45 -7z"/>
<path d="M1139 2798 c-4 -27 -2 -55 5 -66 4 -6 2 -12 -3 -12 -6 0 -11 -8 -11
-17 1 -16 2 -16 16 2 8 11 19 19 24 18 4 -1 6 6 3 17 -3 11 -10 17 -16 13 -6
-4 -8 0 -5 9 4 8 2 21 -3 29 -5 8 -9 11 -10 7z"/>
<path d="M1745 2788 c-9 -25 7 -68 25 -68 15 0 32 40 25 60 -7 22 -43 27 -50
8z"/>
<path d="M290 2764 c0 -33 33 -30 38 4 3 17 -2 22 -17 22 -16 0 -21 -6 -21
-26z"/>
<path d="M1972 2760 c0 -16 4 -30 9 -30 5 0 9 14 9 30 0 17 -4 30 -8 30 -5 0
-9 -13 -10 -30z"/>
<path d="M1276 2754 c-13 -34 -2 -114 15 -114 5 0 9 9 9 20 0 11 -4 20 -9 20
-4 0 -6 11 -3 25 2 14 8 23 12 20 4 -2 5 7 2 20 -5 28 -17 32 -26 9z"/>
<path d="M2490 2760 c1 -3 7 -16 15 -30 8 -14 14 -37 15 -52 0 -16 3 -28 8
-28 9 0 7 58 -3 82 -4 9 -4 21 -2 25 3 5 -3 9 -14 9 -10 0 -19 -3 -19 -6z"/>
<path d="M1012 2726 c11 -35 38 -41 38 -7 0 14 -2 14 -10 1 -8 -13 -10 -13
-10 1 0 9 -6 22 -14 28 -12 10 -13 7 -4 -23z"/>
<path d="M2450 2750 c0 -5 -7 -10 -15 -10 -8 0 -15 -4 -15 -10 0 -5 -9 -10
-20 -10 -11 0 -20 -4 -20 -10 0 -16 12 -12 60 20 27 18 38 30 28 30 -10 0 -18
-4 -18 -10z"/>
<path d="M1590 2742 c0 -5 12 -21 26 -36 21 -20 24 -29 15 -40 -10 -11 -7 -20
14 -40 21 -21 26 -34 23 -64 -2 -28 -7 -37 -20 -36 -14 1 -18 -6 -18 -32 0
-19 4 -34 9 -34 5 0 7 10 3 22 -4 16 -2 19 8 13 8 -5 11 -4 7 2 -4 6 -1 16 7
22 11 9 13 -4 11 -74 -1 -47 2 -85 6 -85 5 0 9 -6 9 -14 0 -19 30 -43 31 -25
0 8 5 4 11 -8 6 -13 15 -23 20 -23 5 0 6 -4 3 -10 -3 -5 -1 -10 4 -10 6 0 11
-7 11 -15 0 -8 -8 -15 -17 -15 -17 -1 -17 -1 0 -11 14 -8 16 -14 6 -25 -9 -11
-6 -14 17 -14 22 0 25 3 16 12 -21 21 -15 66 10 74 13 4 24 2 26 -5 6 -17 30
-13 78 11 51 25 52 32 3 17 -78 -25 -144 -3 -185 62 -26 41 -31 72 -37 216 -3
68 -8 86 -28 110 -29 36 -69 67 -69 55z"/>
<path d="M2725 2720 c3 -5 -1 -10 -9 -10 -16 0 -21 -12 -9 -23 9 -9 33 12 33
29 0 8 -5 14 -11 14 -5 0 -7 -4 -4 -10z"/>
<path d="M1708 2655 c2 -39 8 -63 13 -59 6 3 7 20 3 37 -3 18 -3 29 1 25 10
-10 37 11 29 23 -3 5 1 9 8 9 9 0 9 3 -2 10 -11 7 -18 3 -27 -13 -12 -22 -12
-22 -13 6 0 15 -3 27 -7 27 -5 0 -6 -29 -5 -65z"/>
<path d="M2336 2706 c7 -17 -32 -41 -41 -26 -8 14 -45 13 -45 -1 0 -6 9 -9 20
-6 11 3 23 1 26 -4 3 -5 1 -9 -3 -9 -5 0 -17 -14 -27 -30 -9 -17 -22 -28 -27
-25 -5 4 -9 -2 -9 -11 0 -13 12 -6 43 25 23 24 55 49 70 57 24 13 26 17 13 29
-19 19 -27 19 -20 1z"/>
<path d="M2402 2683 c-37 -22 -62 -44 -63 -55 -2 -31 -4 -36 -12 -44 -4 -4
-15 -9 -23 -10 -13 -2 -11 2 5 20 12 12 21 28 21 35 0 19 -178 -164 -182 -186
-2 -10 -7 -21 -13 -25 -6 -5 -4 -12 5 -18 13 -9 13 -11 0 -20 -11 -7 -6 -10
20 -9 19 0 29 3 23 6 -15 6 -18 89 -3 98 5 3 7 0 4 -8 -4 -11 2 -15 19 -13 14
0 23 3 21 5 -2 2 5 11 17 19 15 10 18 17 10 25 -15 15 -14 30 1 21 6 -4 8 -3
5 3 -3 5 14 19 38 30 35 16 45 17 49 7 14 -37 63 7 51 46 -7 21 27 46 48 34 6
-4 9 -4 5 1 -4 4 -3 14 3 22 9 9 8 13 0 13 -6 0 -11 -5 -11 -11 0 -5 -4 -8 -9
-5 -5 3 -14 -1 -21 -9 -15 -18 -31 -20 -24 -2 2 7 25 21 49 32 25 10 45 22 45
27 0 14 -13 9 -78 -29z m-22 -89 c0 -24 -4 -34 -12 -32 -24 8 -22 68 2 68 5 0
10 -16 10 -36z"/>
<path d="M871 2673 c-1 -27 2 -31 19 -28 16 3 20 -2 20 -25 0 -15 -6 -31 -12
-33 -10 -4 -10 -6 0 -6 6 -1 12 -7 12 -15 0 -16 22 -27 37 -18 14 9 20 53 9
71 -6 9 -1 20 15 33 18 14 19 17 5 11 -11 -3 -35 -6 -55 -6 -29 0 -37 4 -42
24 -6 22 -7 21 -8 -8z m70 -32 c-7 -5 -9 -11 -4 -14 15 -9 15 -69 1 -65 -8 3
-13 22 -14 46 -1 32 3 42 15 42 13 0 13 -2 2 -9z"/>
<path d="M2482 2673 c-5 -10 -10 -33 -10 -51 0 -17 -9 -51 -20 -75 -34 -73
-43 -99 -32 -92 6 3 10 -4 10 -17 1 -17 5 -12 15 17 8 21 12 41 10 43 -2 2 5
18 15 36 17 31 38 156 26 156 -3 0 -9 -8 -14 -17z"/>
<path d="M543 2667 c2 -7 13 -12 24 -12 12 0 29 -8 40 -17 10 -10 24 -14 31
-9 19 12 -16 37 -61 44 -27 4 -37 3 -34 -6z"/>
<path d="M499 2663 c-7 -53 -5 -84 5 -98 18 -24 36 -10 36 27 0 21 -6 31 -20
35 -16 4 -18 9 -9 24 6 13 6 19 -1 19 -5 0 -10 -3 -11 -7z m31 -79 c0 -13 -4
-24 -10 -24 -5 0 -10 14 -10 31 0 17 4 28 10 24 6 -3 10 -17 10 -31z"/>
<path d="M2544 2636 c-4 -17 -8 -40 -9 -51 -2 -11 -8 -19 -16 -17 -8 2 -10 0
-6 -5 5 -4 12 -8 15 -8 4 -1 17 -6 28 -12 33 -19 58 5 56 52 -2 42 -13 60 -42
68 -15 4 -20 -2 -26 -27z m46 -7 c14 -25 3 -79 -16 -79 -10 0 -14 13 -14 43 0
38 5 57 16 57 2 0 8 -9 14 -21z"/>
<path d="M1870 2658 c-1 -5 -3 -12 -4 -17 0 -5 -4 -12 -8 -16 -4 -4 -4 -14 -1
-22 3 -8 0 -19 -8 -24 -10 -6 -11 -9 -1 -9 16 0 34 47 29 74 -2 12 -5 18 -7
14z"/>
<path d="M2136 2644 c-21 -20 -20 -72 0 -95 21 -24 8 -46 -14 -25 -15 12 -20
13 -36 1 -18 -14 -18 -15 -1 -22 11 -4 20 -2 23 5 2 7 8 10 13 6 15 -9 10 -21
-12 -27 -12 -3 -18 -10 -14 -16 3 -6 1 -11 -5 -11 -6 0 -8 -5 -5 -10 4 -6 3
-9 -2 -8 -14 4 -53 -22 -53 -35 0 -7 -9 -13 -20 -14 -16 -1 -20 4 -20 28 0 16
-5 29 -10 29 -6 0 -8 -11 -4 -25 5 -21 3 -25 -16 -25 -11 0 -18 -4 -15 -10 3
-5 18 -10 33 -10 l27 -1 -24 -13 c-13 -7 -19 -16 -13 -20 23 -14 202 144 202
179 0 9 11 20 25 25 14 5 25 15 25 21 0 8 -4 8 -15 -1 -13 -11 -15 -7 -15 27
0 56 -24 77 -54 47z m36 -15 c7 -22 -4 -80 -16 -76 -14 5 -19 32 -12 63 7 25
22 32 28 13z"/>
<path d="M713 2643 c-7 -3 -13 -13 -13 -24 0 -21 -10 -25 -26 -9 -6 6 -10 3
-10 -10 0 -13 5 -19 13 -16 12 5 16 -7 16 -39 0 -20 46 -16 57 4 25 48 1 108
-37 94z m29 -35 c6 -33 -2 -60 -15 -55 -18 6 -22 77 -4 77 8 0 16 -10 19 -22z"/>
<path d="M1111 2614 c-7 -25 -7 -43 0 -56 13 -24 -15 -50 -46 -42 -16 4 -17 3
-5 -5 13 -9 13 -11 -1 -11 -8 0 -24 -7 -35 -15 -18 -14 -17 -14 10 -5 22 8 31
8 38 -2 6 -10 8 -10 8 0 0 6 6 12 14 12 8 0 18 5 22 12 4 7 3 8 -4 4 -7 -4
-12 -2 -12 5 0 6 8 9 19 6 24 -6 58 28 62 63 5 42 -10 70 -36 70 -19 0 -26 -8
-34 -36z m49 -24 c0 -53 -14 -66 -29 -27 -12 30 -2 77 15 77 10 0 14 -14 14
-50z"/>
<path d="M1332 2634 c-12 -8 -26 -13 -31 -10 -5 3 -11 -1 -15 -9 -3 -10 1 -15
12 -15 11 0 18 -8 19 -20 1 -11 -3 -20 -9 -20 -5 0 2 -20 16 -44 19 -33 26
-58 26 -98 0 -38 -3 -49 -10 -38 -8 12 -10 10 -10 -8 0 -17 5 -23 18 -20 9 2
18 9 18 16 1 6 2 17 3 22 0 6 6 10 11 10 6 0 8 -10 5 -23 -4 -15 -1 -28 9 -36
18 -15 22 -1 5 16 -7 7 -3 9 14 6 38 -8 42 15 5 30 -39 16 -62 41 -55 59 2 7
-7 33 -21 57 l-25 44 23 -13 c20 -11 25 -10 37 6 18 24 16 69 -3 88 -19 19
-15 19 -42 0z m38 -44 c0 -47 -16 -60 -32 -26 -8 20 -8 32 0 52 16 34 32 21
32 -26z"/>
<path d="M2759 2626 c-16 -34 -4 -76 21 -76 36 0 52 56 24 84 -21 22 -33 20
-45 -8z m39 -39 c-2 -12 -7 -22 -13 -22 -12 0 -19 41 -10 63 6 16 7 16 16 -1
6 -10 9 -28 7 -40z"/>
<path d="M2989 2643 c-1 -5 0 -23 1 -42 1 -19 -4 -37 -12 -42 -10 -7 -9 -9 5
-9 14 0 17 9 17 50 0 28 -2 50 -5 50 -3 0 -5 -3 -6 -7z"/>
<path d="M293 2633 c-7 -2 -13 -9 -13 -14 0 -6 5 -7 10 -4 6 4 10 -8 10 -29 0
-19 -6 -37 -12 -39 -7 -3 3 -5 22 -5 19 0 29 2 23 5 -8 3 -13 23 -13 49 0 43
-3 47 -27 37z"/>
<path d="M1552 2628 c-17 -17 -15 -65 3 -72 24 -9 38 29 22 59 -10 20 -15 23
-25 13z"/>
<path d="M1968 2629 c-22 -12 -24 -31 -3 -23 18 7 20 -18 5 -47 -9 -17 -7 -19
17 -19 16 0 23 3 16 8 -6 4 -13 26 -15 49 -3 36 -5 40 -20 32z"/>
<path d="M87 2623 c-4 -3 -2 -12 4 -19 7 -9 7 -19 -1 -33 -9 -18 -8 -21 7 -21
16 0 18 7 15 40 -4 38 -11 48 -25 33z"/>
<path d="M1755 2620 c-3 -5 -1 -10 5 -10 13 0 9 -42 -5 -52 -5 -4 4 -8 21 -8
20 0 34 6 38 16 8 22 8 49 -1 40 -4 -4 -8 -15 -8 -23 0 -9 -6 -18 -12 -20 -9
-3 -13 7 -13 31 0 35 -12 47 -25 26z"/>
<path d="M2865 2599 c-4 -18 -3 -35 4 -42 8 -8 11 0 11 31 0 50 -6 54 -15 11z"/>
<path d="M2910 2578 c0 -36 6 -63 20 -83 11 -16 20 -25 20 -18 0 6 -4 14 -9
18 -15 8 -26 96 -13 104 6 4 5 11 -4 19 -12 11 -14 5 -14 -40z"/>
<path d="M784 2609 c-6 -10 7 -16 33 -15 13 1 22 5 20 10 -2 11 -46 15 -53 5z"/>
<path d="M623 2585 c-10 -11 -7 -18 17 -35 17 -12 30 -17 30 -11 0 5 -5 13
-11 16 -6 4 -13 15 -17 25 -6 15 -9 16 -19 5z"/>
<path d="M987 2569 c-9 -6 -15 -14 -12 -20 10 -15 23 -10 35 11 12 22 4 25
-23 9z"/>
<path d="M1715 2558 c-4 -12 -1 -99 4 -123 1 -5 6 -1 10 10 5 11 5 27 1 35 -5
9 -2 19 8 28 10 7 12 11 6 8 -14 -7 -26 18 -18 39 4 8 3 15 0 15 -4 0 -9 -6
-11 -12z"/>
<path d="M390 2555 c0 -15 24 -53 31 -49 5 3 5 13 -1 23 -5 10 -6 21 -3 25 3
3 -1 6 -10 6 -9 0 -17 -2 -17 -5z"/>
<path d="M2499 2545 c-4 -5 -15 -39 -25 -75 -18 -67 -49 -136 -65 -146 -5 -3
-9 -10 -9 -16 0 -6 13 2 29 18 16 15 26 34 24 42 -3 8 3 15 15 18 14 4 18 11
14 26 -2 11 -1 23 4 27 19 13 29 48 24 81 -3 19 -8 31 -11 25z"/>
<path d="M740 2509 c0 -11 5 -17 10 -14 6 3 13 -1 16 -9 7 -20 24 -21 24 -3 0
14 -31 47 -43 47 -4 0 -7 -9 -7 -21z"/>
<path d="M530 2507 c0 -8 9 -22 20 -32 10 -9 18 -20 17 -24 -5 -16 101 -159
136 -184 l37 -27 0 29 c0 25 -3 28 -25 23 -18 -3 -25 0 -25 12 0 9 -6 16 -13
16 -7 0 -26 20 -41 45 -16 25 -35 50 -42 56 -8 6 -11 16 -8 21 3 5 -3 18 -15
29 -12 11 -21 26 -21 34 0 8 -4 15 -10 15 -5 0 -10 -6 -10 -13z"/>
<path d="M2050 2477 c0 -13 -5 -17 -15 -13 -8 3 -15 1 -15 -4 0 -13 27 -13 35
0 4 6 11 8 16 5 5 -4 9 2 9 13 0 10 -7 19 -15 19 -8 0 -15 -9 -15 -20z"/>
<path d="M800 2474 c0 -5 7 -18 15 -28 8 -11 15 -23 15 -28 0 -16 -16 -7 -33
20 -13 19 -17 22 -15 8 2 -10 18 -30 37 -45 24 -18 33 -21 29 -10 -5 13 -2 16
12 12 12 -3 16 -11 13 -20 -4 -10 -2 -14 6 -12 20 7 18 12 -31 63 -27 27 -48
45 -48 40z"/>
<path d="M915 2463 c-16 -13 -17 -15 -2 -10 15 6 17 0 17 -43 0 -46 2 -50 28
-56 15 -4 37 -14 49 -21 29 -19 119 -27 129 -12 5 8 -1 10 -18 6 -16 -4 -30
-2 -37 7 -9 11 -6 12 14 8 16 -3 25 0 25 8 0 7 -7 10 -15 6 -8 -3 -15 -2 -15
3 0 4 -7 8 -15 8 -8 0 -15 -4 -15 -9 0 -5 -17 -7 -37 -3 -72 11 -73 12 -73 71
0 58 -4 62 -35 37z"/>
<path d="M2344 2465 c-16 -13 -16 -14 -1 -9 14 5 17 0 17 -34 0 -23 -5 -42
-12 -45 -7 -2 -10 -7 -7 -11 3 -3 13 -4 22 -1 22 9 30 115 8 115 -4 0 -16 -7
-27 -15z"/>
<path d="M2567 2462 c-19 -21 -22 -57 -7 -67 6 -4 10 7 10 25 0 20 4 29 11 24
6 -3 8 -17 4 -31 -4 -16 -2 -22 5 -18 13 8 13 52 0 60 -6 4 -8 11 -5 16 10 15
-1 10 -18 -9z"/>
<path d="M2765 2460 c-3 -5 -1 -10 4 -10 15 0 14 -67 -1 -73 -7 -3 0 -6 15 -6
17 -1 26 3 22 9 -3 6 -7 28 -7 50 0 39 -18 54 -33 30z"/>
<path d="M2982 2458 c-20 -20 -12 -78 11 -78 7 0 7 4 -1 12 -16 16 -15 55 1
61 6 2 9 7 6 10 -3 4 -11 1 -17 -5z"/>
<path d="M77 2453 c-4 -3 -7 -21 -7 -39 0 -43 33 -65 50 -34 14 27 9 72 -9 78
-10 3 -11 0 -4 -13 11 -18 5 -65 -7 -65 -13 0 -20 30 -14 56 6 24 3 30 -9 17z"/>
<path d="M712 2448 c-16 -16 -15 -53 2 -67 19 -16 38 10 34 45 -3 31 -18 40
-36 22z m28 -33 c0 -29 -16 -41 -24 -19 -8 21 3 56 15 49 5 -4 9 -17 9 -30z"/>
<path d="M1132 2448 c-5 -7 -12 -24 -14 -38 -2 -21 1 -25 22 -25 22 0 25 4 25
34 0 37 -15 50 -33 29z m20 -50 c-15 -15 -27 14 -17 40 6 15 8 15 18 -6 7 -16
7 -26 -1 -34z"/>
<path d="M1223 2410 c4 -37 2 -40 -19 -40 -13 0 -24 -5 -24 -11 0 -6 -9 -9
-20 -6 -11 3 -23 1 -26 -4 -3 -5 4 -9 15 -9 12 0 21 -4 21 -9 0 -12 64 21 102
52 24 20 25 23 10 37 -14 13 -15 13 -10 -1 4 -9 -2 -20 -13 -27 -21 -13 -23
-9 -19 36 1 12 -4 22 -10 22 -8 0 -10 -14 -7 -40z"/>
<path d="M1555 2418 c0 -28 -4 -34 -25 -36 -14 -2 -29 -8 -34 -13 -6 -5 -18
-9 -29 -9 -11 0 -17 -5 -14 -12 2 -7 10 -12 18 -12 37 4 72 14 85 25 11 9 14
9 14 -1 0 -10 3 -10 15 0 13 11 13 15 0 33 -8 12 -15 29 -15 39 0 10 -3 18 -8
18 -4 0 -7 -15 -7 -32z"/>
<path d="M1619 2441 c-3 -21 -4 -26 -12 -38 -4 -6 -3 -14 3 -18 6 -4 8 -11 5
-16 -4 -5 -1 -9 4 -9 6 0 11 -8 12 -17 0 -11 3 -13 6 -5 2 6 9 10 14 6 17 -10
9 19 -8 31 -15 11 -15 15 -4 29 10 11 10 16 2 16 -7 0 -10 4 -6 9 3 5 1 12 -5
16 -5 3 -11 1 -11 -4z"/>
<path d="M1745 2440 c-6 -9 0 -13 15 -12 3 0 7 -8 7 -19 2 -21 -22 -26 -30 -6
-3 6 -6 7 -6 1 -1 -5 6 -19 14 -30 8 -11 15 -14 15 -6 0 6 6 12 13 12 7 0 12
14 12 35 0 26 -4 35 -17 35 -9 0 -20 -4 -23 -10z"/>
<path d="M291 2418 c-1 -19 4 -28 14 -28 20 0 31 28 17 42 -8 8 -9 5 -5 -11 3
-11 1 -21 -5 -21 -6 0 -13 10 -15 23 -4 19 -4 18 -6 -5z"/>
<path d="M1412 2428 c3 -7 18 -14 34 -16 l29 -2 -25 14 c-31 19 -43 20 -38 4z"/>
<path d="M1918 2422 c-7 -11 -20 -21 -28 -25 -10 -3 -6 -6 10 -7 23 -1 24 -2
7 -14 -12 -10 -15 -16 -7 -21 14 -9 18 -5 23 25 3 14 8 33 12 43 9 22 0 22
-17 -1z"/>
<path d="M2070 2379 c-30 -28 -67 -53 -82 -56 -16 -3 -28 -11 -28 -18 0 -7
-12 -20 -26 -30 -33 -21 -27 -27 15 -15 l33 9 -4 -34 c-3 -29 -1 -34 22 -38
31 -6 42 2 12 10 -17 4 -22 13 -22 39 0 19 0 37 0 42 -1 4 8 8 20 10 11 2 18
7 15 12 -6 10 33 25 42 16 3 -3 0 -12 -7 -21 -7 -9 -11 -18 -8 -20 3 -3 19 13
37 35 17 22 29 40 25 40 -4 0 -13 -8 -20 -17 -7 -10 -15 -15 -19 -12 -6 7 18
35 35 41 6 2 13 16 14 31 2 15 3 27 2 27 0 -1 -26 -24 -56 -51z"/>
<path d="M990 2410 c0 -5 5 -10 11 -10 5 0 8 -4 4 -9 -11 -19 11 -18 30 1 20
20 20 20 -2 14 -14 -5 -23 -3 -23 3 0 6 -4 11 -10 11 -5 0 -10 -4 -10 -10z"/>
<path d="M558 2399 c6 -9 9 -19 5 -22 -3 -4 1 -7 10 -7 10 0 17 -3 18 -7 5
-57 17 -86 30 -77 8 4 9 3 5 -5 -4 -6 0 -14 8 -17 9 -3 13 -11 9 -17 -3 -6 -1
-7 5 -3 18 11 14 31 -9 52 -11 10 -26 32 -33 49 -7 16 -24 39 -37 50 -13 11
-18 13 -11 4z"/>
<path d="M2390 2371 c-19 -20 -57 -56 -85 -79 -27 -23 -44 -42 -38 -42 7 0 26
14 43 30 28 27 40 35 40 27 0 -9 -58 -66 -77 -76 -13 -6 -23 -18 -23 -25 0
-16 -27 -30 -53 -27 -9 1 -20 -6 -24 -16 -4 -10 -17 -26 -29 -35 -19 -16 -25
-51 -15 -100 2 -15 49 -8 55 8 9 25 7 72 -4 79 -17 11 -11 22 18 34 16 7 53
37 83 67 l54 55 5 -28 c4 -19 12 -29 27 -31 24 -4 38 25 28 58 -11 34 -24 22
-18 -16 5 -29 3 -36 -8 -32 -8 3 -14 11 -14 19 0 8 -4 20 -8 27 -5 6 -5 12 0
12 9 0 87 119 82 125 -2 2 -20 -13 -39 -34z m-219 -263 c0 -7 2 -23 3 -35 3
-28 -8 -48 -23 -39 -12 8 -15 68 -4 79 10 11 23 8 24 -5z"/>
<path d="M1824 2378 c-5 -7 -3 -8 6 -3 10 6 12 4 7 -8 -3 -9 0 -18 8 -21 21
-8 29 12 11 29 -18 18 -23 19 -32 3z"/>
<path d="M911 2365 c-1 -15 32 -51 51 -58 31 -11 29 10 -2 23 -17 7 -35 20
-40 29 -5 9 -9 12 -9 6z"/>
<path d="M1934 2362 c6 -10 -24 -34 -41 -31 -18 3 -33 -1 -33 -10 0 -4 20 -4
45 2 43 10 58 28 33 43 -7 4 -8 3 -4 -4z"/>
<path d="M202 2336 c-6 -14 -25 -32 -42 -41 -36 -19 -37 -21 -5 -27 21 -4 27
1 45 40 12 24 19 46 17 48 -2 2 -9 -7 -15 -20z"/>
<path d="M271 2343 c-1 -12 -4 -28 -7 -37 -3 -9 -1 -16 5 -16 6 0 11 9 11 21
0 11 4 18 9 14 5 -3 12 -1 16 5 3 5 0 10 -9 10 -8 0 -17 6 -19 13 -3 6 -6 2
-6 -10z"/>
<path d="M2238 2347 c-19 -15 -31 -47 -18 -47 6 0 10 4 10 9 0 5 7 17 16 26
20 20 14 30 -8 12z"/>
<path d="M2490 2348 c0 -11 -5 -15 -14 -12 -7 3 -16 -2 -20 -11 -4 -11 -2 -14
7 -8 6 4 20 6 30 5 19 -4 21 6 7 28 -8 13 -10 13 -10 -2z"/>
<path d="M1235 2308 c10 -31 11 -31 32 -19 10 6 12 11 6 11 -7 0 -12 5 -10 12
1 6 -6 14 -16 16 -16 3 -18 0 -12 -20z"/>
<path d="M1640 2319 c0 -3 5 -20 11 -38 8 -22 16 -30 26 -27 8 3 19 6 25 6 7
0 7 5 -1 13 -6 8 -10 16 -8 18 1 2 -4 -2 -10 -10 -7 -8 -13 -10 -13 -5 0 11
-29 53 -30 43z"/>
<path d="M223 2287 c-10 -21 -9 -26 4 -31 22 -9 24 -5 15 28 l-8 28 -11 -25z"/>
<path d="M295 2290 c-21 -14 -25 -20 -12 -20 13 0 17 -8 17 -35 0 -19 -4 -35
-10 -35 -5 0 -10 -3 -10 -7 0 -10 57 -9 67 0 3 4 -1 7 -10 7 -14 0 -17 10 -17
49 0 30 5 51 13 54 6 3 8 6 2 6 -5 1 -23 -8 -40 -19z"/>
<path d="M1330 2290 c-33 -33 -20 -110 18 -110 29 0 42 21 42 65 0 38 -13 65
-32 65 -4 0 -17 -9 -28 -20z m41 -30 c4 -46 -1 -70 -15 -70 -26 0 -35 55 -15
92 13 24 27 13 30 -22z"/>
<path d="M1132 2292 c-23 -2 -36 -10 -44 -27 -6 -14 -14 -22 -19 -20 -13 8
-61 -14 -54 -25 4 -6 3 -10 -2 -9 -20 4 -43 -2 -43 -10 0 -15 60 6 75 25 8 12
14 14 19 6 4 -7 12 -12 17 -12 6 0 8 4 5 9 -3 5 1 14 9 21 13 11 15 8 15 -17
0 -16 -7 -39 -16 -52 -16 -22 -16 -23 5 -12 12 7 19 17 15 23 -4 6 1 8 12 5
69 -19 69 -20 57 -7 -7 7 -10 25 -7 39 9 45 -6 66 -44 63z m26 -49 c-4 -52
-28 -56 -28 -4 0 30 4 41 16 41 11 0 14 -9 12 -37z"/>
<path d="M1541 2286 c-7 -8 -11 -32 -9 -53 2 -30 7 -39 25 -41 27 -4 47 30 38
66 -10 40 -34 52 -54 28z m37 -43 c-4 -44 -23 -55 -31 -17 -6 35 1 54 20 54
10 0 13 -10 11 -37z"/>
<path d="M2145 2285 c-11 -9 -14 -13 -6 -9 10 5 13 -2 9 -35 -3 -38 -2 -41 22
-41 15 0 20 3 13 8 -6 4 -13 27 -15 50 -3 42 -4 43 -23 27z"/>
<path d="M2563 2293 c-7 -2 -13 -9 -13 -14 0 -6 5 -7 10 -4 17 11 11 -57 -7
-70 -15 -11 -15 -13 3 -31 11 -10 33 -30 49 -42 l30 -24 -1 -124 c-1 -122 9
-160 22 -86 4 20 10 42 14 47 13 16 34 134 26 142 -4 4 -13 0 -20 -9 -12 -16
-14 -13 -26 23 -8 22 -29 53 -47 70 -19 16 -28 29 -21 29 9 0 12 14 10 50 -4
50 -6 53 -29 43z"/>
<path d="M2758 2275 c-8 -17 -8 -32 -1 -47 9 -20 4 -30 -29 -67 -21 -25 -37
-49 -35 -55 7 -20 23 -14 42 17 14 22 34 36 64 46 41 13 45 12 58 -5 15 -20
11 -80 -6 -97 -16 -16 -61 1 -61 24 0 12 -5 19 -12 16 -7 -2 -12 -10 -10 -16
1 -7 3 -23 4 -36 2 -23 7 -25 49 -25 57 0 70 14 77 80 4 42 1 52 -21 74 -20
20 -36 26 -67 26 l-41 0 3 38 c4 45 21 45 28 0 4 -25 7 -29 12 -15 10 23 -8
67 -27 67 -8 0 -21 -11 -27 -25z"/>
<path d="M61 2283 c11 -3 16 -15 15 -41 -1 -28 3 -37 18 -40 20 -4 36 13 36
38 0 26 -14 38 -50 43 -19 2 -28 2 -19 0z"/>
<path d="M904 2264 c-12 -49 36 -103 52 -59 4 8 15 15 25 15 10 0 19 5 19 11
0 6 -6 9 -14 6 -9 -4 -16 4 -20 24 -4 23 -11 29 -31 29 -18 0 -26 -7 -31 -26z
m46 -25 c0 -28 -4 -39 -12 -37 -12 4 -20 55 -11 71 11 19 23 3 23 -34z"/>
<path d="M1005 2273 c-20 -15 -19 -15 5 -9 14 3 31 6 38 6 6 0 12 5 12 10 0
15 -33 11 -55 -7z"/>
<path d="M1714 2256 c2 -47 16 -58 16 -13 0 20 -4 38 -9 41 -5 4 -8 -9 -7 -28z"/>
<path d="M502 2264 c-5 -9 -7 -25 -5 -35 3 -11 1 -19 -4 -19 -5 0 -10 -7 -10
-16 0 -14 2 -15 11 -2 6 8 19 17 29 21 13 5 17 15 15 34 -4 32 -23 41 -36 17z"/>
<path d="M672 2248 c3 -7 14 -17 26 -23 23 -10 30 -25 12 -25 -5 0 -10 -5 -10
-11 0 -6 9 -9 19 -6 11 3 29 -2 40 -10 12 -8 21 -10 21 -4 0 6 -5 11 -11 11
-5 0 -7 5 -4 10 3 6 2 10 -4 10 -5 0 -25 14 -43 30 -34 32 -52 38 -46 18z"/>
<path d="M760 2230 c13 -24 53 -46 103 -55 39 -8 49 3 23 24 -10 8 -15 8 -18
1 -3 -11 -82 22 -93 40 -12 19 -26 10 -15 -10z"/>
<path d="M18 2218 c-10 -12 -18 -27 -17 -33 0 -5 3 -4 6 3 4 10 8 10 19 1 8
-7 17 -9 21 -5 3 3 2 6 -4 6 -6 0 -8 11 -5 25 5 31 2 31 -20 3z"/>
<path d="M197 2233 c-11 -10 -8 -43 3 -43 18 0 60 32 54 41 -6 10 -48 12 -57
2z"/>
<path d="M1835 2210 c-4 -6 -11 -8 -16 -5 -15 10 -10 -5 9 -26 19 -19 19 -19
20 11 1 32 -3 37 -13 20z"/>
<path d="M2093 2205 c-18 -8 -33 -21 -33 -30 0 -15 2 -15 15 -1 8 8 24 18 35
21 11 3 20 11 20 16 0 11 2 11 -37 -6z"/>
<path d="M2301 2201 c-6 -10 -9 -20 -8 -22 1 -2 0 -3 -2 -2 -2 1 -12 -2 -22
-7 -22 -12 -21 -50 2 -50 12 0 16 -6 12 -19 -4 -16 -1 -19 16 -14 18 4 18 7 6
20 -8 8 -15 21 -15 29 0 8 -4 13 -9 9 -5 -3 -12 -1 -15 4 -3 4 2 8 12 8 27 0
62 14 62 25 0 5 -5 6 -12 2 -8 -5 -9 0 -6 14 7 27 -8 29 -21 3z"/>
<path d="M2485 2198 c-73 -42 -82 -149 -18 -212 40 -40 70 -32 105 28 33 55
34 91 3 91 -16 0 -21 -8 -23 -41 -2 -25 -11 -49 -21 -58 -17 -16 -20 -15 -50
9 -25 22 -31 34 -31 65 0 21 3 46 6 55 8 20 61 48 75 39 7 -4 7 1 0 15 -13 24
-18 25 -46 9z"/>
<path d="M246 2161 c-6 -16 -3 -28 8 -39 18 -18 20 -8 7 38 l-7 25 -8 -24z"/>
<path d="M520 2156 c5 -5 23 -11 40 -13 32 -3 64 -26 53 -37 -4 -3 5 -6 18 -5
13 0 18 3 11 6 -6 2 -10 9 -6 14 3 5 0 9 -6 9 -6 0 -8 4 -5 10 3 6 -1 7 -9 4
-9 -3 -16 -2 -16 4 0 5 -20 12 -45 14 -26 2 -40 -1 -35 -6z"/>
<path d="M1797 2156 c-3 -8 -2 -27 3 -43 4 -15 9 -22 9 -15 1 18 21 5 21 -14
0 -9 -5 -12 -11 -8 -8 5 -9 -9 -5 -47 3 -30 3 -48 0 -41 -8 16 -24 5 -24 -16
0 -10 -10 -22 -22 -27 -13 -6 -24 -20 -26 -33 -2 -16 -8 -22 -18 -18 -21 8
-61 -9 -45 -18 7 -5 18 -3 24 3 8 8 19 2 40 -22 l29 -32 19 24 c11 13 17 31
14 39 -3 8 6 39 20 68 26 56 27 75 4 162 -13 46 -24 60 -32 38z m-7 -272 c0
-12 -7 -24 -15 -27 -18 -8 -32 13 -15 23 8 5 10 18 6 36 -6 27 -5 28 9 10 8
-11 15 -30 15 -42z"/>
<path d="M25 2149 c-4 -6 -4 -13 -1 -16 3 -4 6 -1 6 5 0 18 31 14 46 -5 12
-16 13 -16 14 -2 0 26 -52 40 -65 18z"/>
<path d="M830 2146 c19 -8 50 -15 68 -15 17 -1 32 -5 32 -11 0 -5 -4 -10 -10
-10 -5 0 -10 -5 -10 -11 0 -5 5 -7 10 -4 14 8 13 -58 -1 -72 -7 -7 -2 -12 20
-15 30 -4 41 5 21 17 -17 10 -12 93 6 103 12 6 -1 11 -42 15 -33 4 -75 9 -94
12 l-35 5 35 -14z"/>
<path d="M1910 2145 c0 -9 -4 -13 -10 -10 -15 9 -11 -16 6 -45 l15 -25 -6 28
c-4 19 -2 26 5 22 5 -3 10 3 10 14 0 11 -4 23 -10 26 -5 3 -10 -1 -10 -10z"/>
<path d="M719 2135 c-15 -8 -30 -22 -33 -31 -9 -23 3 -81 20 -94 21 -18 52 -2
59 30 8 35 -2 90 -16 90 -6 0 -7 5 -4 10 8 13 6 12 -26 -5z m31 -69 c0 -37
-14 -61 -28 -52 -18 11 -25 72 -12 97 12 22 13 22 26 4 8 -10 14 -33 14 -49z"/>
<path d="M989 2124 c-12 -15 -10 -16 20 -9 28 6 33 5 28 -8 -3 -10 1 -17 14
-20 12 -3 19 0 19 9 0 8 -5 14 -11 14 -5 0 -8 4 -5 9 6 9 -16 21 -39 21 -7 0
-19 -7 -26 -16z"/>
<path d="M1070 2130 c0 -5 7 -10 15 -10 19 0 19 -11 0 -36 -19 -25 -19 -39 0
-22 8 7 21 19 29 26 14 11 13 15 -4 32 -22 22 -40 26 -40 10z"/>
<path d="M1861 2104 c14 -63 10 -117 -12 -159 l-21 -40 26 27 c14 15 26 33 26
40 0 10 2 10 8 1 4 -6 7 6 7 27 0 21 -3 33 -7 27 -5 -7 -8 0 -9 18 -1 55 -6
76 -17 87 -7 7 -8 0 -1 -28z"/>
<path d="M2965 2096 c-4 -19 -2 -43 4 -55 12 -22 31 -29 31 -11 0 6 -4 10 -10
10 -14 0 -12 64 2 78 9 9 8 12 -5 12 -10 0 -18 -12 -22 -34z"/>
<path d="M88 2106 c-15 -11 -15 -13 0 -23 14 -8 15 -13 4 -26 -9 -11 -10 -17
-2 -22 17 -11 22 -1 18 43 -3 36 -5 39 -20 28z"/>
<path d="M1140 2061 c0 -56 1 -59 22 -53 12 3 17 7 10 10 -7 2 -12 23 -12 53
0 27 -4 49 -10 49 -6 0 -10 -26 -10 -59z"/>
<path d="M1536 2104 c-3 -9 -6 -31 -6 -50 0 -36 -8 -42 -28 -22 -9 9 -12 7
-12 -9 0 -12 18 -40 40 -63 28 -29 40 -50 39 -68 -2 -24 -2 -24 -6 -4 -2 12
-17 29 -32 37 -15 7 -34 27 -42 42 l-14 29 -20 -41 -20 -40 27 -1 c15 -1 25 3
22 7 -8 14 10 10 34 -7 12 -8 22 -22 22 -30 0 -8 11 -19 24 -25 14 -7 22 -17
19 -24 -2 -7 5 -16 16 -20 27 -8 63 3 55 17 -5 8 8 9 40 6 62 -7 46 8 -17 17
-46 6 -48 5 -42 -14 7 -22 2 -24 -29 -12 -17 6 -17 9 -3 23 17 17 13 30 -7 22
-6 -2 -12 4 -13 15 -2 26 26 35 47 16 15 -14 18 -14 30 0 7 9 20 13 28 10 19
-7 38 5 21 15 -6 5 -22 4 -34 -2 -17 -8 -29 -6 -49 7 -14 9 -33 15 -41 11 -9
-3 -14 -2 -10 3 3 5 1 11 -4 13 -5 1 -13 15 -16 31 -6 21 -4 27 9 27 25 0 42
45 28 75 -13 28 -47 34 -56 9z m39 -34 c0 -18 -6 -35 -12 -37 -9 -3 -13 8 -13
37 0 29 4 40 13 38 6 -3 12 -20 12 -38z"/>
<path d="M1962 2108 c-16 -16 -15 -70 1 -87 7 -8 7 -11 1 -8 -7 4 -17 0 -24
-8 -7 -8 -16 -13 -19 -10 -4 2 -8 -2 -8 -9 0 -9 16 -4 49 16 41 26 48 34 48
62 0 29 -14 56 -30 56 -3 0 -11 -5 -18 -12z m30 -53 c-2 -14 -8 -25 -12 -25
-9 0 -18 51 -12 70 8 23 30 -17 24 -45z"/>
<path d="M1334 2098 c-4 -7 -3 -8 4 -4 8 5 12 -4 12 -28 0 -19 -6 -37 -12 -39
-7 -3 0 -6 17 -6 22 -1 26 2 17 11 -7 7 -12 27 -12 45 0 33 -12 43 -26 21z"/>
<path d="M2359 2108 c-7 -27 -1 -68 9 -68 13 0 14 58 0 66 -4 3 -8 4 -9 2z"/>
<path d="M297 2093 c-10 -10 -8 -41 3 -48 5 -3 18 0 28 6 18 11 18 14 3 31
-17 19 -24 22 -34 11z"/>
<path d="M510 2076 c0 -20 -4 -23 -22 -19 -19 4 -20 3 -8 -6 28 -20 47 -13 48
19 0 17 -4 30 -9 30 -5 0 -9 -11 -9 -24z"/>
<path d="M1760 2085 c-14 -17 -5 -48 13 -43 6 3 13 13 14 24 3 18 2 18 -7 -1
-9 -18 -10 -17 -7 8 5 31 4 32 -13 12z"/>
<path d="M2042 2083 c-9 -16 -9 -24 -1 -29 16 -10 28 8 19 31 -7 19 -7 19 -18
-2z"/>
<path d="M1113 2050 c-4 -16 -11 -19 -27 -14 -20 6 -20 6 3 -13 20 -16 23 -28
25 -92 1 -59 5 -76 19 -85 44 -27 61 93 20 134 -14 13 -14 13 -6 -5 13 -26 11
-116 -2 -112 -5 1 -10 20 -11 42 0 22 -4 48 -8 57 -5 10 -6 38 -4 63 3 48 0
58 -9 25z"/>
<path d="M1444 2036 c-12 -19 -27 -50 -34 -70 -13 -41 -13 -41 -40 -24 -32 21
-55 -1 -51 -47 1 -21 6 -46 10 -57 6 -17 9 -16 41 10 22 19 30 31 22 36 -8 4
0 21 22 51 19 24 37 58 41 76 4 19 15 33 27 37 15 4 17 7 6 13 -19 13 -21 11
-44 -25z m-72 -131 c4 -18 0 -29 -13 -35 -20 -11 -32 0 -24 24 3 9 7 23 10 32
7 21 22 10 27 -21z"/>
<path d="M580 2017 c0 -14 39 -41 48 -33 5 6 -32 46 -43 46 -3 0 -5 -6 -5 -13z"/>
<path d="M2044 2015 c-4 -8 -10 -13 -14 -10 -5 3 -11 2 -14 -3 -7 -12 45 -13
61 -1 7 7 16 9 19 6 3 -3 -8 -12 -24 -21 -16 -8 -32 -22 -36 -31 -4 -12 -2
-13 12 -5 23 13 44 32 59 50 10 13 8 16 -13 18 -13 1 -24 -3 -24 -9 0 -5 -5
-7 -10 -4 -6 4 -8 11 -5 16 4 5 4 9 0 9 -3 0 -8 -7 -11 -15z"/>
<path d="M1060 1991 c0 -19 23 -35 34 -24 11 11 6 22 -14 33 -17 9 -20 8 -20
-9z"/>
<path d="M1936 1959 c-14 -11 -30 -17 -36 -14 -5 3 -10 1 -10 -4 0 -19 28 -12
57 14 34 30 26 33 -11 4z"/>
<path d="M1960 1940 c-11 -11 -20 -33 -20 -49 0 -28 22 -61 40 -61 16 0 40 32
40 53 -1 64 -28 89 -60 57z m35 -46 c0 -28 -4 -39 -15 -39 -16 0 -26 45 -16
72 11 28 31 7 31 -33z"/>
<path d="M2340 1941 c-26 -49 2 -111 41 -91 14 8 19 21 19 48 0 57 -38 84 -60
43z m40 -42 c0 -28 -4 -39 -15 -39 -11 0 -15 11 -15 38 0 21 3 42 6 45 14 13
24 -6 24 -44z"/>
<path d="M2762 1948 c-13 -13 -16 -67 -4 -84 12 -17 40 -24 50 -11 17 21 18
87 2 97 -20 13 -34 12 -48 -2z m36 -56 c-4 -39 -34 -36 -31 3 1 16 5 36 8 45
10 23 27 -13 23 -48z"/>
<path d="M2984 1952 c3 -5 0 -13 -6 -16 -10 -5 -10 -7 0 -12 6 -3 12 -15 12
-27 0 -18 -2 -19 -10 -7 -8 12 -10 11 -10 -7 0 -14 6 -23 15 -23 18 0 21 85 3
96 -6 4 -8 3 -4 -4z"/>
<path d="M106 1942 c-10 -2 -24 -8 -30 -13 -6 -5 -23 -18 -37 -29 -31 -23 -43
-56 -23 -64 8 -3 14 1 14 8 0 7 9 23 20 36 20 23 20 23 20 2 0 -12 9 -26 20
-32 15 -8 21 -6 30 9 5 11 10 29 10 40 0 19 1 19 29 3 16 -9 27 -21 24 -28 -2
-6 3 -18 11 -27 9 -9 16 -23 16 -32 0 -9 5 -13 10 -10 16 10 11 53 -8 72 -11
10 -22 26 -25 36 -4 9 -15 17 -25 17 -10 0 -22 4 -27 8 -6 5 -19 7 -29 4z m10
-38 c-3 -9 -6 -22 -6 -30 0 -21 -17 -17 -23 5 -5 19 9 41 26 41 5 0 6 -7 3
-16z"/>
<path d="M300 1940 c-8 -5 -18 -6 -24 -3 -5 3 -6 1 -2 -6 4 -6 12 -9 17 -6 5
4 9 -1 9 -10 0 -9 -4 -14 -9 -10 -5 3 -12 1 -15 -4 -3 -5 4 -11 15 -14 17 -5
19 -9 10 -25 -9 -17 -7 -20 21 -24 25 -4 28 -3 16 6 -10 7 -16 28 -16 55 -1
50 -3 53 -22 41z"/>
<path d="M506 1937 c-26 -19 -19 -81 11 -85 26 -4 38 25 28 68 -7 33 -13 36
-39 17z m24 -43 c0 -24 -4 -34 -12 -32 -24 8 -22 68 2 68 5 0 10 -16 10 -36z"/>
<path d="M856 1934 c-4 -9 -13 -14 -21 -10 -9 3 -15 0 -15 -9 0 -8 7 -15 15
-15 8 0 15 5 15 10 0 6 7 10 15 10 16 0 20 16 6 24 -5 3 -12 -1 -15 -10z"/>
<path d="M910 1931 c-16 -30 -12 -59 11 -82 20 -20 21 -20 34 -2 8 10 15 32
15 49 0 50 -39 73 -60 35z m38 -45 c-2 -15 -7 -28 -13 -29 -12 -2 -19 38 -10
60 9 25 27 1 23 -31z"/>
<path d="M2135 1940 c-3 -5 -1 -10 4 -10 6 0 11 -16 11 -36 0 -36 0 -36 -25
-20 -32 21 -35 20 -35 -6 0 -18 2 -20 10 -8 8 12 11 12 27 -1 12 -11 26 -14
43 -8 14 4 19 7 12 8 -7 1 -12 9 -11 19 4 44 -2 72 -15 72 -8 0 -18 -4 -21
-10z"/>
<path d="M2560 1940 c-10 -6 -11 -10 -2 -10 7 0 12 -14 12 -34 0 -19 -6 -37
-12 -39 -7 -3 -1 -6 15 -6 17 -1 27 -6 27 -16 0 -8 5 -15 10 -15 15 0 12 16
-5 30 -9 8 -15 30 -15 56 0 45 -4 51 -30 34z"/>
<path d="M704 1918 c-18 -22 -18 -22 0 -8 18 14 19 13 14 -23 -3 -29 -1 -37
12 -37 12 0 14 9 12 45 -4 51 -11 55 -38 23z"/>
<path d="M1207 1933 c-14 -4 -16 -8 -6 -19 13 -16 33 -19 24 -4 -3 6 -1 10 4
10 6 0 11 -7 11 -15 0 -10 10 -15 31 -15 33 0 37 21 5 26 -10 1 -23 7 -29 13
-6 6 -13 10 -16 10 -4 -1 -14 -3 -24 -6z"/>
<path d="M2265 1926 c-10 -36 -12 -55 -4 -50 5 3 9 0 9 -5 0 -6 5 -11 10 -11
7 0 7 6 0 19 -14 27 -13 41 5 41 8 0 15 4 15 8 0 13 -31 10 -35 -2z"/>
<path d="M820 1875 c-7 -8 -9 -15 -4 -15 5 -1 -2 -9 -14 -20 -13 -11 -22 -24
-20 -30 1 -5 17 3 34 20 18 16 35 26 39 22 4 -4 6 2 4 12 -5 25 -23 31 -39 11z"/>
<path d="M2920 1881 c0 -6 -10 -11 -22 -12 -22 0 -22 -1 -3 -8 11 -5 23 -7 26
-5 4 2 9 -7 11 -21 3 -13 1 -22 -3 -19 -5 3 -9 -4 -9 -15 0 -26 17 -27 25 -2
3 11 14 22 23 24 16 4 16 5 0 6 -10 0 -19 7 -19 14 -1 6 -2 18 -3 26 -1 17
-26 28 -26 12z"/>
<path d="M1212 1871 c9 -6 15 -20 13 -31 -5 -28 9 -33 30 -10 10 11 21 17 26
15 4 -3 10 -1 13 4 3 5 -10 12 -30 15 -19 4 -43 9 -52 12 -16 5 -16 5 0 -5z"/>
<path d="M1809 1853 c-9 -57 -8 -64 7 -52 11 9 12 14 3 19 -8 6 -8 9 0 14 6 4
11 11 11 17 0 11 -19 12 -21 2z"/>
<path d="M2893 1837 c3 -10 2 -17 -3 -17 -5 0 -7 -6 -4 -14 3 -7 -2 -16 -12
-20 -13 -5 -14 -9 -4 -21 7 -8 18 -15 24 -15 6 0 4 4 -4 10 -12 8 -12 11 3 28
20 22 22 48 5 58 -8 5 -9 2 -5 -9z"/>
<path d="M435 1814 c-11 -14 -30 -29 -42 -34 -13 -5 -23 -14 -23 -20 0 -12 8
-8 68 35 42 30 52 45 30 45 -7 -1 -22 -12 -33 -26z"/>
<path d="M1877 1817 c-5 -14 18 -39 28 -29 4 4 6 -6 5 -23 -3 -46 -1 -55 12
-55 9 0 9 3 0 12 -8 8 -8 15 -1 24 7 8 4 23 -8 48 -18 38 -28 44 -36 23z"/>
<path d="M2023 1801 c-6 -17 -7 -35 -2 -42 7 -11 9 -9 9 7 0 11 4 24 10 30 5
5 6 15 2 21 -5 8 -11 3 -19 -16z"/>
<path d="M2682 1818 c2 -5 7 -9 12 -8 5 1 13 -4 17 -12 7 -10 9 -10 9 0 0 7 5
10 10 7 6 -3 10 1 10 9 0 10 -10 14 -30 14 -17 -1 -29 -5 -28 -10z"/>
<path d="M0 1784 c0 -21 4 -33 10 -29 13 8 13 65 0 65 -5 0 -10 -16 -10 -36z"/>
<path d="M2970 1753 c0 -60 12 -95 24 -74 4 6 4 17 -1 24 -11 17 -11 87 0 80
5 -3 8 0 5 7 -2 8 -10 16 -16 18 -8 2 -12 -14 -12 -55z"/>
<path d="M203 1773 c-11 -11 -26 -34 -34 -51 -17 -39 -29 -41 -29 -6 0 14 -5
34 -10 45 -14 25 -50 25 -57 -1 -6 -22 -33 -28 -33 -7 -1 28 -21 -25 -22 -58
-1 -20 -5 -38 -10 -41 -4 -3 -8 -24 -8 -46 0 -29 6 -46 21 -59 11 -10 18 -23
14 -28 -3 -6 -1 -11 4 -11 6 0 11 4 11 10 0 5 7 7 15 4 8 -4 15 -1 15 5 0 10
-14 15 -32 12 -5 0 -8 6 -8 14 0 9 -7 18 -15 21 -19 8 -19 53 0 77 7 11 11 25
9 32 -4 10 1 12 15 8 24 -6 28 -31 6 -39 -8 -4 -15 -17 -15 -31 0 -22 2 -24
15 -13 8 7 15 21 15 31 0 12 7 17 20 16 11 -1 19 -6 16 -12 -2 -6 5 -12 17
-12 15 -2 17 1 8 10 -16 16 -14 21 22 40 17 10 43 33 55 52 29 42 25 68 -5 38z
m-85 -56 c3 -40 0 -47 -16 -47 -16 0 -18 7 -17 48 3 57 2 55 18 50 6 -3 13
-25 15 -51z"/>
<path d="M410 1744 c-30 -25 -56 -47 -57 -48 -2 -2 3 -3 10 -3 6 0 29 -4 50
-8 31 -6 37 -4 37 10 0 11 -7 16 -22 13 -13 -1 -24 1 -26 5 -3 10 52 57 67 57
6 0 11 5 11 10 0 18 -14 11 -70 -36z"/>
<path d="M795 1780 c-3 -6 -11 -8 -16 -5 -12 8 -11 -26 2 -45 8 -12 9 -10 4 8
-6 22 1 27 34 23 15 -3 10 21 -6 26 -6 2 -14 -1 -18 -7z"/>
<path d="M2342 1778 c-18 -18 -15 -93 4 -109 35 -29 76 40 55 94 -11 29 -38
36 -59 15z m44 -62 c-10 -53 -36 -48 -36 7 0 51 8 63 28 43 10 -10 13 -25 8
-50z"/>
<path d="M1544 1765 c-17 -13 -18 -14 -1 -15 13 0 17 -8 17 -35 0 -25 -5 -38
-17 -42 -10 -4 -21 -10 -24 -15 -3 -5 -30 -9 -60 -10 -44 -1 -50 -2 -30 -10
16 -5 42 -5 70 2 110 27 107 25 88 33 -15 6 -17 14 -12 51 8 49 -3 63 -31 41z"/>
<path d="M1802 1755 c0 -16 3 -39 8 -50 8 -18 9 -18 8 5 0 14 -4 36 -8 50 -8
24 -8 24 -8 -5z"/>
<path d="M1836 1733 c2 -24 8 -51 14 -60 5 -10 26 -54 45 -98 23 -50 33 -67
29 -45 -4 19 -12 44 -19 55 -7 11 -21 47 -31 80 -10 33 -21 62 -25 65 -4 3 -9
14 -12 25 -2 11 -3 1 -1 -22z"/>
<path d="M1964 1765 c-17 -13 -17 -14 -1 -15 19 0 20 -1 8 -52 -8 -33 -7 -38
9 -38 15 0 17 8 14 56 -2 31 -5 58 -7 60 -2 2 -12 -3 -23 -11z"/>
<path d="M734 1732 c1 -23 -3 -41 -9 -41 -5 0 -9 15 -9 34 1 29 -1 33 -12 24
-19 -16 -17 -33 5 -60 13 -16 23 -21 30 -14 18 18 22 59 8 79 -13 17 -14 15
-13 -22z"/>
<path d="M1119 1746 c-16 -33 2 -79 29 -74 13 3 17 13 17 48 0 54 -27 69 -46
26z m39 -30 c-2 -15 -7 -28 -13 -29 -12 -2 -19 38 -10 60 9 25 27 1 23 -31z"/>
<path d="M1333 1763 c-7 -2 -13 -9 -13 -14 0 -4 7 -6 15 -3 12 5 15 -2 15 -29
0 -19 -6 -38 -12 -40 -7 -3 0 -6 16 -6 21 -1 26 2 18 12 -5 6 -9 27 -9 46 2
34 -7 44 -30 34z"/>
<path d="M1723 1758 c-2 -5 -1 -8 4 -7 25 4 43 -3 43 -17 0 -14 -2 -15 -17 -3
-14 11 -14 9 1 -9 15 -17 17 -25 8 -34 -18 -18 -14 -28 12 -28 17 0 28 -9 40
-35 9 -19 20 -35 24 -35 12 0 42 -56 42 -77 0 -10 9 -36 21 -57 11 -22 22 -51
24 -65 2 -14 9 -37 15 -51 9 -21 10 -17 5 24 -5 47 -36 137 -69 201 -9 17 -16
36 -16 43 0 6 -5 12 -11 12 -5 0 -7 -4 -4 -10 3 -5 1 -10 -4 -10 -6 0 -11 9
-11 21 0 13 4 18 13 14 6 -4 3 1 -7 9 -11 9 -24 16 -29 16 -4 0 -5 5 -2 10 4
6 1 9 -7 8 -9 -2 -14 11 -16 44 -3 44 -5 48 -28 46 -14 -2 -28 -6 -31 -10z"/>
<path d="M2137 1763 c-15 -14 -7 -71 10 -77 19 -8 43 17 43 44 0 29 -36 51
-53 33z m33 -32 c0 -17 -4 -33 -10 -36 -6 -4 -10 8 -10 29 0 20 5 36 10 36 6
0 10 -13 10 -29z"/>
<path d="M2560 1755 c-18 -22 -8 -60 15 -60 15 0 21 8 23 31 3 35 -19 52 -38
29z"/>
<path d="M2758 1748 c0 -13 0 -33 1 -45 1 -13 -4 -23 -10 -23 -7 0 -10 -2 -8
-5 3 -2 19 -1 37 4 22 7 32 6 35 -2 3 -7 3 7 2 30 -4 52 -11 63 -36 63 -13 0
-20 -7 -21 -22z m37 -21 c0 -39 -19 -38 -23 2 -3 24 0 32 10 29 7 -3 13 -17
13 -31z"/>
<path d="M284 1754 c-7 -3 -10 -13 -7 -24 4 -14 1 -18 -14 -14 -10 2 -25 0
-33 -6 -13 -9 -13 -11 0 -19 8 -6 21 -6 29 -1 9 5 24 2 38 -7 21 -14 23 -14
33 13 8 19 8 35 1 49 -9 18 -10 16 -10 -12 -1 -34 -16 -52 -24 -29 -3 8 -3 24
0 35 6 22 5 22 -13 15z"/>
<path d="M508 1745 c-7 -7 3 -55 11 -55 4 0 8 14 9 30 2 27 -7 38 -20 25z"/>
<path d="M923 1723 c2 -34 20 -49 28 -25 6 17 -9 52 -23 52 -4 0 -6 -12 -5
-27z"/>
<path d="M2091 1689 c-7 -16 -10 -33 -7 -36 3 -4 6 2 6 13 0 15 2 16 9 4 6 -8
7 -18 5 -22 -3 -4 0 -8 6 -8 6 0 8 -5 4 -12 -4 -7 -3 -8 4 -4 7 4 12 0 13 -11
0 -16 1 -16 8 2 5 11 4 22 0 23 -5 2 -6 9 -3 14 4 6 2 8 -3 5 -13 -8 -27 20
-24 46 3 25 -2 21 -18 -14z"/>
<path d="M163 1664 c-9 -4 -9 -13 -2 -31 7 -19 5 -31 -10 -52 l-19 -27 26 -1
c24 -2 25 -1 7 8 -16 7 -14 9 13 6 21 -2 32 1 32 9 0 8 -6 11 -14 8 -10 -4
-14 1 -13 15 1 18 8 21 45 21 26 0 41 -4 37 -10 -9 -15 4 -12 20 4 21 21 7 27
-47 20 -44 -6 -48 -5 -48 15 0 21 -5 24 -27 15z"/>
<path d="M2497 1653 c-4 -3 -7 -18 -7 -32 l1 -26 14 25 c8 14 14 28 15 33 0 9
-14 9 -23 0z"/>
<path d="M435 1625 c-25 -21 -28 -26 -15 -35 8 -5 20 -10 25 -10 6 1 2 5 -8
11 -18 10 -18 11 0 25 10 7 26 14 36 14 10 0 15 5 12 10 -9 15 -17 12 -50 -15z"/>
<path d="M1670 1630 c-13 -9 -12 -10 4 -8 10 2 21 -3 24 -11 3 -8 0 -11 -7 -7
-6 4 -11 5 -11 2 0 -3 9 -10 20 -16 25 -13 26 1 3 29 -14 16 -22 18 -33 11z"/>
<path d="M2180 1613 c0 -18 25 -16 40 2 11 13 8 15 -14 13 -14 -1 -26 -8 -26
-15z"/>
<path d="M1399 1610 c-9 -5 -33 -12 -54 -14 -21 -3 -43 -10 -49 -17 -8 -9 -6
-9 12 0 14 8 22 8 22 1 0 -5 -5 -10 -11 -10 -5 0 -7 -5 -4 -11 4 -6 1 -10 -6
-8 -51 6 -64 -2 -91 -54 -31 -57 -40 -139 -13 -103 10 13 12 23 5 30 -15 15
-12 30 4 17 10 -8 16 -9 21 -1 3 5 1 10 -6 10 -8 0 -5 7 6 20 10 11 21 17 25
15 5 -3 6 3 3 14 -5 21 0 25 38 35 21 5 28 2 32 -14 6 -22 35 -27 42 -7 2 6 6
28 8 47 3 31 7 35 33 35 16 0 39 -8 50 -18 15 -12 24 -15 29 -8 9 16 -5 33
-21 27 -8 -3 -14 -1 -14 4 0 13 36 13 60 0 14 -8 17 -18 13 -49 -3 -23 -1 -41
6 -45 17 -11 13 -26 -6 -26 -16 -1 -16 -2 1 -15 23 -17 40 -20 31 -4 -4 5 0
18 8 27 8 9 20 33 25 52 6 19 11 28 11 19 1 -9 12 -24 26 -33 18 -12 24 -23
20 -35 -3 -10 1 -24 10 -31 8 -7 15 -21 15 -31 0 -11 4 -19 9 -19 5 0 12 -16
15 -35 9 -44 33 -47 30 -4 -1 18 -8 35 -14 39 -8 5 -9 10 -2 14 12 7 6 30 -15
61 -12 18 -13 16 -8 -19 4 -35 3 -37 -9 -20 -8 11 -12 31 -9 45 4 21 -3 34
-33 63 -21 20 -49 39 -63 43 -14 3 -30 9 -36 13 -15 11 -128 11 -146 0z m179
-62 c-4 -46 -28 -49 -28 -4 0 26 4 36 16 36 11 0 14 -8 12 -32z m-212 -5 c-1
-38 -26 -42 -26 -4 0 19 5 31 14 31 8 0 13 -10 12 -27z"/>
<path d="M63 1598 c-7 -12 6 -28 23 -28 12 0 14 -7 9 -32 -4 -18 -11 -34 -16
-36 -19 -7 -8 -17 21 -18 17 -1 30 2 30 7 0 5 -4 9 -8 9 -13 0 -7 77 7 94 12
14 10 16 -24 14 -20 -2 -39 -6 -42 -10z"/>
<path d="M702 1598 c-18 -18 -15 -93 4 -109 35 -29 72 35 52 92 -10 30 -35 38
-56 17z m43 -52 c-2 -17 -4 -34 -4 -38 -1 -5 -8 -8 -16 -8 -18 0 -23 48 -9 89
9 27 34 -9 29 -43z"/>
<path d="M1223 1588 c2 -16 0 -28 -6 -28 -6 0 -7 -3 -4 -7 4 -3 17 3 30 14 12
11 32 24 45 28 13 4 22 9 19 11 -2 2 -18 -1 -36 -7 -27 -9 -35 -9 -43 2 -7 10
-8 6 -5 -13z"/>
<path d="M2760 1594 c0 -7 5 -14 12 -16 8 -3 7 -16 -5 -46 -13 -33 -16 -59
-11 -113 4 -38 11 -72 17 -76 5 -3 7 3 3 15 -5 13 -1 22 10 26 13 5 15 2 10
-19 -5 -18 -3 -23 7 -20 17 7 14 50 -5 72 -25 28 -27 83 -3 83 9 0 12 6 9 15
-4 9 4 26 19 41 30 30 67 25 92 -12 8 -13 20 -24 25 -24 18 0 10 39 -10 50
-11 6 -20 17 -20 25 0 9 -10 15 -26 15 -31 0 -67 -18 -59 -30 3 -5 -4 -8 -15
-7 -11 1 -20 8 -20 17 0 9 -7 17 -15 17 -8 0 -15 -6 -15 -13z"/>
<path d="M2975 1590 c-3 -5 -1 -10 4 -10 15 0 14 -53 -1 -68 -9 -9 -8 -12 5
-12 14 0 17 10 17 50 0 47 -11 63 -25 40z"/>
<path d="M293 1569 c4 -13 7 -30 7 -36 0 -17 62 -17 78 -1 14 14 16 58 3 58
-5 0 -7 -9 -4 -20 4 -16 2 -19 -11 -14 -9 3 -23 1 -30 -5 -12 -10 -15 -8 -18
10 -2 12 -9 25 -17 27 -10 4 -12 -1 -8 -19z"/>
<path d="M930 1555 c0 -24 -6 -42 -17 -50 -13 -10 -11 -11 15 -7 18 2 29 9 26
14 -4 6 -8 24 -9 40 -4 44 -15 47 -15 3z"/>
<path d="M1952 1577 c-14 -16 -5 -53 20 -87 10 -14 20 -36 23 -49 2 -14 9 -29
15 -35 5 -5 10 -23 10 -38 0 -15 5 -28 10 -28 12 0 10 62 -2 71 -5 3 -10 14
-12 25 -2 11 -14 37 -25 57 -22 39 -28 87 -11 87 6 0 10 -15 10 -34 0 -39 15
-57 18 -23 5 57 -27 89 -56 54z"/>
<path d="M2135 1580 c-3 -5 -1 -10 6 -10 7 0 9 -10 6 -30 -5 -22 -3 -30 8 -30
11 0 15 11 15 40 0 28 -4 40 -14 40 -8 0 -18 -4 -21 -10z"/>
<path d="M2344 1578 c-5 -7 -3 -8 6 -3 9 6 11 -1 8 -29 -2 -20 -3 -36 -2 -36
21 0 29 15 26 45 -4 35 -24 47 -38 23z"/>
<path d="M2571 1585 c-9 -33 -4 -62 12 -74 23 -17 33 -8 13 11 -8 8 -16 28
-19 44 -2 16 -5 25 -6 19z"/>
<path d="M502 1548 c2 -21 8 -33 18 -33 10 0 16 12 18 33 3 27 0 32 -18 32
-18 0 -21 -5 -18 -32z"/>
<path d="M857 1565 c-4 -8 2 -16 14 -20 10 -4 19 -11 19 -16 0 -6 -5 -7 -12
-3 -7 4 -8 3 -4 -5 6 -9 11 -9 22 0 16 13 10 29 -12 29 -8 0 -13 4 -9 9 3 5 1
12 -4 15 -5 3 -11 -1 -14 -9z"/>
<path d="M1140 1580 c-1 -3 -2 -20 -3 -38 -2 -25 2 -32 17 -32 15 0 16 -3 7
-14 -7 -8 -10 -26 -7 -40 3 -14 1 -26 -4 -26 -33 0 -51 -63 -28 -99 7 -11 8
-26 3 -37 -12 -28 -15 -94 -4 -94 5 0 9 14 9 31 0 21 4 28 13 23 7 -5 6 0 -3
11 -8 10 -10 16 -4 12 8 -4 13 4 16 23 3 18 0 31 -9 34 -15 6 -18 76 -3 76 6
0 10 -9 10 -20 0 -11 4 -20 9 -20 10 0 11 -8 12 -65 1 -89 12 -195 19 -195 5
0 6 12 4 28 -10 64 -10 101 0 95 6 -3 6 0 -1 7 -8 8 -9 20 -3 36 10 25 4 54
-14 66 -7 5 -6 8 3 8 10 0 11 4 3 13 -21 25 -19 80 4 126 13 24 21 48 18 53
-9 14 -24 -1 -17 -17 6 -17 -5 -19 -26 -6 -7 5 -11 13 -9 17 3 5 2 18 -3 29
-4 11 -8 18 -9 15z"/>
<path d="M1761 1571 c-18 -11 -10 -45 12 -49 12 -3 17 3 17 22 0 29 -10 38
-29 27z"/>
<path d="M2881 1499 c-20 -17 -21 -19 -5 -19 28 0 51 17 39 29 -7 6 -18 3 -34
-10z"/>
<path d="M277 1483 c-10 -13 -15 -28 -11 -35 5 -7 12 -5 21 8 14 18 15 18 35
-6 16 -18 19 -20 14 -6 -3 10 -2 24 3 30 7 8 2 15 -17 22 -24 9 -30 7 -45 -13z"/>
<path d="M486 1474 c-4 -10 -14 -14 -26 -11 -11 3 -20 1 -20 -4 0 -5 5 -9 11
-9 5 0 7 -5 3 -11 -3 -6 5 -3 20 6 14 10 26 24 26 31 0 19 -6 18 -14 -2z"/>
<path d="M1402 1457 c-36 -38 -41 -53 -12 -37 11 6 20 17 20 24 0 8 10 21 23
29 12 9 17 16 11 16 -5 1 -24 -14 -42 -32z"/>
<path d="M870 1456 c0 -7 10 -16 23 -20 35 -9 38 -7 27 14 -12 23 -50 27 -50
6z"/>
<path d="M635 1444 c19 -14 12 -34 -11 -34 -8 0 -12 -4 -9 -10 10 -15 45 12
45 35 0 14 -7 21 -21 21 -18 0 -19 -1 -4 -12z"/>
<path d="M1763 1425 c-6 -14 -7 -25 -2 -25 13 0 8 -63 -6 -72 -5 -4 3 -8 19
-8 21 0 26 3 19 13 -5 6 -10 26 -11 42 -2 23 -1 27 7 15 6 -8 11 -10 11 -4 0
5 -4 14 -9 20 -5 5 -11 17 -13 26 -2 14 -5 13 -15 -7z"/>
<path d="M2132 1415 c-17 -21 -18 -30 -9 -55 22 -58 67 -45 67 19 0 34 -14 61
-31 61 -4 0 -16 -11 -27 -25z m41 -22 c6 -33 -1 -53 -19 -53 -9 0 -14 12 -14
33 0 52 24 66 33 20z"/>
<path d="M2346 1424 c-34 -34 -7 -121 31 -98 32 20 26 114 -8 114 -4 0 -15 -7
-23 -16z m36 -21 c6 -24 -5 -64 -17 -64 -12 0 -19 46 -11 67 7 19 23 18 28 -3z"/>
<path d="M2991 1435 c-2 -5 -2 -29 -1 -52 1 -41 -5 -49 -33 -44 -22 4 -53 10
-57 11 -25 10 -72 -18 -91 -52 -15 -28 7 -22 35 9 l25 27 11 -25 10 -24 -5 27
c-3 15 -1 30 5 33 6 3 10 -4 11 -17 0 -13 3 -17 6 -10 2 6 14 12 24 12 11 0
18 -4 15 -9 -10 -15 19 -20 37 -6 15 10 17 24 14 71 -2 33 -4 55 -6 49z"/>
<path d="M2557 1423 c-24 -43 -7 -100 25 -88 21 8 29 41 18 71 -9 23 -34 32
-43 17z m28 -46 c0 -39 -19 -38 -23 2 -3 24 0 32 10 29 7 -3 13 -17 13 -31z"/>
<path d="M2643 1415 c0 -19 25 -27 45 -15 14 8 14 10 2 11 -8 1 -18 1 -22 0
-5 0 -8 4 -8 9 0 6 -4 10 -8 10 -5 0 -9 -7 -9 -15z"/>
<path d="M286 1408 c-14 -46 -13 -61 6 -80 18 -18 21 -18 37 -4 21 20 15 87
-9 94 -12 4 -13 2 -2 -9 14 -16 16 -48 2 -69 -14 -22 -28 3 -26 46 1 35 -2 43
-8 22z"/>
<path d="M502 1408 c-17 -17 -15 -63 4 -79 14 -11 18 -10 30 6 8 10 14 28 14
40 0 20 -17 45 -30 45 -3 0 -11 -5 -18 -12z m28 -39 c0 -20 -4 -29 -12 -26
-11 3 -14 25 -9 60 3 21 21 -8 21 -34z"/>
<path d="M710 1410 c-12 -8 -12 -10 -1 -10 10 0 12 -10 9 -37 -5 -35 -3 -38
19 -40 18 -1 22 2 14 10 -6 6 -11 28 -11 49 0 40 -5 44 -30 28z"/>
<path d="M935 1406 c-14 -15 -13 -66 1 -66 7 0 9 10 6 26 -3 15 1 29 8 34 7 4
8 10 4 13 -5 3 -13 0 -19 -7z"/>
<path d="M1420 1409 c-24 -10 -40 -26 -40 -43 0 -4 9 2 20 15 12 15 19 19 20
10 0 -11 4 -11 19 3 11 10 25 14 36 10 13 -5 16 -4 11 4 -9 14 -32 14 -66 1z"/>
<path d="M1539 1390 c-6 -16 -17 -30 -24 -30 -19 0 -28 17 -13 23 7 3 2 4 -12
2 -14 -1 -36 -7 -50 -13 -14 -5 -29 -7 -34 -4 -5 3 -7 -2 -3 -11 4 -11 -3 -25
-20 -41 -18 -17 -24 -31 -20 -45 3 -14 0 -21 -9 -21 -10 0 -14 13 -14 42 0 71
-10 36 -14 -52 -4 -75 -2 -86 15 -98 10 -7 19 -21 19 -31 0 -10 12 -23 26 -30
15 -6 24 -15 20 -18 -3 -3 8 -14 24 -24 17 -11 30 -25 30 -33 0 -22 24 -25 47
-6 l22 17 -40 18 c-38 18 -119 95 -119 114 0 5 4 13 10 16 5 3 8 33 6 65 -4
56 -2 62 26 85 16 14 24 25 16 25 -23 0 14 20 38 20 12 0 32 -9 46 -19 19 -16
24 -27 20 -50 -2 -18 -10 -31 -18 -31 -8 0 -14 -4 -14 -10 0 -16 19 -12 41 9
17 16 20 27 15 62 -3 23 -8 44 -11 47 -2 3 0 14 6 24 9 16 13 17 22 8 9 -10 9
-14 0 -17 -8 -3 -9 -13 -2 -36 16 -55 11 -101 -12 -115 -13 -8 -19 -21 -17
-35 4 -30 32 -28 36 2 2 13 14 32 25 42 17 15 19 18 6 19 -12 0 -16 12 -18 51
-1 32 2 48 9 44 5 -3 10 -17 10 -31 0 -13 4 -24 9 -24 18 0 -19 94 -44 112
-18 13 -26 9 -36 -22z m-175 -166 c3 -9 6 -27 6 -41 0 -39 -25 -22 -28 20 -3
37 11 50 22 21z"/>
<path d="M1625 1410 c-3 -6 1 -13 9 -16 9 -3 16 -10 16 -16 0 -5 7 -16 15 -24
21 -21 19 -5 -5 34 -21 35 -26 37 -35 22z"/>
<path d="M1960 1400 c0 -5 5 -10 11 -10 5 0 7 -5 3 -11 -3 -6 -6 -43 -6 -83 1
-52 -1 -65 -8 -48 -5 12 -12 22 -16 22 -3 0 -3 -8 1 -17 4 -10 8 -35 10 -56 1
-21 5 -40 7 -43 9 -8 38 8 38 22 0 9 6 11 18 7 16 -7 16 -6 0 11 -10 9 -20 27
-22 39 -11 53 -14 97 -8 97 4 0 6 18 4 40 -3 26 -9 40 -18 40 -8 0 -14 -4 -14
-10z m30 -200 c0 -16 -4 -30 -10 -30 -11 0 -14 43 -3 53 11 12 13 8 13 -23z"/>
<path d="M2836 1397 c6 -17 74 -29 74 -12 0 5 -10 10 -22 11 -13 0 -31 4 -41
8 -13 6 -16 5 -11 -7z"/>
<path d="M80 1376 c0 -23 -24 -42 -45 -37 -5 2 -7 -1 -3 -5 4 -4 2 -14 -5 -23
-6 -8 3 -5 21 8 18 13 36 20 39 17 11 -11 33 16 33 40 0 17 -6 24 -20 24 -14
0 -20 -7 -20 -24z"/>
<path d="M1334 1386 c-3 -8 -1 -23 5 -33 9 -16 10 -14 11 11 0 16 3 27 6 23 3
-3 6 -22 6 -42 0 -21 4 -33 9 -28 13 13 -1 83 -18 83 -7 0 -16 -6 -19 -14z"/>
<path d="M429 1356 c-2 -3 -17 -7 -33 -10 -33 -6 -42 -13 -32 -23 4 -4 16 -2
26 5 11 7 27 12 35 12 8 0 15 5 15 10 0 11 -4 13 -11 6z"/>
<path d="M122 1328 c-16 -16 -15 -53 1 -66 15 -12 65 -13 73 -1 3 5 -11 9 -30
9 -38 0 -57 17 -35 31 23 14 57 10 68 -8 10 -16 10 -16 11 3 0 27 -19 44 -50
44 -14 0 -31 -5 -38 -12z"/>
<path d="M895 1320 c-7 -23 10 -50 31 -50 8 0 14 5 14 12 0 6 -3 8 -7 5 -11
-12 -31 13 -26 33 7 26 -4 26 -12 0z"/>
<path d="M2095 1333 c12 -9 12 -44 1 -62 -8 -13 -4 -14 18 -5 9 3 13 11 10 16
-4 6 -7 20 -8 31 -1 11 -8 22 -16 24 -9 3 -11 1 -5 -4z"/>
<path d="M2622 1309 c-11 -17 -10 -18 13 -7 28 13 47 2 25 -13 -13 -9 -13 -10
0 -5 8 3 23 9 33 12 9 4 17 11 17 16 0 5 -4 7 -9 4 -4 -3 -22 -2 -38 3 -24 7
-32 5 -41 -10z"/>
<path d="M66 1301 c-11 -12 -25 -17 -34 -13 -15 5 -15 4 -3 -12 13 -16 15 -16
24 -1 8 15 10 15 22 -2 12 -16 14 -15 13 15 -1 17 -2 32 -3 32 -1 0 -10 -9
-19 -19z"/>
<path d="M372 1304 c-16 -13 -16 -13 1 -14 9 0 17 4 17 8 0 5 14 7 30 4 17 -2
30 -2 30 1 0 12 -62 12 -78 1z"/>
<path d="M1715 1310 c-3 -5 -4 -10 -2 -10 3 0 2 -15 -3 -33 -5 -25 -4 -34 6
-34 8 0 14 6 14 12 0 7 3 27 6 44 6 30 -7 43 -21 21z"/>
<path d="M2918 1293 c18 -7 15 -23 -5 -23 -15 0 -16 -2 -3 -10 9 -6 18 -6 24
0 6 6 14 3 22 -8 7 -9 15 -14 18 -11 8 8 -43 59 -58 58 -7 0 -6 -3 2 -6z"/>
<path d="M398 1264 c7 -3 23 -22 37 -42 20 -30 25 -33 31 -18 8 21 -20 51 -56
60 -14 3 -19 3 -12 0z"/>
<path d="M211 1243 c-6 -11 -22 -17 -49 -17 -29 -1 -38 -4 -31 -13 7 -8 19 -8
42 -1 18 5 40 12 50 15 12 4 17 0 17 -16 0 -11 5 -21 10 -21 6 0 10 14 10 31
0 17 -4 28 -10 24 -5 -3 -10 -1 -10 4 0 17 -18 13 -29 -6z"/>
<path d="M505 1246 c-11 -9 -14 -16 -7 -16 7 0 12 -15 12 -39 0 -22 -5 -42
-12 -44 -7 -3 -2 -6 12 -7 l25 -1 -24 -19 c-32 -27 -46 -25 -71 10 -19 27 -60
42 -60 23 0 -5 -13 -23 -29 -42 -19 -22 -33 -31 -41 -26 -9 6 -11 4 -5 -5 5
-8 3 -11 -4 -9 -7 3 -13 9 -13 14 0 6 -4 18 -10 28 -9 17 -7 17 12 7 18 -10
21 -9 18 2 -3 7 -18 13 -34 13 -19 0 -30 6 -32 18 -5 24 -38 22 -45 -3 -3 -11
0 -20 6 -20 7 -1 32 -18 56 -39 36 -32 44 -46 45 -75 1 -20 -4 -38 -11 -41
-22 -8 -14 -25 11 -25 13 0 26 -5 28 -12 6 -17 35 -3 49 24 10 19 10 21 -2 12
-8 -6 -23 -11 -35 -11 -18 -1 -21 4 -21 48 -1 29 4 49 10 49 6 0 25 14 42 30
l31 30 24 -25 c13 -14 29 -25 37 -25 8 0 13 -12 13 -29 0 -24 -4 -29 -20 -28
-11 1 -20 5 -20 9 0 4 -9 8 -21 8 -11 0 -17 -4 -14 -10 8 -14 -18 -13 -32 1
-8 8 -13 8 -18 -1 -10 -16 -4 -19 52 -25 28 -2 63 -9 77 -15 15 -5 33 -10 41
-10 14 0 31 36 27 57 -2 6 13 17 33 24 31 12 33 15 20 28 -13 13 -17 13 -34
-3 -18 -16 -22 -17 -41 -3 -22 15 -22 16 26 51 50 36 74 44 74 25 0 -6 -7 -9
-15 -5 -22 8 -19 1 12 -30 25 -25 27 -26 34 -8 5 13 -1 27 -19 47 -29 30 -49
34 -78 12 -30 -22 -33 -19 -36 40 -3 54 -4 55 -23 41z m31 -202 c4 -17 2 -29
-7 -35 -23 -14 -29 -10 -29 19 0 48 25 59 36 16z"/>
<path d="M702 1248 c-7 -7 -12 -31 -12 -55 0 -76 62 -79 73 -3 8 58 -27 92
-61 58z m44 -24 c8 -30 -6 -79 -21 -79 -11 0 -19 69 -11 91 9 22 25 16 32 -12z"/>
<path d="M1750 1241 c-5 -11 -10 -35 -10 -53 0 -18 -7 -46 -15 -62 -18 -35
-18 -33 1 -40 13 -5 14 -3 6 6 -12 15 14 53 38 53 20 0 38 40 32 71 -6 35 -38
50 -52 25z m35 -41 c0 -18 -6 -35 -12 -37 -9 -3 -13 8 -13 37 0 29 4 40 13 38
6 -3 12 -20 12 -38z"/>
<path d="M2129 1236 c-14 -29 -4 -75 16 -83 23 -8 45 16 45 51 0 55 -41 76
-61 32z m44 -16 c6 -23 -2 -60 -13 -60 -11 0 -20 26 -20 56 0 29 25 32 33 4z"/>
<path d="M2801 1243 c-6 -10 -11 -13 -11 -6 0 7 -7 10 -16 6 -11 -4 -12 -8 -4
-13 8 -5 11 -21 8 -39 -3 -20 0 -31 7 -31 8 0 11 11 9 28 -4 25 -3 25 12 -7
23 -52 43 -67 89 -70 12 -1 18 -41 7 -41 -4 0 -9 -11 -10 -25 -1 -16 3 -25 13
-25 9 0 12 -6 9 -15 -4 -8 -1 -15 7 -15 7 0 9 -3 6 -7 -11 -10 30 -34 47 -27
25 10 19 27 -8 22 -19 -4 -26 0 -31 19 -3 13 -1 32 5 43 15 29 12 37 -6 12
-21 -30 -36 -28 -24 4 6 14 8 29 5 34 -3 5 -1 11 5 15 5 3 10 14 10 23 0 12
-3 13 -12 4 -17 -17 -38 -15 -38 3 0 8 -5 15 -11 15 -20 0 -38 34 -39 73 0 40
-13 48 -29 20z"/>
<path d="M83 1243 c-10 -3 -10 -8 1 -19 18 -17 14 -63 -5 -75 -10 -6 -4 -9 21
-9 26 0 31 3 22 12 -7 7 -12 31 -12 55 0 42 -3 46 -27 36z"/>
<path d="M299 1229 c-1 -8 0 -18 1 -24 1 -5 3 -16 3 -22 0 -7 6 -13 12 -13 8
0 11 11 9 28 -2 15 -1 21 2 15 8 -18 24 -16 24 2 0 8 -4 15 -9 15 -5 0 -16 3
-25 6 -10 4 -16 1 -17 -7z"/>
<path d="M919 1233 c-25 -6 -10 -68 16 -68 15 0 21 8 23 31 3 32 -9 43 -39 37z"/>
<path d="M2345 1230 c-12 -20 4 -62 23 -58 23 4 24 61 0 66 -9 2 -19 -2 -23
-8z"/>
<path d="M2560 1238 c0 -2 -4 -18 -9 -35 -5 -18 -6 -32 -3 -32 4 1 26 1 50 0
30 -1 42 -5 42 -16 0 -22 21 -18 27 5 3 11 9 17 14 14 5 -3 6 2 3 11 -4 11 -2
14 9 9 9 -3 18 -12 21 -20 3 -9 10 -13 15 -9 6 3 8 12 4 21 -3 8 -8 12 -11 10
-3 -3 -11 -1 -19 5 -9 9 -17 8 -28 -1 -8 -6 -19 -9 -25 -5 -5 3 -10 2 -10 -3
0 -21 -35 -5 -40 18 -3 14 -13 26 -23 28 -9 2 -17 2 -17 0z"/>
<path d="M817 1218 c-5 -18 3 -48 14 -48 12 0 12 47 0 54 -5 4 -11 0 -14 -6z"/>
<path d="M1140 1207 c0 -15 -4 -27 -10 -27 -5 0 -10 -21 -10 -47 0 -54 10 -54
12 1 1 22 6 36 14 36 8 0 11 9 8 27 -7 37 -14 42 -14 10z"/>
<path d="M1682 1192 c-5 -9 -7 -23 -5 -30 4 -10 9 -9 24 4 23 21 24 30 4 38
-8 3 -19 -2 -23 -12z"/>
<path d="M2264 1175 c0 -14 6 -27 13 -29 15 -6 27 10 14 19 -6 3 -8 12 -4 20
3 9 -1 15 -10 15 -10 0 -14 -9 -13 -25z"/>
<path d="M2891 1191 c-15 -10 -7 -31 12 -31 7 0 6 4 -3 10 -13 8 -12 10 3 10
10 0 28 -5 40 -11 22 -12 22 -12 3 10 -21 23 -33 26 -55 12z"/>
<path d="M2462 1173 c-26 -5 -20 -23 9 -23 11 0 18 4 14 9 -3 5 5 12 17 14 18
3 19 4 3 4 -11 0 -30 -2 -43 -4z"/>
<path d="M1942 1142 c-1 -18 -7 -42 -13 -54 -6 -11 -8 -22 -5 -25 10 -10 27
50 23 81 l-4 31 -1 -33z"/>
<path d="M140 1151 c0 -6 5 -11 10 -11 6 0 1 -9 -10 -20 -21 -21 -29 -66 -9
-55 6 4 8 13 5 21 -3 8 1 14 8 14 19 0 27 37 10 51 -10 8 -14 8 -14 0z"/>
<path d="M2719 1144 c-1 -5 -1 -12 0 -16 0 -5 -6 -8 -14 -8 -8 0 -15 -3 -15
-6 0 -7 41 -40 55 -45 31 -9 48 -60 25 -74 -18 -11 0 -25 24 -19 18 4 25 1 29
-17 6 -23 6 -23 28 -3 l22 19 -7 -28 c-5 -22 -4 -27 6 -21 7 5 21 7 31 6 23
-4 22 2 -8 34 -13 14 -22 30 -19 35 3 5 0 9 -6 9 -7 0 -9 8 -5 21 5 16 3 20
-6 17 -16 -5 -19 -30 -5 -40 6 -4 5 -17 -4 -35 l-13 -28 -8 30 c-3 17 -7 26
-8 20 -3 -21 -31 30 -31 57 0 15 -3 27 -7 27 -26 -4 -38 10 -47 53 -2 12 -16
22 -17 12z"/>
<path d="M1145 1103 c-4 -21 -10 -48 -15 -59 -11 -27 13 -64 41 -64 11 0 17
-5 14 -10 -4 -6 -10 -8 -14 -6 -10 6 -8 -25 3 -42 4 -6 13 -12 19 -12 7 0 6 4
-3 11 -12 9 -12 10 3 5 10 -3 21 -6 23 -6 2 0 4 -5 4 -11 0 -5 -4 -8 -9 -4 -5
3 -12 1 -16 -5 -3 -5 -1 -10 4 -10 6 0 11 -9 11 -19 0 -11 6 -22 13 -24 9 -4
8 -8 -3 -16 -8 -5 -11 -14 -6 -18 5 -4 11 -2 13 5 9 23 25 12 19 -12 -6 -26 8
-46 17 -24 3 7 6 0 6 -15 1 -15 10 -37 21 -49 11 -12 20 -28 20 -35 0 -7 8
-27 18 -45 30 -53 63 -149 56 -160 -4 -7 -2 -8 4 -4 12 7 17 -12 12 -43 -1 -8
4 -12 14 -8 11 4 13 1 9 -10 -4 -11 -2 -14 5 -9 7 4 13 2 13 -3 3 -20 5 -26
17 -48 7 -13 10 -40 7 -64 -3 -24 -1 -45 4 -48 4 -3 11 -16 15 -28 5 -16 2
-23 -11 -26 -16 -4 -16 -5 -1 -6 12 -1 16 -7 12 -18 -4 -14 -3 -14 7 2 12 19
12 19 19 0 4 -10 4 -30 2 -43 -5 -24 -6 -24 -18 -7 -8 10 -16 16 -20 13 -3 -4
3 -15 14 -26 20 -20 20 -20 32 2 9 18 7 39 -10 107 -12 46 -26 100 -30 119
-10 41 -52 143 -104 252 -20 42 -36 86 -36 98 0 11 -4 20 -8 20 -4 0 -23 37
-41 83 -68 169 -90 213 -110 230 -12 10 -14 9 -8 -5 3 -10 2 -18 -3 -18 -5 0
-6 22 -3 52 5 40 3 49 -6 43 -10 -6 -12 0 -6 24 4 17 4 31 1 31 -3 0 -8 -17
-11 -37z"/>
<path d="M1667 1123 c-8 -10 -17 -25 -19 -33 -2 -8 -7 -19 -13 -23 -6 -5 -4
-7 5 -4 16 4 56 65 48 73 -3 2 -12 -4 -21 -13z"/>
<path d="M1964 1100 c2 -22 0 -38 -4 -35 -5 3 -12 -16 -15 -42 -4 -27 -13 -57
-19 -68 -15 -24 -36 -105 -36 -139 0 -14 -6 -29 -14 -33 -14 -8 -36 -45 -36
-60 0 -4 5 -1 11 7 7 11 8 3 4 -28 -6 -35 -4 -41 8 -36 11 4 14 18 12 52 -3
53 3 71 17 51 8 -11 9 -10 4 4 -3 9 -2 17 3 17 5 0 8 12 8 28 0 59 3 77 12 63
6 -9 11 -10 15 -2 4 6 4 16 0 23 -4 6 -3 8 3 5 6 -4 15 5 22 19 6 15 7 23 1
19 -12 -7 -11 27 1 70 l8 30 -3 -32 c-2 -30 0 -33 23 -32 14 0 20 3 14 6 -7 2
-13 20 -13 39 0 19 -6 44 -12 55 -10 17 -10 23 -1 26 13 5 6 33 -8 33 -5 0 -7
-18 -5 -40z"/>
<path d="M2610 1088 c0 -31 3 -39 10 -28 7 11 10 12 10 2 0 -9 7 -11 19 -7 13
4 23 0 30 -12 5 -10 12 -15 16 -11 4 3 0 19 -9 35 -8 15 -15 22 -16 16 0 -18
-20 -16 -20 2 0 8 -7 15 -16 15 -8 0 -13 4 -9 9 3 5 1 12 -5 16 -6 4 -10 -10
-10 -37z"/>
<path d="M2765 1120 c4 -6 10 -8 15 -5 5 3 16 -10 26 -30 19 -41 35 -44 50
-10 11 22 10 24 -5 16 -20 -10 -41 -4 -41 14 0 7 -7 16 -16 19 -24 9 -36 7
-29 -4z"/>
<path d="M2957 1123 c-14 -13 -6 -24 15 -21 27 4 36 28 11 28 -11 0 -23 -3
-26 -7z"/>
<path d="M177 1113 c-4 -3 -7 -14 -7 -23 0 -10 -7 -23 -15 -30 -19 -16 -19
-20 6 -49 16 -19 22 -22 29 -12 4 8 13 10 19 6 9 -5 9 -10 1 -20 -12 -15 -6
-35 11 -35 5 0 9 7 9 15 0 13 4 14 20 5 20 -11 30 3 10 15 -6 4 -7 12 -3 18 4
8 1 7 -9 -1 -14 -11 -18 -10 -28 8 -9 17 -14 19 -25 10 -21 -18 -37 -3 -24 22
26 49 30 96 6 71z"/>
<path d="M1440 1101 c9 -19 85 -61 108 -61 7 0 12 -4 12 -10 0 -5 -5 -10 -10
-10 -5 0 -9 -4 -7 -9 1 -5 -7 -17 -18 -25 -20 -15 -20 -15 2 -16 31 0 74 21
66 33 -4 6 -1 7 6 2 7 -4 11 -16 8 -26 -3 -12 0 -19 10 -19 9 0 12 6 9 18 -9
29 22 55 68 56 11 1 21 6 23 13 5 14 -30 12 -70 -5 -44 -19 -77 -25 -77 -15 0
5 10 14 23 19 12 6 16 9 10 7 -7 -1 -13 2 -13 8 0 6 -6 6 -19 0 -10 -6 -21 -8
-23 -5 -3 2 -16 7 -29 9 -13 3 -29 11 -35 20 -6 8 -14 12 -17 8 -4 -3 -7 -2
-7 4 0 6 -7 13 -15 17 -12 4 -13 2 -5 -13z"/>
<path d="M1180 1098 c0 -2 7 -23 15 -48 l14 -45 -2 47 c-1 31 -7 48 -14 48 -7
0 -13 -1 -13 -2z"/>
<path d="M2355 1076 c-11 -9 -14 -16 -7 -16 15 0 17 -70 1 -70 -5 0 -8 -4 -5
-9 3 -4 17 -6 32 -3 14 2 21 8 16 11 -6 4 -12 28 -14 54 -3 46 -4 47 -23 33z"/>
<path d="M2563 1083 c-7 -2 -13 -9 -13 -14 0 -6 5 -7 10 -4 6 4 10 -10 10 -34
0 -23 -4 -41 -10 -41 -22 0 -8 -15 15 -16 16 -1 22 2 18 9 -4 6 -5 33 -4 59 2
47 -1 52 -26 41z"/>
<path d="M1753 1073 c-7 -2 -13 -9 -13 -14 0 -4 7 -6 15 -3 21 8 17 -67 -4
-83 -13 -10 -9 -12 24 -12 35 0 38 1 23 13 -13 9 -18 27 -18 60 0 45 -3 49
-27 39z"/>
<path d="M1340 1060 c-12 -8 -12 -10 -1 -10 9 0 12 -10 9 -35 -3 -30 -1 -35
17 -35 12 0 15 3 9 8 -6 4 -11 22 -12 41 -1 40 -3 43 -22 31z"/>
<path d="M2145 1030 c0 -36 2 -40 25 -39 14 0 19 3 13 6 -7 2 -13 20 -13 39 0
21 -5 34 -13 34 -9 0 -13 -14 -12 -40z"/>
<path d="M80 1030 c0 -19 7 -33 19 -40 28 -14 29 -13 23 18 -10 54 -42 71 -42
22z"/>
<path d="M917 1053 c-4 -3 -7 -19 -7 -34 0 -29 21 -44 39 -26 14 14 15 67 1
67 -5 0 -7 -13 -3 -31 5 -25 3 -31 -8 -27 -8 3 -13 17 -12 32 2 27 0 30 -10
19z"/>
<path d="M718 1020 c2 -16 9 -30 14 -30 13 0 6 53 -8 57 -7 2 -9 -8 -6 -27z"/>
<path d="M1230 1038 c0 -11 32 -68 41 -73 5 -4 9 -14 9 -23 0 -10 -3 -13 -8
-7 -4 6 -16 17 -26 25 -19 15 -19 15 -1 -17 10 -18 22 -30 26 -27 4 2 9 -2 12
-8 2 -7 7 -10 11 -6 12 10 -16 90 -41 116 -13 14 -23 23 -23 20z"/>
<path d="M788 985 c-51 -46 -48 -53 7 -14 24 17 42 36 39 40 -7 12 -4 13 -46
-26z"/>
<path d="M2680 1002 c0 -6 6 -13 13 -15 9 -4 9 -8 -1 -15 -11 -8 -11 -10 0
-14 8 -3 18 4 25 18 6 13 7 24 3 24 -5 0 -15 3 -24 6 -9 3 -16 2 -16 -4z"/>
<path d="M534 943 c3 -4 27 -8 52 -9 30 -1 52 -8 68 -23 27 -25 36 -27 36 -5
0 8 -4 12 -10 9 -5 -3 -10 -2 -10 4 0 6 -17 15 -37 20 -43 12 -110 15 -99 4z"/>
<path d="M2690 919 c0 -6 -9 -8 -21 -4 -16 5 -20 3 -17 -6 3 -8 16 -14 30 -14
19 -1 24 3 20 17 -5 20 -12 24 -12 7z"/>
<path d="M312 888 c-6 -13 -12 -35 -15 -50 -3 -22 0 -28 14 -28 11 0 19 -6 19
-12 0 -7 5 -5 11 5 6 9 16 14 22 11 7 -4 8 -3 4 2 -5 5 -16 9 -25 9 -13 0 -17
9 -16 43 0 23 0 42 -1 42 -1 0 -7 -10 -13 -22z"/>
<path d="M537 890 c6 -21 35 -29 31 -8 -2 6 8 15 22 19 21 6 18 7 -17 8 -36 1
-41 -1 -36 -19z"/>
<path d="M1332 898 c-5 -7 -12 -36 -14 -64 -5 -58 9 -98 31 -85 11 7 9 11 -8
20 -27 15 -27 31 0 24 28 -8 49 20 49 62 0 47 -34 72 -58 43z m36 -54 c-2 -22
-7 -39 -13 -39 -12 0 -19 60 -10 83 10 28 27 -3 23 -44z"/>
<path d="M1967 887 c-20 -25 -22 -47 -4 -70 11 -15 15 -16 31 -4 15 11 17 21
12 50 -9 46 -17 51 -39 24z m23 -37 c0 -16 -4 -30 -10 -30 -5 0 -10 14 -10 30
0 17 5 30 10 30 6 0 10 -13 10 -30z"/>
<path d="M2759 886 c-12 -26 -1 -77 17 -83 21 -7 49 32 50 71 1 21 -2 33 -6
26 -5 -9 -9 -9 -14 -1 -12 19 -36 12 -47 -13z m39 -30 c-2 -15 -7 -28 -13 -29
-12 -2 -19 38 -10 60 9 25 27 1 23 -31z"/>
<path d="M75 888 c-14 -41 -3 -98 19 -98 23 0 37 27 34 67 -2 31 -7 39 -26 41
-12 2 -24 -3 -27 -10z m40 -18 c7 -23 -2 -60 -15 -60 -13 0 -24 46 -16 65 8
21 23 19 31 -5z"/>
<path d="M713 893 c-7 -2 -13 -18 -13 -34 0 -18 -4 -28 -10 -24 -12 7 -13 -5
-2 -20 11 -15 49 -17 58 -3 13 21 15 48 4 69 -11 19 -16 21 -37 12z m27 -49
c0 -33 -12 -45 -25 -24 -9 15 5 71 16 64 5 -3 9 -21 9 -40z"/>
<path d="M910 879 c-16 -29 -3 -79 20 -79 26 0 43 35 35 71 -8 35 -39 40 -55
8z m38 -33 c-2 -15 -7 -28 -13 -29 -12 -2 -19 38 -10 60 9 25 27 1 23 -31z"/>
<path d="M2137 893 c-11 -11 -8 -61 4 -69 7 -4 9 0 5 13 -8 24 2 53 16 53 7 0
8 -16 5 -42 -5 -39 -4 -41 9 -24 17 24 17 31 4 57 -11 19 -31 25 -43 12z"/>
<path d="M2347 893 c-11 -10 -8 -25 3 -18 6 4 10 -6 10 -22 0 -23 -9 -33 -45
-55 -30 -18 -43 -32 -39 -42 3 -8 12 -12 19 -10 8 3 12 11 9 18 -6 15 37 46
63 46 15 0 18 7 15 45 -4 42 -17 56 -35 38z"/>
<path d="M2551 878 c-11 -29 -3 -56 19 -68 25 -13 47 38 30 69 -14 27 -39 27
-49 -1z m37 -29 c-1 -13 -7 -23 -13 -22 -13 3 -18 30 -11 50 10 24 29 1 24
-28z"/>
<path d="M435 881 c-16 -7 -10 -10 25 -12 38 -3 46 -8 48 -26 5 -34 22 -28 22
7 0 22 -5 30 -17 30 -10 0 -27 2 -38 5 -11 2 -29 0 -40 -4z"/>
<path d="M1746 866 c-8 -33 2 -56 25 -56 20 0 35 39 25 65 -9 24 -43 18 -50
-9z m34 -16 c0 -16 -4 -30 -10 -30 -5 0 -10 14 -10 30 0 17 5 30 10 30 6 0 10
-13 10 -30z"/>
<path d="M1132 856 c2 -15 8 -26 13 -26 15 0 12 43 -3 48 -10 3 -13 -4 -10
-22z"/>
<path d="M2658 858 c5 -21 4 -22 -14 -8 -17 14 -18 14 -6 -2 8 -9 11 -21 8
-27 -3 -5 1 -12 10 -15 22 -9 32 3 14 14 -8 6 -10 10 -4 10 7 0 9 11 6 25 -2
14 -8 25 -12 25 -5 0 -6 -10 -2 -22z"/>
<path d="M600 865 c0 -3 5 -12 12 -19 15 -16 48 -9 48 10 0 17 -17 18 -23 2
-4 -10 -6 -10 -6 0 -1 11 -31 18 -31 7z"/>
<path d="M1855 831 c-9 -22 -15 -45 -13 -52 3 -8 13 8 23 34 22 58 15 72 -10
18z"/>
<path d="M2694 814 c-1 -15 4 -24 13 -24 8 0 11 5 8 10 -3 6 -2 10 4 10 5 0
13 -4 16 -10 3 -5 10 -10 16 -10 5 0 4 9 -3 19 -7 11 -16 17 -20 14 -5 -2 -14
0 -21 5 -9 8 -12 4 -13 -14z"/>
<path d="M453 807 c-12 -21 -45 -30 -55 -15 -6 10 -8 10 -8 -1 0 -21 43 -81
58 -81 9 0 7 9 -8 27 -18 23 -19 28 -6 35 9 5 20 18 26 28 12 22 6 28 -7 7z"/>
<path d="M810 797 c0 -14 -4 -29 -10 -32 -12 -8 -13 -45 -1 -45 5 0 7 10 4 23
-4 18 -3 20 7 7 10 -13 11 -13 6 3 -3 9 -2 17 3 17 9 0 8 37 -2 46 -4 4 -7 -4
-7 -19z"/>
<path d="M2910 810 c-12 -8 -13 -11 -2 -22 11 -11 16 -10 27 6 8 10 19 15 26
10 8 -4 10 -3 5 4 -9 14 -35 15 -56 2z"/>
<path d="M1732 762 c-2 -45 1 -55 17 -59 18 -5 21 -38 6 -62 -3 -6 2 -11 13
-11 29 0 33 -10 12 -33 -11 -11 -17 -23 -14 -26 3 -3 17 7 31 23 15 18 21 31
14 35 -7 4 -3 13 9 24 22 18 25 33 11 41 -5 3 -14 -8 -20 -24 -5 -17 -15 -30
-20 -30 -16 0 -14 9 15 57 14 24 23 51 21 61 -3 15 -5 14 -11 -3 -22 -59 -29
-70 -34 -52 -2 12 -9 16 -22 12 -17 -5 -19 1 -23 47 l-3 53 -2 -53z"/>
<path d="M537 786 c-4 -10 -1 -13 9 -9 16 6 20 -22 4 -32 -11 -7 -4 -25 9 -25
12 0 20 36 14 60 -6 23 -28 27 -36 6z"/>
<path d="M1096 769 c9 -18 19 -27 26 -22 9 5 9 8 1 10 -7 3 -10 10 -7 17 3 8
-4 16 -15 19 -20 5 -20 4 -5 -24z"/>
<path d="M7 767 c4 -6 8 -14 9 -17 14 -47 16 -49 39 -38 13 6 27 17 30 26 4
12 3 13 -10 2 -8 -7 -15 -9 -15 -4 0 5 -4 2 -9 -5 -8 -12 -11 -9 -16 11 -4 15
-13 29 -21 32 -10 4 -12 2 -7 -7z"/>
<path d="M608 741 c-3 -21 0 -31 9 -31 15 0 17 28 4 49 -6 9 -10 4 -13 -18z"/>
<path d="M1420 739 c0 -17 4 -28 10 -24 6 3 10 17 10 31 0 13 -4 24 -10 24 -5
0 -10 -14 -10 -31z"/>
<path d="M2550 741 c0 -8 -7 -10 -20 -6 -11 4 -20 2 -20 -4 0 -6 -7 -7 -17 -4
-11 4 -14 3 -9 -5 4 -7 15 -12 25 -12 22 0 58 26 48 36 -4 4 -7 2 -7 -5z"/>
<path d="M2600 736 c0 -20 30 -29 36 -11 4 8 10 12 15 9 5 -3 9 0 9 5 0 6 -13
11 -30 11 -19 0 -30 -5 -30 -14z"/>
<path d="M640 732 c0 -6 12 -12 28 -14 20 -2 26 -8 25 -23 -4 -27 6 -65 16
-65 4 0 7 18 7 40 -1 21 4 38 9 37 6 -1 10 -19 10 -40 0 -39 9 -48 19 -21 9
25 7 62 -5 69 -5 4 -20 8 -32 10 -12 1 -34 6 -49 10 -18 4 -28 3 -28 -3z"/>
<path d="M1546 724 c-17 -12 -18 -14 -3 -14 13 0 17 -9 17 -40 0 -29 -4 -40
-15 -40 -8 0 -15 -4 -15 -10 0 -5 17 -10 38 -10 31 1 34 3 22 13 -9 7 -15 27
-14 52 2 55 -6 67 -30 49z"/>
<path d="M2966 724 c-14 -35 -6 -83 15 -94 20 -11 20 -11 4 14 -18 27 -14 74
8 88 8 5 7 8 -4 8 -9 0 -20 -7 -23 -16z"/>
<path d="M1117 713 c3 -7 9 -10 14 -7 5 3 9 -11 9 -30 0 -25 -5 -36 -17 -39
-13 -3 -11 -6 10 -12 15 -4 29 -6 31 -4 2 2 0 26 -3 53 -5 41 -10 50 -28 51
-14 1 -19 -3 -16 -12z"/>
<path d="M2135 720 c-3 -5 -1 -10 5 -10 8 0 11 -14 8 -40 -3 -31 0 -40 12 -40
12 0 14 10 12 50 -3 33 -8 50 -17 50 -8 0 -17 -4 -20 -10z"/>
<path d="M2341 708 c-9 -26 -2 -68 12 -68 6 0 19 -7 29 -17 22 -20 33 -12 19
15 -5 10 -7 29 -4 40 11 44 -40 72 -56 30z m35 -43 c-3 -9 -10 -13 -16 -10
-12 7 -13 48 -3 59 11 11 27 -30 19 -49z"/>
<path d="M88 707 c-15 -12 -15 -14 -1 -23 13 -8 14 -14 5 -31 -10 -18 -9 -20
6 -16 14 3 17 12 14 44 -2 21 -5 39 -6 39 0 0 -9 -6 -18 -13z"/>
<path d="M281 701 c-6 -10 -8 -28 -6 -40 2 -11 0 -21 -6 -21 -5 0 -9 -7 -9
-15 0 -8 7 -15 15 -15 8 0 15 5 15 10 0 6 7 10 16 10 25 0 43 31 34 56 -5 12
-6 25 -3 28 4 3 -6 6 -20 6 -15 0 -30 -8 -36 -19z m39 -26 c0 -19 -4 -35 -10
-35 -5 0 -10 16 -10 35 0 19 5 35 10 35 6 0 10 -16 10 -35z"/>
<path d="M929 713 c-1 -4 0 -20 1 -35 1 -17 -4 -28 -12 -29 -7 0 -2 -5 11 -10
27 -10 43 -3 22 10 -9 6 -11 18 -7 34 3 14 2 29 -4 32 -5 3 -10 3 -11 -2z"/>
<path d="M1340 711 c0 -6 5 -11 10 -11 6 0 10 -13 10 -30 0 -16 5 -30 11 -30
6 0 9 16 7 37 -2 27 -8 39 -20 41 -10 2 -18 -1 -18 -7z"/>
<path d="M1962 708 c-30 -30 1 -94 33 -68 16 13 19 38 9 64 -7 19 -25 21 -42
4z m28 -33 c0 -13 -4 -27 -10 -30 -6 -4 -10 8 -10 30 0 22 4 34 10 30 6 -3 10
-17 10 -30z"/>
<path d="M2567 688 c10 -55 30 -61 54 -16 9 16 8 19 -3 15 -7 -2 -12 -9 -11
-15 2 -6 -4 -9 -12 -6 -10 4 -13 14 -9 30 5 18 2 24 -10 24 -12 0 -14 -7 -9
-32z"/>
<path d="M2765 710 c-3 -5 -1 -10 6 -10 7 0 10 -11 7 -30 -3 -21 0 -30 10 -30
9 0 12 6 8 16 -3 9 -6 27 -6 40 0 24 -14 32 -25 14z"/>
<path d="M217 694 c4 -11 8 -12 13 -4 5 8 9 6 14 -6 6 -16 8 -16 16 -4 7 11 4
17 -8 22 -29 12 -42 9 -35 -8z"/>
<path d="M494 697 c-16 -19 1 -59 23 -55 26 5 31 68 6 68 -10 -1 -23 -6 -29
-13z"/>
<path d="M177 694 c-15 -15 -6 -32 13 -27 12 3 19 10 17 16 -4 14 -21 19 -30
11z"/>
<path d="M2243 694 c3 -3 -1 -24 -9 -46 -17 -48 -17 -48 -5 -48 11 0 21 27 26
70 3 18 -1 30 -7 30 -6 0 -9 -3 -5 -6z"/>
<path d="M415 681 c-16 -3 -31 -12 -33 -19 -3 -16 28 -12 46 6 8 7 18 10 23 7
5 -4 9 -1 9 4 0 6 -3 10 -7 10 -5 -1 -21 -4 -38 -8z"/>
<path d="M180 635 c0 -9 -7 -18 -15 -21 -8 -4 -15 -16 -14 -28 0 -20 1 -20 10
2 5 13 13 21 18 18 5 -3 11 5 13 19 3 14 1 25 -3 25 -5 0 -9 -7 -9 -15z"/>
<path d="M2291 645 c0 -20 37 -55 53 -49 11 4 19 -2 25 -19 5 -14 16 -29 23
-33 10 -6 10 -4 -1 9 -7 9 -11 17 -7 17 4 0 0 14 -9 30 -17 32 -49 43 -39 13
4 -10 -5 -5 -20 12 -14 17 -25 26 -25 20z"/>
<path d="M2546 634 c-4 -9 -13 -14 -21 -10 -8 3 -15 1 -15 -4 0 -6 11 -10 25
-10 14 0 25 2 25 4 0 2 3 11 6 20 3 9 2 16 -4 16 -5 0 -13 -7 -16 -16z"/>
<path d="M2655 628 c11 -15 25 -26 31 -24 7 3 9 -5 6 -20 -3 -15 0 -24 9 -24
7 0 9 3 6 6 -3 4 -2 14 3 24 12 22 -18 70 -31 49 -6 -10 -11 -10 -25 2 -16 12
-15 10 1 -13z"/>
<path d="M410 630 c-12 -8 -12 -10 5 -10 15 0 17 -2 6 -9 -7 -5 -10 -14 -6
-20 11 -19 28 -7 32 22 4 28 -10 35 -37 17z"/>
<path d="M2055 623 c4 -10 8 -24 8 -30 1 -22 17 -14 17 7 0 11 -6 20 -12 20
-9 0 -8 4 2 10 13 8 12 10 -4 10 -13 0 -16 -4 -11 -17z"/>
<path d="M2598 627 c-16 -13 -19 -39 -5 -53 4 -4 18 4 31 19 17 18 21 28 13
36 -14 14 -18 13 -39 -2z"/>
<path d="M2842 618 c-16 -17 -22 -19 -22 -8 0 13 -1 13 -10 0 -6 -9 -5 -17 3
-22 19 -12 27 -9 27 8 0 8 4 13 9 10 5 -3 12 1 15 10 10 25 2 26 -22 2z"/>
<path d="M1380 622 c0 -21 37 -64 45 -52 3 5 1 10 -5 10 -7 0 -9 7 -6 16 3 8
2 12 -3 9 -6 -3 -14 3 -20 12 -7 12 -11 13 -11 5z"/>
<path d="M683 604 c-18 -9 -33 -20 -33 -25 0 -5 16 -1 35 8 19 9 35 20 35 25
0 10 1 10 -37 -8z"/>
<path d="M1861 583 c-15 -52 -14 -56 7 -35 16 16 24 72 10 72 -4 0 -12 -17
-17 -37z"/>
<path d="M2266 601 c-4 -5 6 -23 20 -40 14 -17 23 -38 20 -46 -3 -8 -1 -15 4
-15 17 0 11 41 -11 76 -22 37 -25 39 -33 25z"/>
<path d="M451 577 c-6 -8 -8 -17 -5 -20 10 -9 45 13 39 24 -9 13 -21 11 -34
-4z"/>
<path d="M563 577 c-9 -14 1 -17 40 -10 20 3 34 10 31 14 -7 11 -64 8 -71 -4z"/>
<path d="M2890 579 c0 -6 -7 -9 -15 -5 -17 6 -21 -9 -5 -19 5 -3 20 -8 32 -10
16 -4 19 -2 10 7 -15 15 -16 31 0 22 7 -4 8 -3 4 4 -9 15 -26 15 -26 1z"/>
<path d="M2936 583 c-3 -3 -1 -12 4 -19 6 -6 10 -16 9 -20 -4 -14 23 -64 34
-64 5 0 7 -9 4 -20 -3 -11 -1 -18 4 -14 5 3 9 16 9 30 0 14 -4 22 -10 19 -6
-3 -10 5 -10 19 0 14 5 28 10 31 6 3 10 11 10 18 0 8 -3 8 -12 -1 -16 -16 -28
-15 -28 2 0 17 -14 28 -24 19z"/>
<path d="M363 565 c1 -6 -15 -9 -40 -7 -38 3 -43 1 -43 -17 0 -11 -6 -24 -12
-28 -21 -13 -68 -120 -53 -120 7 0 20 18 30 39 9 21 21 36 26 33 14 -9 11 -51
-6 -65 -11 -9 -12 -15 -2 -25 10 -11 15 -10 29 8 10 12 18 28 18 35 0 8 9 26
20 40 15 18 19 34 15 54 -7 28 2 34 43 29 6 -1 12 2 12 8 0 5 8 11 18 13 9 3
0 6 -20 9 -22 3 -36 1 -35 -6z m-35 -44 c5 -29 -6 -71 -17 -71 -12 0 -25 76
-16 90 11 17 30 6 33 -19z"/>
<path d="M2760 560 c0 -9 7 -17 15 -17 8 0 15 4 15 8 0 4 8 9 18 11 10 3 4 6
-15 9 -26 4 -33 2 -33 -11z"/>
<path d="M38 553 c-22 -26 -41 -64 -34 -71 3 -3 6 0 6 6 0 6 16 27 35 47 20
19 30 35 22 35 -8 0 -21 -8 -29 -17z"/>
<path d="M690 552 c0 -7 7 -15 15 -18 18 -7 20 -70 3 -77 -7 -3 -2 -6 12 -6
24 -1 25 1 21 50 -2 41 -6 49 -19 44 -8 -3 -19 0 -24 7 -6 11 -8 11 -8 0z"/>
<path d="M1427 553 c-4 -3 -1 -16 7 -27 7 -12 17 -37 21 -56 4 -19 14 -47 21
-62 8 -16 25 -67 39 -115 13 -49 24 -79 24 -68 1 29 -37 177 -46 184 -16 11
-31 78 -21 95 7 12 3 18 -17 26 -14 5 -23 14 -20 20 7 11 2 13 -8 3z"/>
<path d="M1964 552 c-6 -4 -15 -21 -18 -39 -6 -25 -3 -36 13 -52 26 -26 47
-18 55 20 10 54 -17 93 -50 71z m32 -67 c-4 -15 -12 -25 -19 -22 -17 5 -20 42
-6 69 l12 23 10 -22 c5 -12 7 -34 3 -48z"/>
<path d="M2062 548 c-9 -9 -7 -15 6 -25 9 -8 11 -12 5 -8 -15 7 -18 -11 -4
-19 5 -3 12 1 15 10 9 24 7 36 -6 28 -8 -5 -9 -2 -5 9 8 20 5 21 -11 5z"/>
<path d="M141 541 c-7 -5 -21 -6 -31 -4 -10 3 -28 -5 -40 -17 -22 -22 -23 -45
0 -45 7 0 15 -6 18 -12 2 -7 -3 -13 -11 -13 -16 0 -27 -21 -27 -48 0 -14 2
-14 9 -3 5 7 13 11 19 7 6 -3 14 4 18 16 9 31 45 81 52 73 3 -3 8 -24 11 -47
3 -23 12 -43 20 -46 11 -4 13 5 7 46 -5 36 -3 52 6 55 7 3 -4 6 -25 6 -38 1
-44 21 -6 21 10 0 19 5 19 10 0 12 -20 13 -39 1z m-28 -18 c3 -5 1 -19 -4 -32
-12 -30 -31 -15 -23 17 6 22 19 29 27 15z"/>
<path d="M507 538 c10 -18 3 -71 -11 -80 -6 -5 0 -8 14 -8 24 0 25 2 22 50 -3
36 -8 50 -19 50 -9 0 -11 -5 -6 -12z"/>
<path d="M1115 520 c-5 -22 -1 -39 13 -61 l19 -31 17 37 c23 47 15 85 -18 85
-19 0 -26 -7 -31 -30z m45 -15 c0 -24 -5 -35 -15 -35 -10 0 -15 11 -15 35 0
24 5 35 15 35 10 0 15 -11 15 -35z"/>
<path d="M1542 533 c-5 -10 -8 -25 -7 -33 1 -8 3 -21 3 -28 1 -8 11 -12 25
-10 16 2 23 11 25 31 5 46 -29 75 -46 40z m35 -47 c-4 -9 -11 -16 -17 -16 -11
0 -14 53 -3 64 11 10 27 -30 20 -48z"/>
<path d="M1755 527 c-9 -35 0 -57 23 -57 15 0 19 6 16 26 -1 15 -9 34 -18 42
-13 14 -16 12 -21 -11z"/>
<path d="M914 526 c-11 -28 0 -61 21 -61 16 0 20 7 20 35 0 25 -5 36 -18 38
-9 2 -20 -3 -23 -12z m36 -26 c0 -10 -4 -21 -9 -24 -12 -8 -22 20 -15 39 8 19
24 9 24 -15z"/>
<path d="M1876 518 c-8 -12 -13 -25 -11 -29 3 -4 -2 -9 -10 -13 -11 -4 -15 2
-15 20 0 14 -4 23 -9 20 -13 -8 -1 -47 16 -53 8 -3 18 -15 23 -27 6 -15 8 -8
8 27 0 26 6 54 12 62 7 8 10 15 7 15 -3 0 -13 -10 -21 -22z"/>
<path d="M2135 530 c-17 -7 -17 -9 -2 -9 10 -1 17 -9 17 -21 0 -27 20 -25 48
4 21 23 21 24 2 19 -11 -3 -20 -13 -20 -22 -1 -10 -6 -6 -13 10 -10 21 -16 25
-32 19z"/>
<path d="M2359 538 c-7 -22 -2 -58 8 -58 8 0 13 12 13 30 0 17 -4 30 -10 30
-5 0 -10 -1 -11 -2z"/>
<path d="M2620 519 c14 -11 32 -25 40 -32 9 -7 27 -13 40 -14 14 -1 19 1 13 3
-18 8 -16 24 2 24 8 0 15 -8 16 -17 0 -15 2 -15 9 2 5 11 9 18 10 15 6 -22 11
-50 13 -75 2 -19 9 -31 20 -33 9 -2 17 1 17 7 0 6 -7 8 -15 5 -11 -5 -13 -2
-9 10 3 9 10 16 16 16 5 0 2 7 -7 16 -9 9 -14 22 -11 29 3 8 -3 16 -12 20 -16
6 -15 7 2 17 14 8 20 7 27 -3 4 -7 5 -17 3 -21 -3 -4 0 -8 6 -8 7 0 10 -7 6
-15 -3 -8 0 -15 5 -15 6 0 9 -9 6 -20 -5 -18 -4 -18 19 -3 23 14 35 31 14 18
-5 -3 -10 -1 -10 5 0 6 -5 8 -11 4 -8 -5 -10 4 -7 29 2 20 1 34 -3 31 -4 -2
-10 3 -13 11 -5 13 -10 14 -28 4 -34 -19 -128 -21 -135 -3 -3 8 -15 14 -27 14
-20 -1 -20 -1 4 -21z"/>
<path d="M2274 512 c4 -11 2 -23 -3 -26 -5 -4 -12 3 -16 13 -4 13 -12 18 -21
14 -13 -5 -13 -8 2 -24 9 -10 13 -23 8 -30 -5 -9 -11 -7 -21 6 -8 12 -16 15
-22 9 -4 -5 0 -16 10 -26 16 -15 18 -15 35 3 9 10 21 19 26 19 13 0 9 -28 -4
-33 -8 -3 -6 -6 5 -6 16 -1 23 12 17 34 -2 6 -2 20 -2 32 1 12 -3 25 -9 29 -7
4 -9 0 -5 -14z"/>
<path d="M2894 508 c-11 -12 -13 -18 -6 -14 6 4 12 3 12 -3 0 -6 6 -8 14 -5
18 7 26 -28 13 -52 -10 -17 -9 -18 7 -4 16 13 20 12 31 -3 14 -19 35 -23 35
-6 0 5 -4 8 -8 5 -12 -7 -50 38 -58 69 -9 35 -18 38 -40 13z"/>
<path d="M575 511 c-6 -10 11 -24 33 -27 16 -3 15 4 -2 22 -17 16 -23 17 -31
5z"/>
<path d="M2539 503 c5 -10 16 -27 25 -38 15 -20 15 -20 16 2 0 22 -24 53 -41
53 -6 0 -6 -6 0 -17z"/>
<path d="M425 501 c3 -5 -3 -12 -12 -14 -12 -3 -8 -5 9 -6 14 0 35 -3 45 -6
11 -3 9 -1 -4 6 -13 7 -23 16 -23 21 0 4 -5 8 -11 8 -5 0 -8 -4 -4 -9z"/>
<path d="M2500 496 c0 -20 25 -54 36 -49 20 8 17 19 -11 37 -14 9 -25 14 -25
12z"/>
<path d="M2607 494 c-11 -11 -8 -24 5 -21 7 1 12 -4 13 -10 0 -14 8 -17 27
-11 7 3 9 12 5 22 -4 10 -13 16 -21 13 -8 -3 -16 -1 -18 4 -2 6 -7 7 -11 3z"/>
<path d="M373 463 c9 -11 17 -25 17 -31 0 -7 7 -12 15 -12 22 0 2 36 -28 51
-21 12 -21 11 -4 -8z"/>
<path d="M1320 460 c-8 -15 -6 -21 10 -30 10 -6 18 -16 16 -23 -1 -6 -1 -9 1
-4 3 4 10 4 16 0 8 -5 8 -2 0 9 -7 8 -9 19 -5 23 4 5 1 5 -5 1 -13 -7 -17 4
-14 32 3 18 -7 15 -19 -8z"/>
<path d="M2067 464 c3 -8 11 -14 19 -14 8 0 11 -6 7 -17 -5 -12 -2 -15 10 -10
9 3 17 2 17 -3 0 -6 -7 -10 -15 -10 -8 0 -15 -4 -15 -10 0 -5 7 -10 16 -10 9
0 12 -5 8 -12 -4 -7 -3 -8 4 -4 7 4 12 2 12 -3 0 -6 -5 -11 -11 -11 -5 0 -7
-5 -4 -11 11 -17 19 -1 21 39 0 20 4 45 9 55 4 10 3 17 -5 17 -6 0 -8 -4 -5
-10 3 -5 0 -10 -8 -10 -8 0 -17 6 -20 14 -3 7 -14 16 -25 18 -15 4 -19 2 -15
-8z"/>
<path d="M2428 468 c-3 -7 1 -19 9 -26 7 -8 11 -17 8 -22 -3 -4 9 -13 25 -19
18 -6 28 -6 25 -1 -4 6 -14 10 -23 10 -14 0 -15 2 -2 10 9 5 19 5 26 -1 21
-17 28 10 8 32 -22 25 -37 24 -29 -1 3 -11 2 -20 -3 -20 -15 0 -34 28 -27 40
3 5 2 10 -4 10 -5 0 -11 -6 -13 -12z"/>
<path d="M1242 458 c-20 -20 -14 -36 13 -33 26 2 36 -19 13 -28 -8 -3 -7 -6 4
-6 9 -1 19 3 22 8 9 14 -7 46 -24 46 -8 0 -14 6 -12 13 3 15 -1 15 -16 0z"/>
<path d="M2662 444 c-27 -21 -35 -24 -48 -14 -8 7 -17 10 -21 7 -3 -4 2 -9 11
-13 9 -3 13 -11 9 -17 -4 -7 0 -8 11 -4 10 4 24 7 31 7 8 0 21 7 30 16 12 13
18 14 31 4 25 -21 29 -2 4 20 -13 11 -23 20 -24 20 -1 0 -16 -12 -34 -26z"/>
<path d="M1060 436 c0 -9 3 -15 8 -15 20 3 32 -2 32 -16 0 -8 4 -15 9 -15 4 0
6 11 3 25 -2 14 -8 22 -14 19 -5 -3 -15 0 -23 6 -12 10 -15 9 -15 -4z"/>
<path d="M1621 410 c-7 -22 -16 -38 -21 -35 -6 4 -10 -2 -10 -11 0 -13 -3 -15
-11 -7 -19 19 -39 3 -39 -29 0 -21 6 -31 20 -35 15 -4 19 -11 15 -32 -3 -14
-8 -46 -10 -70 -3 -25 -8 -47 -12 -50 -3 -3 -3 4 0 17 3 12 1 22 -4 22 -17 0
-9 -39 13 -60 24 -22 44 -27 32 -8 -7 11 -6 108 1 168 2 17 0 28 -5 25 -4 -3
-6 4 -3 15 3 11 9 18 13 15 8 -5 45 103 38 111 -3 2 -10 -14 -17 -36z m-51
-80 c0 -16 -4 -30 -10 -30 -11 0 -14 43 -3 53 11 12 13 8 13 -23z"/>
<path d="M2543 443 c-17 -6 23 -60 59 -78 28 -14 98 -10 98 5 0 15 -39 17 -59
3 -19 -13 -22 -12 -27 2 -4 9 -12 14 -18 12 -7 -3 -13 4 -13 16 -2 25 -24 46
-40 40z"/>
<path d="M2171 426 c-9 -10 -9 -48 -2 -84 1 -2 15 6 31 18 29 21 41 50 19 50
-5 0 -8 -4 -5 -9 3 -5 -2 -15 -11 -22 -14 -12 -16 -12 -8 0 6 11 4 13 -9 8
-14 -5 -15 -3 -6 12 5 11 15 21 22 23 8 3 6 7 -4 11 -9 3 -21 0 -27 -7z"/>
<path d="M1665 410 c-3 -5 -4 -14 0 -19 3 -5 1 -12 -5 -16 -5 -3 -10 -14 -9
-23 0 -13 2 -12 9 4 5 12 13 25 19 29 13 8 14 35 2 35 -6 0 -13 -4 -16 -10z"/>
<path d="M1779 415 c-1 -3 -2 -10 -3 -16 0 -6 -9 -16 -18 -23 -18 -13 -26 -32
-9 -22 15 10 21 -58 6 -70 -9 -7 -14 -34 -14 -83 0 -44 -5 -79 -13 -89 -11
-13 -10 -15 5 -9 13 5 17 1 17 -18 0 -14 4 -25 9 -25 5 0 7 8 4 19 -3 12 2 20
16 24 16 4 21 13 21 37 0 30 2 32 27 25 37 -9 38 -9 35 -60 -1 -25 3 -45 8
-45 10 0 14 21 11 47 -1 7 4 13 10 13 7 0 3 10 -9 23 -12 13 -22 29 -22 36 0
7 -4 9 -10 6 -5 -3 -10 -1 -10 5 0 7 -8 9 -19 5 -11 -3 -22 -1 -26 5 -12 19
-26 11 -16 -8 13 -24 8 -75 -8 -80 -6 -2 -11 5 -12 15 -6 150 -7 143 15 142
12 0 16 -3 10 -5 -13 -6 -7 -44 7 -44 5 0 9 3 10 8 0 4 2 17 3 29 1 12 -3 24
-11 27 -15 6 -16 103 -1 112 11 7 10 24 -2 24 -5 0 -11 -2 -11 -5z"/>
<path d="M2280 395 c-13 -14 -26 -23 -28 -20 -8 7 -33 -16 -27 -25 3 -4 -2 -7
-11 -6 -9 0 -20 -9 -25 -21 -6 -16 -5 -22 4 -20 7 1 12 -7 12 -17 0 -11 6 -21
13 -24 6 -2 12 -11 12 -20 0 -12 3 -13 11 -5 9 9 6 20 -11 43 l-23 32 54 48
c30 26 51 51 48 54 -3 3 -16 -5 -29 -19z"/>
<path d="M2417 396 c3 -14 13 -32 23 -41 16 -14 19 -14 41 4 13 11 19 20 12
21 -6 0 -13 -5 -15 -12 -2 -6 -14 3 -27 20 -27 38 -40 41 -34 8z"/>
<path d="M2516 412 c-7 -11 159 -202 174 -202 20 0 8 24 -36 74 -26 28 -53 50
-60 48 -8 -2 -14 4 -14 12 0 8 -10 23 -23 33 -13 10 -24 22 -24 26 -2 15 -11
19 -17 9z"/>
<path d="M404 399 c-9 -14 -11 -20 -13 -41 -1 -9 -4 -9 -13 0 -17 17 -58 15
-58 -3 0 -18 21 -20 39 -2 11 10 13 9 8 -6 -6 -15 -2 -18 16 -15 12 2 22 9 22
16 0 7 5 16 11 20 6 4 8 16 4 26 -5 16 -8 17 -16 5z"/>
<path d="M1055 398 c-12 -40 -11 -78 3 -78 10 0 13 7 9 20 -4 17 -2 20 14 15
20 -7 28 18 9 30 -5 3 -10 1 -10 -4 0 -6 -5 -11 -11 -11 -6 0 -9 9 -6 20 6 22
-1 28 -8 8z"/>
<path d="M56 374 c-10 -10 -14 -24 -10 -40 3 -13 2 -24 -4 -24 -5 0 -12 -8
-15 -17 -2 -10 -8 -27 -12 -38 -6 -20 -6 -20 7 0 7 11 20 20 28 20 8 0 19 15
25 33 11 37 22 41 28 10 4 -21 4 -21 6 3 0 14 7 31 14 38 10 10 6 10 -18 1
-16 -6 -33 -17 -37 -23 -5 -8 -8 -6 -8 6 0 9 4 17 9 17 5 0 11 7 15 15 7 20
-8 19 -28 -1z"/>
<path d="M174 383 c4 -8 2 -13 -4 -13 -8 0 -10 -9 -6 -24 6 -25 -1 -37 -48
-73 -27 -22 -56 -74 -56 -102 0 -11 -8 -22 -19 -26 -13 -4 -17 -12 -13 -30 6
-32 22 -32 22 0 0 14 5 25 10 25 6 0 10 -9 10 -19 0 -38 54 -36 64 2 10 38 7
56 -13 76 -19 19 -19 20 0 42 17 20 22 21 30 9 8 -12 9 -10 4 7 -5 18 -2 20
14 16 14 -4 23 1 27 13 4 11 21 31 38 46 29 26 30 27 9 28 -13 0 -25 -1 -27
-2 -2 -2 -14 6 -27 17 -12 11 -19 14 -15 8z m-56 -224 c3 -38 -10 -65 -27 -55
-12 8 -15 78 -4 90 14 14 28 -2 31 -35z"/>
<path d="M710 375 c-7 -8 -15 -30 -20 -49 -6 -27 -4 -36 7 -40 23 -9 25 -7 18
15 -8 26 2 69 16 69 7 0 10 -17 8 -44 l-4 -43 40 5 c50 6 72 16 56 26 -6 4
-11 2 -11 -3 0 -6 -13 -11 -30 -11 -28 0 -30 3 -30 35 0 41 -30 65 -50 40z"/>
<path d="M902 339 c-2 -40 1 -50 20 -63 21 -15 23 -14 35 7 14 26 16 66 4 85
-4 7 -19 15 -32 16 -22 2 -24 -1 -27 -45z m46 -11 c-3 -47 -21 -55 -26 -12 -4
31 4 54 18 54 7 0 10 -17 8 -42z"/>
<path d="M1895 363 c-26 -35 -37 -63 -25 -63 6 0 10 6 10 13 0 6 4 18 9 26 7
11 13 12 24 3 11 -10 14 -6 14 18 0 37 -6 37 -32 3z"/>
<path d="M2344 375 c-4 -9 -15 -13 -28 -11 -11 2 -15 1 -9 -1 7 -2 17 -22 23
-44 9 -32 15 -39 36 -39 19 0 26 6 31 30 7 36 18 39 27 8 4 -17 -1 -28 -17
-40 -14 -12 -17 -18 -8 -18 16 0 6 -14 -12 -16 -7 0 -21 -2 -32 -3 -17 -1 -17
-3 -5 -11 12 -7 10 -9 -7 -7 -21 1 -21 2 -6 19 29 33 -8 20 -39 -13 -28 -29
-29 -31 -7 -24 13 5 43 7 65 6 30 -1 44 3 48 15 3 8 10 13 15 10 5 -3 11 7 13
22 3 15 8 34 12 43 5 12 -3 28 -26 53 -36 39 -55 47 -38 16 8 -15 8 -20 -2
-20 -10 0 -10 -2 1 -9 10 -7 11 -13 2 -30 -18 -33 -33 -14 -28 35 5 45 1 56
-9 29z"/>
<path d="M490 364 c-19 -22 -1 -85 27 -95 20 -7 23 -4 29 36 6 45 1 75 -13 75
-4 0 -8 -19 -8 -42 0 -24 -4 -43 -10 -43 -5 0 -10 19 -9 43 0 23 -1 42 -2 42
-1 0 -7 -7 -14 -16z"/>
<path d="M2000 373 c0 -6 -9 -13 -20 -16 -27 -7 -28 -53 -1 -60 16 -4 20 2 23
37 3 22 3 43 1 45 -1 2 -3 0 -3 -6z"/>
<path d="M2067 365 c-11 -27 -8 -32 18 -37 30 -6 31 -1 6 31 -16 21 -19 21
-24 6z"/>
<path d="M2762 347 c-3 -35 16 -61 34 -49 6 4 14 22 17 40 5 24 3 32 -7 32 -8
0 -21 2 -28 5 -10 4 -15 -4 -16 -28z m35 -9 c-5 -32 -27 -35 -27 -4 0 16 6 26
15 26 10 0 14 -8 12 -22z"/>
<path d="M2970 370 c-13 -9 -7 -14 13 -11 4 0 7 -12 7 -29 0 -16 -4 -30 -10
-30 -5 0 -10 -4 -10 -10 0 -5 7 -7 15 -4 10 4 15 20 15 50 0 45 -4 51 -30 34z"/>
<path d="M1124 334 c-7 -28 9 -46 33 -37 14 6 17 22 7 47 -10 25 -33 19 -40
-10z"/>
<path d="M1333 353 c15 -4 18 -12 15 -34 -3 -17 0 -29 7 -29 7 0 9 13 7 35 -3
28 -8 35 -26 34 -18 -1 -18 -2 -3 -6z"/>
<path d="M2877 347 c-11 -29 9 -41 45 -29 l33 11 -35 -6 c-30 -5 -33 -4 -22 9
6 8 9 18 5 21 -10 11 -20 8 -26 -6z"/>
<path d="M1626 342 c-9 -15 -15 -92 -7 -92 13 0 22 28 11 35 -5 3 -5 18 0 35
8 29 7 39 -4 22z"/>
<path d="M416 324 c-19 -19 -21 -28 -3 -17 6 4 20 6 29 5 13 -2 16 1 12 12 -8
20 -18 20 -38 0z"/>
<path d="M2460 330 c0 -4 16 -22 36 -39 35 -31 35 -33 20 -56 -15 -22 -45 -38
-32 -17 3 5 -1 9 -8 9 -9 0 -10 -6 -2 -23 8 -18 14 -20 29 -13 10 6 22 21 27
34 5 13 18 29 30 35 23 12 27 40 5 40 -18 0 -20 -16 -2 -23 7 -4 6 -6 -5 -6
-27 -1 -47 10 -42 23 3 7 -2 19 -12 26 -19 16 -44 22 -44 10z"/>
<path d="M616 314 c-3 -9 -13 -14 -20 -11 -8 3 -19 0 -24 -6 -8 -9 3 -12 44
-12 30 -1 54 3 54 7 0 4 -7 8 -15 8 -8 0 -15 7 -15 15 0 20 -16 19 -24 -1z"/>
<path d="M1440 320 c0 -6 -4 -9 -9 -6 -5 3 -12 -1 -15 -10 -9 -23 -7 -34 5
-34 6 0 9 7 5 15 -5 13 5 20 27 16 11 -2 9 17 -3 24 -5 3 -10 1 -10 -5z"/>
<path d="M1039 279 c-13 -11 -19 -18 -12 -15 6 4 14 0 16 -6 4 -8 8 -4 13 10
4 15 12 21 21 18 8 -3 11 -1 8 4 -9 15 -20 12 -46 -11z"/>
<path d="M331 268 c-1 -10 -5 -18 -11 -18 -19 0 -10 -35 13 -45 18 -9 29 -6
55 11 18 13 28 25 22 29 -5 3 -10 1 -10 -6 0 -7 -3 -9 -7 -6 -3 4 -12 2 -19
-4 -8 -6 -22 -8 -31 -5 -11 5 -14 10 -7 14 7 4 8 15 3 27 -6 17 -8 17 -8 3z"/>
<path d="M1200 265 c0 -7 14 -12 30 -13 17 0 30 3 30 8 0 4 -13 10 -30 12 -19
3 -30 0 -30 -7z"/>
<path d="M2874 219 c2 -39 9 -67 19 -80 10 -11 17 -26 17 -34 0 -20 16 -19 24
1 3 8 2 13 -3 10 -9 -6 -21 14 -27 43 -1 8 -8 17 -14 21 -8 5 -9 10 -2 14 7 4
7 17 2 36 -5 19 -5 30 1 30 6 0 7 5 4 10 -15 25 -23 5 -21 -51z"/>
<path d="M1656 248 c-3 -13 -6 -39 -6 -57 0 -49 18 -27 21 26 4 47 -5 66 -15
31z"/>
<path d="M2116 261 c-25 -5 -27 -8 -13 -19 10 -9 17 -10 22 -2 6 9 27 7 80 -7
18 -5 18 -4 6 11 -8 9 -16 14 -18 12 -3 -3 -15 -1 -27 3 -11 4 -34 5 -50 2z"/>
<path d="M2819 258 c-1 -7 -2 -22 -3 -32 0 -10 -9 -20 -19 -22 -25 -3 -25 -3
-20 -46 3 -20 11 -39 19 -42 8 -3 14 -1 14 4 0 6 -4 10 -10 10 -20 0 -10 48
15 66 29 21 37 38 29 59 -7 18 -24 20 -25 3z"/>
<path d="M268 251 c8 -5 15 -29 15 -60 2 -54 4 -57 27 -40 11 8 12 12 3 16 -7
2 -13 22 -13 43 0 25 -5 40 -16 44 -23 9 -31 7 -16 -3z"/>
<path d="M550 252 c0 -7 6 -15 14 -18 9 -3 12 -12 9 -21 -5 -13 0 -15 25 -11
18 2 33 0 36 -6 2 -8 7 -8 15 0 10 9 4 17 -23 33 -20 13 -41 19 -47 15 -6 -3
-15 0 -20 7 -7 11 -9 11 -9 1z"/>
<path d="M213 234 c0 -8 5 -14 11 -14 5 0 1 -7 -10 -16 -10 -8 -13 -12 -6 -9
7 4 22 -3 34 -17 l21 -23 -7 34 c-3 18 -6 39 -6 45 0 7 -8 12 -18 13 -10 1
-19 -5 -19 -13z"/>
<path d="M158 220 c-21 -23 -14 -31 16 -17 13 6 21 17 19 24 -7 17 -14 15 -35
-7z"/>
<path d="M526 225 c4 -9 0 -15 -10 -15 -18 0 -36 -30 -36 -59 0 -11 -8 -25
-17 -30 -27 -16 0 -29 45 -22 31 5 38 11 42 36 7 34 -8 105 -21 105 -5 0 -6
-7 -3 -15z m8 -47 c3 -13 1 -25 -5 -26 -6 -3 -6 -8 1 -17 8 -9 8 -15 0 -20
-18 -11 -30 5 -30 39 0 49 23 65 34 24z"/>
<path d="M711 232 c-1 -9 -8 -11 -23 -7 -21 7 -22 6 -7 -10 16 -16 19 -16 50
1 21 11 29 19 20 22 -7 2 -17 -1 -21 -8 -6 -9 -9 -9 -13 1 -4 11 -6 11 -6 1z"/>
<path d="M1053 223 c-7 -3 -13 -11 -13 -19 0 -9 -5 -12 -12 -8 -8 5 -9 0 -5
-17 5 -21 4 -22 -7 -7 -6 9 -17 14 -23 10 -15 -10 -27 -52 -14 -52 6 0 11 5
11 10 0 6 8 10 18 10 21 1 55 29 65 52 7 19 -1 28 -20 21z"/>
<path d="M2135 220 c3 -6 1 -10 -6 -10 -7 0 -5 -8 7 -19 10 -10 25 -16 33 -13
11 4 12 1 4 -13 -11 -19 -43 -30 -43 -14 0 4 -10 -2 -23 -14 -25 -24 -25 -30
1 -33 9 -1 26 -5 37 -9 18 -6 19 -5 3 7 -19 16 -12 31 16 36 12 2 16 -1 10
-10 -4 -7 2 -5 13 5 20 17 27 47 11 47 -5 0 -8 10 -6 22 2 19 -2 23 -30 25
-20 2 -31 -1 -27 -7z"/>
<path d="M767 202 c-15 -16 -15 -21 -2 -38 16 -22 20 -48 5 -39 -6 3 -7 -1 -4
-9 8 -21 13 -20 35 6 26 29 25 51 -1 43 -16 -5 -20 -2 -20 15 0 12 4 19 8 16
5 -3 9 1 9 9 0 20 -10 19 -30 -3z"/>
<path d="M2553 213 c-20 -8 -17 -92 3 -100 42 -16 73 57 39 91 -17 17 -22 18
-42 9z m35 -56 c2 -28 -1 -37 -12 -37 -12 0 -16 11 -16 41 0 52 24 48 28 -4z"/>
<path d="M920 195 c-15 -18 -76 -52 -66 -37 3 6 0 12 -8 15 -9 4 -13 0 -11
-11 2 -9 4 -24 4 -32 1 -12 3 -12 9 -2 5 8 16 10 27 6 12 -5 16 -4 11 4 -3 6
3 13 14 17 11 4 18 11 15 16 -4 5 -1 9 4 9 6 0 11 -13 11 -30 0 -23 -5 -30
-19 -30 -11 0 -26 -6 -33 -13 -11 -11 -27 -15 -75 -19 -7 -1 -14 -7 -17 -15
-4 -11 -1 -11 14 -3 11 6 43 12 70 13 27 1 45 4 40 5 -23 8 -8 18 20 14 31 -4
34 0 21 33 -5 11 -5 25 0 31 5 6 3 18 -4 28 -12 17 -14 17 -27 1z"/>
<path d="M1123 203 c-7 -2 -13 -9 -13 -14 0 -4 7 -6 15 -3 22 9 20 -64 -2 -88
-9 -11 -11 -18 -5 -18 15 0 15 -35 2 -61 -7 -13 -7 -19 0 -19 5 0 10 5 10 10
0 6 7 10 15 10 8 0 15 -4 15 -10 0 -24 15 -7 16 18 1 15 -1 21 -3 15 -9 -24
-30 -13 -29 15 1 20 7 28 24 30 30 5 54 -16 47 -39 -4 -11 -2 -19 3 -19 6 0
12 15 14 34 2 19 1 33 -3 30 -4 -2 -21 1 -38 7 -29 10 -31 14 -31 60 0 48 -6
55 -37 42z"/>
<path d="M2842 198 c-14 -14 -16 -48 -3 -48 8 0 23 51 17 57 -1 2 -8 -3 -14
-9z"/>
<path d="M2044 169 c7 -39 21 -57 23 -31 1 9 3 26 5 37 2 12 -4 21 -16 23 -17
4 -18 0 -12 -29z"/>
<path d="M2358 160 c-2 -28 1 -41 11 -45 18 -7 18 -7 13 43 -5 53 -19 55 -24
2z"/>
<path d="M1335 180 c-3 -5 -1 -10 6 -10 7 0 9 -10 7 -25 -3 -15 -1 -25 6 -25
8 0 10 13 8 35 -4 35 -15 45 -27 25z"/>
<path d="M1925 148 c4 -23 11 -52 15 -63 7 -18 8 -18 15 8 5 20 13 27 34 28
14 0 20 3 14 6 -7 2 -13 18 -13 34 0 17 -4 28 -9 25 -4 -3 -6 -17 -3 -31 2
-14 0 -25 -6 -25 -6 0 -12 12 -14 27 -2 18 -10 29 -22 31 -16 3 -17 -1 -11
-40z"/>
<path d="M2269 176 c15 -18 6 -37 -14 -29 -8 3 -15 1 -16 -3 0 -5 -2 -16 -4
-25 -2 -14 1 -14 21 -5 13 6 24 15 24 20 0 5 9 1 20 -9 15 -14 20 -15 20 -4 0
20 -32 63 -49 67 -12 3 -12 0 -2 -12z"/>
<path d="M589 169 c-11 -7 -10 -9 3 -9 9 0 23 -7 31 -15 12 -12 16 -12 20 -1
10 27 -26 43 -54 25z"/>
<path d="M210 160 c0 -5 5 -10 11 -10 6 0 9 -7 6 -15 -10 -24 11 -27 23 -4 7
12 8 19 2 15 -5 -3 -12 1 -16 9 -6 17 -26 21 -26 5z"/>
<path d="M560 145 c0 -16 145 -145 163 -145 25 0 21 12 -17 49 -21 21 -39 30
-47 26 -8 -5 -10 -4 -5 3 4 7 2 12 -4 12 -6 0 -8 5 -5 10 3 6 1 10 -4 10 -6 0
-11 -6 -11 -12 0 -8 -8 -4 -18 7 -23 27 -52 49 -52 40z"/>
<path d="M691 126 l-22 -23 32 -7 c45 -9 59 4 33 31 l-21 23 -22 -24z"/>
<path d="M1036 134 c-9 -23 -8 -27 9 -20 8 3 15 1 15 -3 0 -5 -6 -12 -12 -14
-7 -3 -3 -6 9 -6 16 -1 20 3 16 19 -8 30 -29 44 -37 24z"/>
<path d="M2849 133 c-1 -5 -1 -11 0 -15 0 -5 -3 -8 -9 -8 -16 0 -12 -17 6 -24
8 -3 12 -2 9 4 -3 6 -2 10 4 10 5 0 11 -5 13 -12 3 -8 6 -7 9 3 3 7 -3 22 -13
32 -10 9 -19 14 -19 10z"/>
<path d="M1388 90 c-3 -19 0 -30 8 -30 6 0 14 -9 17 -20 3 -11 10 -20 17 -20
7 0 3 12 -9 28 -12 18 -18 37 -14 50 3 12 1 22 -5 22 -5 0 -12 -14 -14 -30z"/>
<path d="M166 83 c-9 -13 -21 -21 -27 -18 -5 4 -9 1 -9 -5 0 -7 -15 -9 -40 -6
-22 3 -40 1 -40 -3 0 -4 6 -8 13 -8 6 -1 27 -3 45 -6 17 -2 32 0 32 6 0 5 6 5
14 -2 10 -9 15 -8 20 4 6 17 37 20 52 5 5 -5 15 -6 23 -1 9 6 1 11 -28 16 -44
7 -58 25 -16 20 31 -3 33 11 2 17 -16 3 -28 -3 -41 -19z"/>
<path d="M553 66 c3 -35 6 -39 30 -40 26 -2 26 -1 8 19 -10 11 -23 29 -29 40
-9 17 -11 14 -9 -19z"/>
<path d="M1811 89 c5 -26 -12 -61 -27 -55 -11 4 -12 2 -1 -14 14 -23 32 -27
24 -6 -3 8 0 17 7 19 15 6 18 54 4 63 -5 3 -8 0 -7 -7z"/>
<path d="M426 83 c-3 -4 -6 -21 -6 -39 0 -25 4 -32 18 -31 13 1 18 9 18 34 0
30 -16 49 -30 36z"/>
<path d="M982 73 c-6 -2 -10 -9 -7 -13 3 -5 13 -6 21 -3 10 4 15 1 14 -8 -7
-46 0 -49 31 -14 18 20 29 38 26 41 -9 10 -27 -6 -27 -24 0 -13 -3 -12 -16 6
-16 23 -20 24 -42 15z"/>
<path d="M1561 59 c0 -13 4 -33 9 -44 8 -19 9 -19 9 3 1 16 5 21 14 16 6 -4 3
3 -8 17 -11 13 -21 26 -22 28 -2 2 -3 -7 -2 -20z"/>
<path d="M1953 64 c-20 -21 -17 -58 4 -50 9 4 20 1 25 -6 5 -8 8 -2 8 17 0 21
-3 26 -9 16 -5 -7 -14 -10 -20 -6 -9 5 -9 10 0 21 15 19 8 26 -8 8z"/>
<path d="M2152 63 c-15 -3 -22 -10 -18 -18 3 -8 1 -17 -5 -20 -11 -7 -2 -25
12 -25 6 0 7 4 4 10 -3 5 -1 10 6 10 7 0 9 3 6 7 -4 3 0 15 10 25 9 10 14 17
12 17 -2 -1 -14 -4 -27 -6z"/>
<path d="M2608 62 c-9 -4 -26 -19 -38 -35 -17 -21 -18 -27 -6 -27 8 0 17 8 20
18 3 9 18 25 33 34 28 17 23 23 -9 10z"/>
<path d="M2966 55 c-9 -9 -16 -12 -16 -6 0 6 -4 11 -10 11 -5 0 -7 -7 -4 -15
4 -8 12 -15 20 -15 8 0 14 -4 14 -10 0 -5 7 -10 17 -10 15 0 15 2 -1 19 -13
15 -14 20 -4 24 7 2 10 7 7 11 -4 4 -14 0 -23 -9z"/>
<path d="M2196 41 c-10 -11 -16 -25 -14 -32 2 -7 14 1 27 19 24 35 15 44 -13
13z"/>
<path d="M2873 45 c-8 -9 -9 -16 -3 -20 6 -3 10 -3 10 2 0 4 4 2 9 -6 10 -16
51 -23 51 -8 0 5 -9 11 -20 14 -11 3 -20 12 -20 19 0 18 -11 17 -27 -1z"/>
</g>
</svg>
