<?xml version="1.0" standalone="no"?>
<!DOCTYPE svg PUBLIC "-//W3C//DTD SVG 20010904//EN"
 "http://www.w3.org/TR/2001/REC-SVG-20010904/DTD/svg10.dtd">
<svg version="1.0" xmlns="http://www.w3.org/2000/svg"
 width="300.000000pt" height="300.000000pt" viewBox="0 0 300.000000 300.000000"
 preserveAspectRatio="xMidYMid meet">
<metadata>
Created by potrace 1.10, written by Peter Selinger 2001-2011
</metadata>
<g transform="translate(0.000000,300.000000) scale(0.100000,-0.100000)"
fill="#000000" stroke="none">
<path d="M1932 2967 c-14 -14 -28 -51 -36 -91 -18 -84 -36 -112 -78 -121 -112
-22 -132 -48 -121 -157 10 -108 -28 -178 -147 -273 -76 -61 -113 -121 -113
-183 0 -50 19 -73 118 -135 60 -39 74 -70 74 -178 1 -62 5 -82 24 -110 33 -50
80 -70 144 -62 49 5 56 3 113 -33 66 -43 73 -63 46 -127 -23 -56 -47 -69 -138
-77 -72 -6 -61 -7 77 -8 88 0 156 1 150 3 -5 2 -23 6 -38 9 -15 4 -25 11 -22
16 8 13 102 13 110 -1 4 -6 25 -24 47 -40 l41 -29 -31 0 c-17 0 -42 -4 -55 -9
-21 -8 -26 -6 -30 10 -4 17 -15 19 -79 19 -40 1 -121 3 -180 6 l-107 6 -21
-33 c-11 -19 -30 -65 -41 -104 -11 -38 -36 -113 -56 -165 -70 -187 -92 -266
-94 -334 -1 -38 3 -72 9 -78 15 -15 175 32 251 73 30 16 56 28 57 26 5 -5 -55
-200 -65 -210 -5 -5 -79 -16 -163 -23 -160 -15 -319 -49 -391 -85 -131 -66
-154 -171 -56 -253 69 -58 227 -121 354 -142 83 -13 543 -48 690 -52 66 -1
149 -4 184 -5 77 -2 84 8 42 56 l-31 34 93 6 c105 7 218 34 327 79 171 70 200
93 200 161 0 52 -13 73 -63 98 -117 60 -251 90 -495 110 -120 10 -155 16 -161
28 -12 24 -44 182 -38 187 3 3 24 -5 48 -17 69 -35 199 -89 215 -89 8 0 23 9
34 20 39 39 19 192 -50 380 -18 47 -42 125 -55 174 -38 138 -58 158 -178 170
-85 8 -111 25 -131 83 -9 26 -16 47 -16 48 0 1 18 7 40 14 47 14 100 58 131
108 25 41 71 63 128 63 91 0 122 43 118 163 l-2 77 63 58 c57 53 62 61 62 100
0 60 -18 90 -99 161 -82 73 -91 99 -67 181 9 30 16 64 16 76 0 33 -43 78 -87
93 -67 22 -83 41 -92 106 -6 42 -14 64 -30 76 -28 23 -84 39 -134 39 -54 0
-73 14 -102 69 -33 67 -73 80 -113 38z m91 -75 c38 -54 65 -68 150 -77 70 -8
92 -26 101 -86 4 -24 12 -51 19 -60 18 -24 87 -69 106 -69 9 0 25 -12 35 -27
18 -25 18 -29 3 -97 -17 -75 -14 -124 9 -133 8 -3 12 -9 9 -13 -3 -5 29 -42
70 -83 65 -65 75 -79 75 -110 0 -27 -7 -42 -31 -64 -17 -15 -41 -38 -52 -51
-14 -15 -27 -20 -41 -16 -18 6 -19 5 -8 -9 10 -12 10 -16 0 -20 -10 -4 -11 -7
0 -18 7 -8 12 -40 12 -77 0 -58 -3 -66 -31 -93 -23 -22 -37 -27 -58 -23 -46
10 -111 -26 -155 -84 -37 -48 -102 -92 -179 -121 -25 -10 -29 -7 -60 34 -32
42 -34 47 -24 84 10 37 9 43 -13 66 -13 14 -30 25 -38 25 -10 0 -6 -8 12 -25
24 -22 35 -63 19 -78 -11 -12 -32 14 -39 49 -7 37 -24 37 -24 -1 0 -23 -1 -23
-82 -18 -65 4 -88 10 -106 26 -22 21 -44 78 -37 100 10 34 14 98 6 93 -5 -4
-12 7 -16 24 -8 39 -45 83 -93 111 -64 38 -82 60 -82 97 0 48 26 86 117 168
99 90 134 151 141 246 4 54 9 71 23 79 11 5 19 21 19 35 0 18 8 27 28 34 53
20 75 35 96 67 15 24 29 33 48 33 17 0 31 8 38 19 15 29 13 39 -14 62 -25 21
-25 49 -1 49 7 0 29 -22 48 -48z m-40 -33 c3 -12 0 -19 -9 -19 -8 0 -14 -6
-14 -12 0 -7 -5 -5 -11 5 -6 9 -14 15 -20 12 -5 -4 -9 -1 -9 4 0 6 5 11 11 11
5 0 8 4 5 9 -3 5 5 9 18 9 15 0 26 -7 29 -19z m115 -1334 c2 -2 -4 -10 -13
-19 -15 -15 -15 -16 2 -17 16 0 16 -1 -2 -9 -28 -12 -87 -12 -105 1 -11 7 -1
8 35 5 50 -5 50 -5 10 5 -49 12 -69 29 -34 30 22 0 22 1 4 9 -12 5 4 6 40 3
33 -3 61 -7 63 -8z m-288 -164 c0 -4 34 -8 76 -9 42 -2 84 -6 93 -11 9 -5 28
-7 44 -5 15 1 27 -2 27 -8 0 -7 6 -6 15 2 8 7 47 16 87 21 91 11 100 13 116
22 6 5 12 4 12 -1 0 -5 13 -12 30 -15 36 -8 49 -32 84 -153 14 -50 28 -98 31
-105 4 -10 -2 -15 -17 -16 -13 -1 -24 -7 -27 -14 -2 -8 -6 -7 -12 2 -8 12 -11
11 -19 -1 -8 -12 -10 -13 -10 -1 0 8 -7 23 -16 32 -21 23 -47 11 -69 -31 -11
-21 -23 -30 -41 -30 -31 0 -42 -25 -21 -48 8 -9 18 -29 22 -44 19 -76 159
-113 180 -47 4 10 2 34 -3 53 -12 41 -1 56 40 56 25 0 29 -5 48 -70 38 -127
39 -220 2 -220 -9 0 -62 20 -117 45 -55 25 -108 45 -119 45 -46 0 -57 -69 -28
-174 22 -77 50 -98 140 -107 37 -4 119 -12 182 -18 130 -14 238 -37 257 -57 8
-7 20 -11 28 -8 30 12 135 -62 135 -95 0 -22 -65 -69 -155 -112 -129 -61 -188
-78 -309 -90 -120 -12 -136 -19 -136 -62 l0 -33 -157 2 c-87 0 -203 6 -258 12
-55 6 -161 13 -235 16 -225 9 -363 41 -477 112 -124 77 -149 130 -90 192 65
70 182 100 539 137 73 8 102 35 127 124 33 115 33 117 8 146 l-23 27 -63 -27
c-84 -35 -182 -65 -193 -59 -34 21 45 304 85 304 7 0 22 -6 32 -14 18 -13 18
-16 2 -66 -16 -50 -16 -54 -1 -72 34 -36 143 -12 166 36 9 21 8 38 -7 86 -20
65 -55 111 -55 72 0 -11 9 -49 20 -83 10 -35 18 -65 16 -67 -7 -6 -118 -33
-122 -29 -2 2 12 32 31 68 41 76 42 79 13 79 -19 0 -20 -2 -8 -10 13 -8 12
-10 -3 -10 -21 0 -93 35 -102 51 -4 6 7 3 25 -6 20 -10 29 -12 25 -4 -6 9 -1
10 21 4 53 -14 67 -11 74 16 l7 26 -41 -14 c-28 -10 -42 -11 -44 -4 -2 6 -7 9
-11 6 -15 -9 -10 60 9 129 30 106 61 143 101 118 24 -16 36 -15 21 0 -17 17
-15 29 3 22 8 -4 15 -9 15 -13z m250 10 c0 -10 -24 -21 -46 -21 -8 0 -14 4
-14 9 0 8 10 12 53 20 4 0 7 -3 7 -8z m250 -299 c1 -9 14 -51 30 -91 16 -41
28 -77 25 -79 -2 -2 -29 4 -60 13 -52 15 -56 18 -50 38 4 12 15 50 24 84 15
57 31 74 31 35z m155 -12 c7 -12 -39 -35 -90 -45 -50 -9 -42 1 16 19 l44 14
-50 -4 -50 -4 45 14 c57 17 77 19 85 6z m-239 -41 c10 -17 -13 -36 -27 -22
-12 12 -4 33 11 33 5 0 12 -5 16 -11z"/>
<path d="M2056 2691 c-15 -17 -15 -20 2 -41 13 -16 24 -21 39 -16 29 9 37 35
17 57 -22 24 -36 24 -58 0z m49 -23 c-6 -29 -11 -32 -28 -17 -19 18 -10 48 13
42 12 -3 17 -12 15 -25z"/>
<path d="M1887 2612 c-23 -25 -21 -50 6 -73 29 -24 39 -24 66 5 20 21 21 27
10 48 -22 42 -55 50 -82 20z m59 -18 c-3 -8 -1 -14 4 -14 6 0 10 -4 10 -10 0
-5 -6 -10 -14 -10 -8 0 -17 -8 -19 -17 -4 -15 -6 -14 -12 5 -5 14 -13 21 -21
18 -8 -3 -14 -1 -14 4 0 6 5 10 10 10 6 0 10 6 10 13 0 6 12 13 26 13 18 2 24
-2 20 -12z"/>
<path d="M2214 2575 c-7 -17 4 -37 17 -30 5 4 9 -5 9 -18 0 -17 -7 -26 -21
-30 -16 -4 -20 -12 -17 -34 2 -24 8 -29 38 -33 21 -3 36 -11 36 -20 1 -8 2
-25 3 -37 1 -16 6 -20 21 -16 19 5 20 6 3 19 -13 9 -14 13 -4 14 11 0 11 3 0
17 -13 15 -12 15 12 0 25 -17 26 -16 37 8 16 35 16 35 -15 35 -27 -1 -28 -1
-8 -17 20 -15 19 -15 -5 -9 -14 3 -30 6 -36 6 -6 0 -11 13 -10 30 1 16 4 30 7
30 4 0 15 12 24 27 17 25 17 26 -1 20 -18 -7 -18 -6 -1 7 20 15 9 29 -30 39
-17 4 -23 1 -23 -12 0 -10 -7 -18 -15 -18 -10 0 -13 6 -9 19 6 21 -4 25 -12 3z
m73 -37 c-3 -41 -34 -53 -34 -14 0 14 3 23 7 21 4 -3 10 2 14 10 9 25 16 17
13 -17z"/>
<path d="M2186 2562 c-4 -7 -13 -9 -19 -5 -7 3 -4 -3 6 -14 16 -18 16 -21 2
-27 -11 -4 -14 -2 -9 6 4 7 3 8 -4 4 -7 -4 -12 -1 -12 6 -1 14 -23 -19 -26
-39 -2 -13 53 -39 63 -29 3 3 1 6 -5 6 -7 0 -21 9 -32 20 l-20 20 40 -6 c43
-7 45 -4 31 46 -5 17 -9 21 -15 12z"/>
<path d="M2328 2531 c-10 -10 -18 -21 -18 -24 0 -4 8 -4 18 0 10 3 5 -5 -12
-21 -33 -29 -32 -38 3 -29 17 4 20 8 9 15 -9 7 -5 8 13 5 25 -3 25 -2 13 21
-7 13 -10 31 -7 38 7 18 2 17 -19 -5z"/>
<path d="M2118 2436 c3 -12 11 -28 18 -37 8 -9 11 -19 7 -22 -3 -4 -2 -7 4 -7
6 0 13 11 15 25 5 22 2 25 -16 20 -20 -6 -20 -5 3 14 13 12 19 21 15 22 -5 0
-18 2 -30 3 -17 2 -20 -2 -16 -18z"/>
<path d="M2175 2409 c-4 -11 -4 -23 -1 -26 3 -4 1 -12 -5 -20 -6 -7 -10 -13
-8 -13 2 0 19 -4 37 -9 31 -9 33 -8 26 11 -4 14 -2 18 5 14 6 -4 11 -1 11 8 0
8 3 21 6 30 3 9 2 16 -3 16 -5 0 -15 -16 -23 -35 -13 -32 -30 -47 -30 -26 0 5
-3 17 -7 27 -5 13 -3 15 7 9 9 -5 11 -4 6 3 -4 7 -2 12 3 12 6 0 11 5 11 10 0
19 -29 10 -35 -11z"/>
<path d="M1965 2350 c-16 -17 -17 -23 -5 -45 7 -13 18 -26 25 -29 20 -7 55 23
55 48 0 46 -43 61 -75 26z m43 -6 c5 3 12 -2 14 -12 6 -21 -23 -54 -30 -34 -2
7 -10 12 -18 12 -8 0 -14 5 -14 10 0 6 5 10 10 10 6 0 10 8 10 18 0 13 2 14 9
3 5 -7 13 -11 19 -7z"/>
<path d="M2510 2210 c0 -5 -13 -10 -29 -10 -22 0 -32 -7 -44 -32 -16 -32 -15
-34 11 -55 34 -28 36 -28 66 2 23 23 26 58 5 70 -4 3 -6 12 -2 20 3 8 2 15 -1
15 -3 0 -6 -4 -6 -10z m-15 -34 c14 6 17 4 12 -9 -3 -9 -2 -17 3 -17 6 0 10
-4 10 -10 0 -5 -6 -10 -14 -10 -8 0 -17 -8 -19 -17 -4 -15 -6 -14 -12 5 -6 17
-13 21 -29 17 -19 -6 -20 -5 -3 8 9 8 17 23 17 33 0 14 3 15 8 6 5 -8 16 -10
27 -6z"/>
<path d="M1707 2138 c-89 -82 -22 -222 97 -204 32 5 46 14 64 39 30 45 28 58
-4 24 -48 -52 -103 -56 -145 -10 -30 31 -32 92 -5 122 24 27 74 41 105 29 21
-7 22 -7 11 7 -20 24 -94 20 -123 -7z"/>
<path d="M2252 2138 c-19 -19 -14 -45 10 -62 20 -14 24 -14 40 1 30 27 17 73
-22 73 -9 0 -21 -5 -28 -12z m52 -24 c3 -8 1 -14 -4 -14 -6 0 -10 -8 -10 -17
0 -15 -2 -14 -18 3 -23 24 -18 54 8 47 10 -3 21 -11 24 -19z"/>
<path d="M1773 2118 c-12 -6 -27 -24 -34 -40 -10 -25 -9 -33 8 -56 27 -37 84
-43 107 -11 8 13 13 25 9 28 -3 3 -8 0 -10 -6 -6 -16 -43 -17 -43 -2 0 5 -4 8
-9 4 -6 -3 -15 4 -21 15 -7 13 -7 20 0 20 5 0 9 5 8 12 -2 6 7 17 20 23 20 11
21 13 7 19 -9 3 -17 6 -18 5 -1 0 -12 -5 -24 -11z"/>
<path d="M2099 2084 c-16 -20 -1 -48 29 -52 27 -4 49 33 31 54 -15 19 -43 18
-60 -2z m51 -13 c0 -26 -17 -36 -33 -19 -18 17 -10 38 14 38 12 0 19 -7 19
-19z"/>
<path d="M2099 1948 c-20 -38 -36 -50 -43 -33 -8 22 -29 18 -55 -9 l-22 -24
20 -38 c12 -21 21 -33 21 -26 0 6 5 12 10 12 6 0 10 -8 10 -17 0 -10 11 3 23
29 17 35 26 45 34 37 8 -8 17 -8 31 0 30 16 37 49 16 72 -22 25 -31 24 -45 -3z
m37 -3 c13 -13 13 -17 -2 -40 -18 -28 -29 -32 -37 -11 -5 13 12 66 21 66 2 0
10 -7 18 -15z m-84 -55 c19 -17 19 -20 5 -20 -9 0 -17 -7 -17 -15 0 -20 -10
-19 -25 2 -10 13 -10 21 -1 35 13 22 12 22 38 -2z"/>
<path d="M2281 1891 c-16 -30 -13 -45 12 -69 30 -29 58 -27 80 3 16 22 16 29
5 53 -17 36 -81 45 -97 13z m63 -5 c12 5 15 2 10 -10 -3 -9 -1 -16 5 -16 6 0
11 -4 11 -10 0 -5 -7 -10 -15 -10 -8 0 -15 -7 -15 -15 0 -23 -17 -18 -23 6 -4
15 -11 20 -21 16 -9 -4 -16 -2 -16 2 0 5 7 11 15 15 9 3 12 12 8 23 -6 15 -4
16 9 5 8 -7 23 -10 32 -6z"/>
<path d="M1737 1822 c-22 -24 -21 -35 3 -57 41 -37 97 24 58 63 -17 17 -42 15
-61 -6z m57 -19 c9 -22 -26 -47 -37 -27 -5 8 -12 12 -18 9 -13 -9 -11 3 3 18
17 18 45 18 52 0z"/>
<path d="M2112 1760 c-38 -36 -21 -97 25 -88 24 4 48 50 39 74 -7 16 -10 12
-20 -21 -7 -23 -18 -40 -26 -40 -19 0 -26 44 -9 59 9 8 10 8 4 -3 -6 -10 -4
-12 4 -7 7 5 10 10 7 14 -3 3 2 11 12 18 14 11 15 13 1 14 -8 0 -25 -9 -37
-20z"/>
<path d="M1835 1332 c6 -5 41 -12 78 -15 42 -3 65 -1 60 4 -5 5 -41 12 -79 15
-46 5 -66 3 -59 -4z"/>
<path d="M2120 1333 c-14 -3 -29 -9 -34 -13 -12 -12 136 0 149 11 9 9 -68 10
-115 2z"/>
<path d="M2120 1182 c-39 -32 -4 -86 41 -62 24 13 24 42 0 64 -17 15 -20 15
-41 -2z m41 -22 c3 -8 0 -21 -8 -28 -11 -11 -15 -11 -28 2 -8 8 -12 21 -9 29
7 19 37 17 45 -3z"/>
<path d="M1960 1032 c0 -5 7 -15 15 -22 8 -7 13 -16 10 -20 -3 -5 4 -6 15 -3
11 3 20 6 20 7 0 1 -13 12 -30 24 -16 13 -30 19 -30 14z"/>
<path d="M2116 1005 c19 -30 22 -118 4 -140 -7 -8 -19 -15 -27 -15 -21 0 -50
32 -56 60 -4 22 -4 21 -6 -6 -2 -57 59 -84 99 -44 14 14 20 33 20 65 0 47 -23
105 -40 105 -6 0 -3 -11 6 -25z"/>
<path d="M2083 984 c1 -19 -5 -39 -11 -43 -9 -5 -10 -15 -4 -31 l9 -24 12 21
c13 26 15 99 2 107 -5 3 -9 -10 -8 -30z"/>
<path d="M2099 904 c-13 -27 -14 -34 -3 -34 8 0 16 11 20 25 10 40 0 45 -17 9z"/>
<path d="M2114 721 c4 -6 14 -11 22 -11 15 0 15 -17 -1 -36 -7 -8 -14 -8 -27
0 -12 7 -14 12 -5 18 6 4 8 10 4 14 -12 12 -28 -11 -21 -29 10 -27 54 -34 71
-12 11 16 11 22 -1 39 -14 21 -54 38 -42 17z"/>
<path d="M1801 526 c-28 -33 22 -83 55 -55 8 7 14 24 12 38 -2 20 -9 27 -29
29 -14 2 -31 -4 -38 -12z m52 -16 c2 -9 -2 -21 -10 -28 -7 -8 -13 -8 -13 -2 0
5 -7 10 -15 10 -8 0 -15 5 -15 10 0 6 5 10 11 10 5 0 8 4 4 9 -3 6 3 9 14 8
11 0 22 -8 24 -17z"/>
<path d="M2108 424 c-11 -23 -10 -29 11 -45 22 -18 25 -18 42 -3 22 20 24 45
7 62 -20 20 -48 14 -60 -14z m54 -7 c3 -6 0 -17 -8 -24 -12 -12 -16 -12 -29 1
-10 9 -11 17 -5 21 6 4 8 11 5 16 -8 12 28 -2 37 -14z"/>
<path d="M1576 423 c-4 -9 -2 -21 3 -26 6 -6 9 -2 8 9 -1 11 6 20 17 22 15 3
18 0 13 -18 -4 -16 -3 -20 5 -12 15 15 2 42 -21 42 -10 0 -22 -8 -25 -17z"/>
<path d="M2411 412 c-11 -20 3 -52 16 -38 4 5 3 11 -4 13 -7 2 -9 11 -6 18 4
11 10 12 24 4 11 -5 19 -6 19 0 0 7 -23 21 -35 21 -3 0 -9 -8 -14 -18z"/>
<path d="M2616 404 c-9 -8 -16 -19 -16 -24 0 -13 32 -42 39 -35 3 4 -1 12 -10
18 -9 7 -14 18 -12 25 6 17 40 15 47 -3 3 -8 1 -15 -4 -15 -6 0 -10 -7 -10
-16 0 -14 3 -14 15 -4 18 15 19 42 3 58 -16 16 -33 15 -52 -4z"/>
<path d="M1340 390 c0 -5 6 -10 14 -10 19 0 30 -32 14 -42 -18 -11 -28 -10
-28 3 0 5 -5 7 -10 4 -7 -4 -8 3 -4 21 5 19 4 25 -5 20 -17 -11 -13 -41 7 -59
16 -15 20 -15 40 -1 27 19 28 50 3 64 -25 13 -31 13 -31 0z"/>
<path d="M2892 373 c-11 -21 -5 -43 11 -43 8 0 8 3 0 11 -15 15 -5 39 13 32
10 -3 12 -13 8 -27 -5 -17 -4 -19 7 -8 10 9 11 17 3 29 -15 24 -31 27 -42 6z"/>
<path d="M2470 221 c0 -5 8 -12 17 -15 14 -6 15 -9 4 -16 -8 -4 -21 -6 -29 -2
-10 3 -13 1 -8 -6 10 -16 43 -15 49 1 5 15 -10 47 -23 47 -6 0 -10 -4 -10 -9z"/>
<path d="M1097 2860 l-259 -5 -13 -25 -13 -24 -229 -1 -228 0 -34 -52 -34 -53
-123 0 c-67 0 -125 4 -129 10 -8 13 -35 1 -35 -16 0 -17 24 -29 39 -20 6 4 62
8 125 9 l115 2 -22 -35 c-52 -86 -41 -80 -131 -80 -50 0 -87 5 -94 12 -16 16
-37 -4 -28 -27 4 -12 12 -15 24 -10 9 4 56 7 103 6 l86 -2 40 66 41 67 216 2
c119 0 216 -1 216 -4 0 -4 -5 -11 -12 -18 -15 -15 -154 -16 -163 -2 -5 8 -11
7 -21 -1 -25 -21 -3 -25 97 -21 87 3 98 6 108 25 11 20 19 22 89 20 42 0 85
-4 96 -9 25 -10 40 16 21 36 -12 11 -17 12 -27 2 -7 -7 -41 -12 -85 -12 l-73
0 16 26 17 25 296 -2 c232 -1 296 1 296 11 0 10 -49 12 -222 11 -215 -2 -221
-2 -216 17 6 23 -14 39 -30 23 -13 -13 -87 -15 -87 -2 0 30 33 34 276 33 134
-1 249 -4 254 -7 14 -8 30 3 30 21 0 8 -8 13 -17 12 -10 -1 -134 -5 -276 -8z
m-304 -81 c-7 -7 -54 -10 -137 -8 -107 3 -126 2 -126 -11 0 -13 18 -14 120
-11 66 2 120 -1 120 -5 0 -5 -7 -17 -14 -27 -12 -16 -33 -17 -229 -15 l-216 3
27 42 27 43 219 0 c161 0 217 -3 209 -11z m127 1 c11 -7 -3 -10 -47 -10 -36 0
-63 4 -63 10 0 13 90 13 110 0z"/>
<path d="M142 2148 c1 -57 3 -82 5 -55 l4 47 45 0 c24 0 44 4 44 9 0 5 -20 6
-45 3 l-45 -5 0 42 0 41 50 0 c28 0 50 5 50 10 0 6 -25 10 -55 10 l-55 0 2
-102z"/>
<path d="M293 2192 c-36 -23 -38 -113 -3 -132 25 -14 90 -13 90 1 0 7 -10 9
-26 5 -30 -8 -74 16 -74 39 0 10 15 15 53 17 49 3 52 4 49 28 -2 14 -9 31 -14
38 -11 13 -56 16 -75 4z m68 -33 c9 -17 6 -19 -36 -19 -42 0 -45 2 -35 19 18
34 52 34 71 0z"/>
<path d="M420 2123 c0 -42 4 -73 10 -73 6 0 10 27 10 60 0 50 3 61 21 70 34
19 49 -4 49 -71 0 -33 4 -59 10 -59 6 0 10 27 10 60 0 47 4 61 18 69 35 19 52
-4 52 -69 0 -33 4 -60 10 -60 13 0 13 106 0 131 -12 21 -64 27 -75 9 -5 -8
-11 -8 -20 0 -7 6 -31 9 -54 8 l-41 -3 0 -72z"/>
<path d="M660 2125 c0 -43 4 -75 10 -75 6 0 10 32 10 75 0 43 -4 75 -10 75 -6
0 -10 -32 -10 -75z"/>
<path d="M720 2123 c0 -42 4 -73 10 -73 6 0 10 24 10 53 0 71 9 82 63 78 14
-1 17 -11 17 -66 0 -37 4 -65 10 -65 16 0 12 125 -3 139 -8 6 -35 10 -60 9
l-47 -2 0 -73z"/>
<path d="M880 2125 c0 -43 4 -75 10 -75 6 0 10 32 10 75 0 43 -4 75 -10 75 -6
0 -10 -32 -10 -75z"/>
<path d="M942 2125 c-2 -47 1 -75 8 -75 6 0 10 23 10 55 0 46 4 57 24 70 46
30 74 -7 63 -86 -3 -21 -1 -39 4 -39 14 0 11 124 -3 138 -7 7 -24 12 -38 12
-14 0 -31 -5 -38 -12 -9 -9 -12 -9 -12 0 0 7 -3 12 -8 12 -4 0 -8 -34 -10 -75z"/>
<path d="M1116 2178 c-9 -12 -16 -36 -16 -53 0 -49 25 -75 70 -75 21 0 41 4
45 9 3 6 -12 9 -35 8 -27 -1 -44 4 -50 13 -20 31 -11 40 40 40 46 0 50 2 50
23 0 53 -75 77 -104 35z m84 -23 c0 -11 -12 -15 -40 -15 -40 0 -46 5 -32 26
18 27 72 19 72 -11z"/>
<path d="M330 1830 l0 -100 55 0 c30 0 55 5 55 10 0 6 -20 10 -45 10 l-45 0 0
40 0 40 46 0 c25 0 43 4 40 9 -3 5 -24 7 -46 4 l-40 -6 0 37 0 36 45 0 c25 0
45 5 45 10 0 6 -25 10 -55 10 l-55 0 0 -100z"/>
<path d="M823 1875 c-16 -12 -23 -12 -26 -2 -3 6 -6 -23 -6 -65 -1 -47 3 -78
9 -78 6 0 9 23 8 55 -2 54 6 74 33 78 16 3 25 20 12 24 -5 2 -18 -4 -30 -12z"/>
<path d="M481 1800 l2 -75 6 58 c5 42 12 63 26 73 43 32 65 8 65 -68 0 -32 4
-58 10 -58 13 0 13 91 0 125 -9 24 -14 26 -60 23 l-50 -3 1 -75z"/>
<path d="M646 1858 c-22 -31 -20 -84 4 -108 21 -21 84 -28 95 -10 4 6 -9 10
-32 10 -40 0 -63 14 -63 37 0 9 16 13 50 13 46 0 50 2 50 24 0 54 -74 78 -104
34z m72 0 c24 -24 13 -38 -28 -38 -43 0 -49 9 -24 34 19 19 36 20 52 4z"/>
<path d="M902 1868 c-14 -14 -16 -54 -4 -62 13 -8 2 -63 -14 -77 -18 -15 -18
-24 2 -43 33 -34 124 -12 124 29 0 20 -40 45 -73 45 -35 0 -32 23 4 28 35 5
49 21 49 53 0 50 24 32 51 -38 29 -75 26 -100 -12 -121 l-24 -13 29 3 c26 3
32 11 67 102 44 112 42 106 30 106 -4 0 -18 -27 -30 -61 -13 -33 -25 -59 -27
-56 -2 2 -12 28 -22 58 l-19 54 -59 3 c-37 2 -64 -2 -72 -10z m67 -15 c12 -23
-4 -53 -29 -53 -25 0 -41 29 -29 52 12 23 45 23 58 1z m18 -129 c13 -35 -62
-60 -87 -29 -10 12 -10 18 0 30 17 21 79 20 87 -1z"/>
<path d="M1200 1758 c0 -28 3 -48 7 -44 10 10 10 96 1 96 -5 0 -8 -23 -8 -52z"/>
<path d="M1243 1783 c-8 -2 -12 -20 -11 -41 l1 -37 4 33 c2 17 8 32 14 32 5 0
12 0 17 0 4 1 10 -14 14 -32 6 -31 6 -31 5 7 -2 40 -15 51 -44 38z"/>
<path d="M950 1435 c0 -63 4 -105 10 -105 6 0 10 24 10 53 0 71 9 82 63 78 14
-1 17 -11 17 -66 0 -37 4 -65 10 -65 6 0 10 28 10 64 0 75 -13 91 -65 83 -34
-6 -35 -5 -35 29 0 19 -4 34 -10 34 -6 0 -10 -42 -10 -105z"/>
<path d="M510 1520 c0 -5 14 -10 30 -10 l30 0 0 -90 c0 -53 4 -90 10 -90 6 0
10 37 10 90 l0 90 30 0 c17 0 30 5 30 10 0 6 -30 10 -70 10 -40 0 -70 -4 -70
-10z"/>
<path d="M687 1463 c-33 -37 -30 -101 7 -125 17 -12 86 -9 86 3 0 7 -11 8 -29
4 -22 -5 -35 -1 -50 14 -32 32 -26 40 32 43 49 3 52 4 49 28 -2 14 -9 31 -14
38 -15 18 -62 15 -81 -5z m81 -31 c2 -8 -12 -12 -43 -12 -42 0 -45 2 -35 19 5
11 15 21 22 24 15 5 50 -14 56 -31z"/>
<path d="M837 1463 c-33 -37 -30 -101 7 -125 17 -12 76 -9 76 3 0 7 -10 9 -25
5 -17 -4 -31 0 -45 14 -40 40 -16 104 39 102 17 0 31 4 31 9 0 16 -66 10 -83
-8z"/>
<path d="M874 1110 c0 -63 1 -89 3 -57 2 31 2 83 0 115 -2 31 -3 5 -3 -58z"/>
<path d="M751 1189 c-5 -13 -23 -59 -40 -102 -17 -43 -31 -80 -31 -83 0 -14
22 11 34 39 11 28 18 32 51 32 34 0 40 -4 49 -32 13 -37 26 -53 26 -32 0 14
-67 189 -76 198 -2 2 -8 -7 -13 -20z m39 -86 c0 -8 -12 -13 -30 -13 l-30 0 15
36 c8 20 15 39 16 43 1 10 28 -53 29 -66z"/>
<path d="M910 1153 c0 -24 38 -137 47 -140 6 -2 20 22 31 54 l19 58 18 -58
c11 -31 23 -56 29 -54 5 2 18 32 28 68 21 73 22 82 9 74 -5 -3 -15 -30 -22
-60 -7 -30 -15 -53 -18 -50 -3 4 -12 29 -21 56 -8 28 -19 50 -25 49 -5 -1 -16
-23 -23 -49 -20 -67 -27 -68 -41 -7 -7 31 -17 58 -22 61 -5 4 -9 3 -9 -2z"/>
<path d="M1143 1153 c-26 -10 -12 -20 25 -19 31 1 37 -2 40 -21 3 -20 -1 -23
-32 -23 -35 0 -66 -21 -66 -44 0 -26 38 -49 67 -41 15 5 34 7 41 6 18 -3 16
99 -4 127 -14 21 -43 27 -71 15z m67 -91 c0 -25 -19 -42 -47 -42 -31 0 -42 29
-18 46 28 20 65 18 65 -4z"/>
<path d="M1250 1152 c0 -5 12 -40 26 -78 20 -54 23 -73 15 -91 -6 -13 -17 -23
-26 -23 -8 0 -15 -5 -15 -11 0 -6 10 -9 23 -7 17 2 29 20 54 84 18 45 35 95
39 110 11 46 -11 16 -32 -43 -10 -29 -21 -53 -24 -53 -3 0 -14 25 -25 56 -17
50 -35 79 -35 56z"/>
<path d="M1406 1147 c-26 -19 -16 -49 24 -69 20 -10 35 -25 35 -35 0 -15 -8
-18 -42 -17 -48 1 -57 -12 -16 -22 34 -9 78 15 78 41 0 12 -15 28 -40 42 -50
28 -52 47 -5 50 54 2 56 3 40 13 -21 14 -53 12 -74 -3z"/>
<path d="M195 754 c-92 -23 -195 -73 -195 -96 0 -11 3 -18 8 -16 144 74 219
93 367 92 103 0 131 -4 198 -27 131 -46 240 -119 323 -218 49 -59 58 -79 44
-93 -8 -8 -13 -7 -20 4 -5 9 -27 39 -50 68 -35 43 -45 50 -57 41 -12 -10 -9
-17 16 -43 42 -44 95 -132 119 -197 23 -63 47 -207 40 -244 -4 -19 -1 -25 13
-25 16 0 19 8 19 58 0 75 -23 181 -54 248 -22 47 -23 56 -10 61 20 7 23 4 49
-69 13 -37 29 -64 39 -66 21 -5 20 6 -9 84 -59 158 -192 302 -347 378 -51 25
-120 53 -153 61 -75 19 -259 18 -340 -1z"/>
<path d="M130 661 c-91 -37 -130 -62 -130 -83 0 -15 9 -13 63 16 34 19 81 40
105 47 43 13 47 16 34 35 -5 8 -27 3 -72 -15z"/>
<path d="M243 625 c-113 -25 -243 -98 -243 -136 0 -18 4 -17 38 10 76 61 224
110 333 111 66 0 190 -34 262 -72 167 -89 286 -290 287 -485 0 -40 4 -53 15
-53 22 0 20 99 -5 194 -28 110 -74 190 -155 272 -141 142 -339 201 -532 159z"/>
<path d="M397 573 c-4 -3 -7 -32 -7 -63 0 -47 3 -56 18 -57 15 -1 21 10 29 55
6 31 9 59 7 61 -9 9 -19 -12 -26 -57 -7 -45 -7 -44 -3 11 3 53 -2 67 -18 50z"/>
<path d="M456 548 c-18 -89 -18 -95 10 -102 32 -8 36 -4 54 53 8 24 16 38 18
32 2 -6 -3 -30 -12 -53 -9 -22 -16 -42 -14 -43 10 -8 50 -26 52 -23 1 2 14 23
30 47 17 26 24 47 19 52 -6 6 -17 -6 -28 -31 -21 -46 -42 -67 -23 -23 6 15 15
32 20 38 17 20 6 34 -38 49 -52 18 -64 15 -65 -17 0 -12 -5 -31 -10 -42 -7
-15 -8 -10 -4 18 4 21 9 45 12 53 3 8 0 14 -6 14 -6 0 -13 -10 -15 -22z m44
-64 c-17 -49 -24 -36 -9 17 6 24 14 38 16 32 3 -7 -1 -29 -7 -49z m55 -4 c-24
-52 -31 -45 -9 9 9 23 19 39 22 37 3 -3 -3 -24 -13 -46z"/>
<path d="M295 509 c-62 -10 -128 -35 -179 -67 -49 -31 -116 -98 -116 -118 0
-8 24 10 54 40 67 67 163 115 248 124 35 4 63 12 66 20 4 13 -1 13 -73 1z"/>
<path d="M601 451 l-30 -49 26 -18 c26 -17 27 -17 64 27 21 24 39 41 39 37 0
-5 -16 -26 -36 -48 -50 -55 -34 -65 18 -12 l42 41 -24 26 c-32 34 -43 32 -74
-15 -14 -22 -29 -40 -32 -40 -7 0 3 17 32 57 26 34 29 43 15 43 -5 0 -23 -22
-40 -49z m70 2 c-14 -24 -64 -82 -55 -63 10 21 54 80 60 80 3 0 0 -8 -5 -17z"/>
<path d="M262 454 c-91 -24 -204 -96 -183 -117 6 -6 -1 -24 -21 -51 -37 -52
-58 -101 -57 -135 1 -24 2 -24 9 6 7 30 43 97 74 138 15 20 15 20 37 -2 l22
-22 36 28 c45 35 111 61 156 61 33 0 35 2 35 34 l0 33 50 -8 c60 -9 127 -38
176 -75 l36 -28 -26 -18 -25 -19 34 -45 c36 -47 55 -98 55 -151 l0 -33 56 0
57 0 -7 57 c-11 97 -90 241 -123 228 -9 -3 -30 5 -47 18 -51 39 -108 64 -174
77 -40 8 -62 17 -62 26 0 18 -39 17 -108 -2z m58 -43 c0 -5 -15 -13 -32 -16
-18 -4 -55 -19 -83 -34 -27 -14 -53 -27 -57 -29 -19 -9 -6 25 15 37 58 37 157
63 157 42z m381 -192 c29 -58 39 -101 25 -109 -8 -4 -56 97 -73 154 -12 40 21
9 48 -45z"/>
<path d="M680 374 c0 -3 14 -23 30 -44 55 -70 100 -194 100 -277 0 -22 -4 -24
-37 -21 -30 2 -38 -1 -41 -15 -3 -16 4 -18 74 -15 51 2 79 7 82 16 2 8 -7 12
-25 12 -28 0 -29 1 -40 78 -6 42 -21 99 -33 126 -32 76 -110 175 -110 140z"/>
<path d="M294 313 c16 -61 13 -58 65 -55 31 3 60 -2 79 -12 30 -15 31 -15 51
17 l21 32 -38 17 c-24 11 -63 18 -110 18 -65 0 -73 -2 -68 -17z"/>
<path d="M184 266 c-35 -30 -102 -132 -92 -141 1 -2 19 -6 39 -10 33 -6 37 -5
43 19 4 15 25 44 47 66 l41 40 -19 30 -19 30 -40 -34z"/>
<path d="M532 225 c-23 -23 -23 -26 -6 -42 22 -22 44 -76 44 -108 0 -23 4 -25
40 -25 l41 0 -7 37 c-8 49 -28 97 -54 134 -26 35 -29 35 -58 4z"/>
<path d="M335 163 c8 -45 4 -40 38 -45 22 -2 32 3 48 28 l20 32 -32 11 c-18 6
-43 11 -57 11 -23 0 -24 -2 -17 -37z"/>
<path d="M276 164 c-31 -30 -49 -65 -40 -73 5 -5 20 -11 34 -14 19 -4 29 0 43
18 17 23 16 25 -2 55 -17 29 -19 30 -35 14z"/>
<path d="M2789 147 c7 -10 22 -17 32 -17 25 0 33 -17 12 -28 -24 -12 -179 -40
-273 -48 -41 -4 -86 -11 -100 -17 -25 -11 -25 -11 10 -15 37 -4 201 12 290 29
83 16 148 38 154 54 8 21 -36 47 -92 53 -43 5 -46 4 -33 -11z"/>
<path d="M439 127 c-11 -14 -15 -34 -12 -50 5 -24 10 -27 44 -27 45 0 49 12
23 66 -19 40 -33 42 -55 11z"/>
<path d="M1162 128 c-19 -19 -14 -28 23 -44 77 -32 270 -59 490 -68 124 -5
103 -2 -165 30 -197 22 -313 53 -303 80 6 18 -28 19 -45 2z"/>
<path d="M12 51 c-23 -14 -10 -46 21 -49 26 -3 28 -1 25 25 -3 29 -23 39 -46
24z"/>
<path d="M220 47 c0 -37 12 -47 55 -47 42 0 43 0 32 25 -8 15 -20 25 -34 25
-12 0 -28 3 -37 6 -10 4 -16 1 -16 -9z"/>
<path d="M422 19 c-11 -18 -9 -19 33 -19 25 0 45 5 45 10 0 6 -1 10 -3 10 -1
0 -16 4 -33 9 -25 7 -33 5 -42 -10z"/>
</g>
</svg>
